<svg width="1269" height="288" viewBox="0 0 1269 288" fill="none" xmlns="http://www.w3.org/2000/svg">
<path d="M112.491 287.389C112.894 287.479 113.328 287.539 113.747 287.539C114.165 287.539 114.584 287.479 114.988 287.389C160.187 276.145 227.067 227.686 227.067 159.386V56.86C227.067 54.0341 224.75 51.7315 221.924 51.7315C179.236 51.7315 136.518 31.6211 118.083 2.82368C117.141 1.37334 115.511 0.461273 113.747 0.461273C111.997 0.461273 110.338 1.37334 109.396 2.82368C90.9449 31.6211 48.2421 51.7315 5.56925 51.7315C2.72838 51.7315 0.425781 54.0341 0.425781 56.86V159.386C0.425781 227.686 67.3058 276.145 112.491 287.389Z" fill="#002F54"/>
<path d="M112.294 208.686C78.2177 208.686 50.5938 181.063 50.5938 146.987C50.5938 112.911 78.2177 85.287 112.294 85.287" stroke="#2CDE80" stroke-width="21"/>
<path d="M113.746 208.686C147.821 208.686 175.445 181.063 175.445 146.987C175.445 112.911 147.821 85.2869 113.746 85.2869" stroke="#DDDD3F" stroke-width="21"/>
<path d="M113.463 147.215L114.878 148.633L116.294 147.215L177.862 85.5343C182.38 81.0088 189.707 81.0088 194.225 85.5343L194.225 85.5347C198.747 90.0619 198.747 97.4085 194.225 101.94L195.64 103.353L194.225 101.94L123.135 173.162L123.133 173.164L123.065 173.232L123.063 173.234C118.546 177.76 111.215 177.76 106.698 173.235C106.698 173.235 106.697 173.234 106.697 173.234L104.139 170.67L104.139 170.669L78.7234 145.207C74.2042 140.68 74.2042 133.333 78.7234 128.805C83.2443 124.276 90.5716 124.277 95.0885 128.805L95.0889 128.805L113.463 147.215Z" fill="#2CDE80" stroke="#002F54" stroke-width="4"/>
<path d="M333.669 210.186C323.069 210.186 313.469 207.886 304.869 203.286C296.369 198.586 289.669 192.136 284.769 183.936C279.969 175.736 277.569 166.486 277.569 156.186C277.569 145.886 280.019 136.636 284.919 128.436C289.819 120.236 296.519 113.836 305.019 109.236C313.619 104.536 323.219 102.186 333.819 102.186C342.419 102.186 350.269 103.686 357.369 106.686C364.469 109.686 370.469 114.036 375.369 119.736L362.769 131.586C355.169 123.386 345.819 119.286 334.719 119.286C327.519 119.286 321.069 120.886 315.369 124.086C309.669 127.186 305.219 131.536 302.019 137.136C298.819 142.736 297.219 149.086 297.219 156.186C297.219 163.286 298.819 169.636 302.019 175.236C305.219 180.836 309.669 185.236 315.369 188.436C321.069 191.536 327.519 193.086 334.719 193.086C345.819 193.086 355.169 188.936 362.769 180.636L375.369 192.636C370.469 198.336 364.419 202.686 357.219 205.686C350.119 208.686 342.269 210.186 333.669 210.186ZM472.803 192.336V208.686H394.053V103.686H470.703V120.036H413.553V147.336H464.253V163.386H413.553V192.336H472.803ZM563.241 208.686L541.791 177.936C540.891 178.036 539.541 178.086 537.741 178.086H514.041V208.686H494.541V103.686H537.741C546.841 103.686 554.741 105.186 561.441 108.186C568.241 111.186 573.441 115.486 577.041 121.086C580.641 126.686 582.441 133.336 582.441 141.036C582.441 148.936 580.491 155.736 576.591 161.436C572.791 167.136 567.291 171.386 560.091 174.186L584.241 208.686H563.241ZM562.791 141.036C562.791 134.336 560.591 129.186 556.191 125.586C551.791 121.986 545.341 120.186 536.841 120.186H514.041V162.036H536.841C545.341 162.036 551.791 160.236 556.191 156.636C560.591 152.936 562.791 147.736 562.791 141.036ZM624.093 120.186H589.293V103.686H678.393V120.186H643.593V208.686H624.093V120.186ZM693.028 103.686H712.528V208.686H693.028V103.686ZM772.578 209.286C764.978 209.286 757.728 207.936 750.828 205.236C744.028 202.536 738.778 199.036 735.078 194.736L737.778 191.136C741.278 195.136 746.128 198.436 752.328 201.036C758.628 203.536 765.328 204.786 772.428 204.786C782.928 204.786 790.828 202.736 796.128 198.636C801.528 194.436 804.228 189.086 804.228 182.586C804.228 177.586 802.828 173.586 800.028 170.586C797.228 167.486 793.778 165.186 789.678 163.686C785.578 162.086 779.978 160.436 772.878 158.736C765.278 156.836 759.178 154.986 754.578 153.186C749.978 151.386 746.078 148.636 742.878 144.936C739.678 141.236 738.078 136.286 738.078 130.086C738.078 125.186 739.378 120.686 741.978 116.586C744.578 112.486 748.528 109.236 753.828 106.836C759.228 104.336 765.928 103.086 773.928 103.086C779.628 103.086 785.228 103.936 790.728 105.636C796.328 107.336 801.078 109.686 804.978 112.686L802.728 116.736C798.628 113.736 794.028 111.486 788.928 109.986C783.928 108.386 778.978 107.586 774.078 107.586C763.878 107.586 756.128 109.736 750.828 114.036C745.628 118.236 743.028 123.586 743.028 130.086C743.028 135.186 744.428 139.286 747.228 142.386C750.128 145.386 753.628 147.686 757.728 149.286C761.928 150.886 767.528 152.536 774.528 154.236C782.128 156.136 788.228 157.986 792.828 159.786C797.428 161.486 801.278 164.186 804.378 167.886C807.578 171.486 809.178 176.336 809.178 182.436C809.178 187.336 807.828 191.836 805.128 195.936C802.528 200.036 798.478 203.286 792.978 205.686C787.478 208.086 780.678 209.286 772.578 209.286ZM876.905 209.286C863.905 209.286 853.755 205.486 846.455 197.886C839.255 190.286 835.655 179.136 835.655 164.436V103.686H840.755V164.286C840.755 177.686 843.855 187.786 850.055 194.586C856.255 201.286 865.205 204.636 876.905 204.636C888.505 204.636 897.405 201.286 903.605 194.586C909.905 187.786 913.055 177.686 913.055 164.286V103.686H918.005V164.436C918.005 179.136 914.405 190.286 907.205 197.886C900.005 205.486 889.905 209.286 876.905 209.286ZM1029.3 208.686L1003.35 172.536C999.951 173.136 996.151 173.436 991.951 173.436H960.601V208.686H955.501V103.686H991.951C1005.05 103.686 1015.25 106.786 1022.55 112.986C1029.95 119.086 1033.65 127.586 1033.65 138.486C1033.65 146.886 1031.45 153.936 1027.05 159.636C1022.75 165.236 1016.55 169.136 1008.45 171.336L1035.3 208.686H1029.3ZM992.251 168.786C1003.95 168.786 1012.95 166.186 1019.25 160.986C1025.55 155.686 1028.7 148.186 1028.7 138.486C1028.7 128.886 1025.55 121.486 1019.25 116.286C1012.95 110.986 1003.95 108.336 992.251 108.336H960.601V168.786H992.251ZM1134.12 204.036V208.686H1063.17V103.686H1132.02V108.336H1068.27V153.036H1125.27V157.686H1068.27V204.036H1134.12ZM1163.36 103.686H1203.86C1214.76 103.686 1224.41 105.936 1232.81 110.436C1241.31 114.936 1247.86 121.186 1252.46 129.186C1257.16 137.086 1259.51 146.086 1259.51 156.186C1259.51 166.286 1257.16 175.336 1252.46 183.336C1247.86 191.236 1241.31 197.436 1232.81 201.936C1224.41 206.436 1214.76 208.686 1203.86 208.686H1163.36V103.686ZM1203.56 204.036C1213.76 204.036 1222.66 201.986 1230.26 197.886C1237.96 193.786 1243.91 188.136 1248.11 180.936C1252.31 173.636 1254.41 165.386 1254.41 156.186C1254.41 146.986 1252.31 138.786 1248.11 131.586C1243.91 124.286 1237.96 118.586 1230.26 114.486C1222.66 110.386 1213.76 108.336 1203.56 108.336H1168.46V204.036H1203.56Z" fill="#F1F1F1"/>
</svg>
