<svg width="1269" height="288" viewBox="0 0 1269 288" fill="none" xmlns="http://www.w3.org/2000/svg">
<path d="M112.492 287.389C112.895 287.479 113.329 287.539 113.748 287.539C114.166 287.539 114.585 287.479 114.989 287.389C160.188 276.145 227.068 227.686 227.068 159.386V56.86C227.068 54.0341 224.751 51.7315 221.925 51.7315C179.237 51.7315 136.519 31.6211 118.084 2.82368C117.142 1.37334 115.512 0.461273 113.748 0.461273C111.998 0.461273 110.339 1.37334 109.397 2.82368C90.9459 31.6211 48.2431 51.7315 5.57023 51.7315C2.72936 51.7315 0.426758 54.0341 0.426758 56.86V159.386C0.426758 227.686 67.3068 276.145 112.492 287.389Z" fill="#002F54"/>
<path d="M112.294 208.686C78.2187 208.686 50.5947 181.063 50.5947 146.987C50.5947 112.911 78.2186 85.287 112.294 85.287" stroke="#2CDE80" stroke-width="21"/>
<path d="M113.748 208.686C147.823 208.686 175.447 181.063 175.447 146.987C175.447 112.911 147.823 85.2869 113.748 85.2869" stroke="#DDDD3F" stroke-width="21"/>
<path d="M113.465 147.215L114.88 148.633L116.296 147.215L177.864 85.5343C182.382 81.0088 189.709 81.0088 194.227 85.5343L194.227 85.5347C198.749 90.0619 198.749 97.4085 194.227 101.94L195.642 103.353L194.226 101.94L123.137 173.162L123.135 173.164L123.067 173.232L123.065 173.234C118.548 177.76 111.217 177.76 106.7 173.235C106.7 173.235 106.699 173.234 106.699 173.234L104.141 170.67L104.141 170.669L78.7254 145.207C74.2061 140.68 74.2061 133.333 78.7254 128.805C83.2463 124.276 90.5736 124.277 95.0905 128.805L95.0908 128.805L113.465 147.215Z" fill="#2CDE80" stroke="#002F54" stroke-width="4"/>
<path d="M333.67 210.186C323.07 210.186 313.47 207.886 304.87 203.286C296.37 198.586 289.67 192.136 284.77 183.936C279.97 175.736 277.57 166.486 277.57 156.186C277.57 145.886 280.02 136.636 284.92 128.436C289.82 120.236 296.52 113.836 305.02 109.236C313.62 104.536 323.22 102.186 333.82 102.186C342.42 102.186 350.27 103.686 357.37 106.686C364.47 109.686 370.47 114.036 375.37 119.736L362.77 131.586C355.17 123.386 345.82 119.286 334.72 119.286C327.52 119.286 321.07 120.886 315.37 124.086C309.67 127.186 305.22 131.536 302.02 137.136C298.82 142.736 297.22 149.086 297.22 156.186C297.22 163.286 298.82 169.636 302.02 175.236C305.22 180.836 309.67 185.236 315.37 188.436C321.07 191.536 327.52 193.086 334.72 193.086C345.82 193.086 355.17 188.936 362.77 180.636L375.37 192.636C370.47 198.336 364.42 202.686 357.22 205.686C350.12 208.686 342.27 210.186 333.67 210.186ZM472.804 192.336V208.686H394.054V103.686H470.704V120.036H413.554V147.336H464.254V163.386H413.554V192.336H472.804ZM563.242 208.686L541.792 177.936C540.892 178.036 539.542 178.086 537.742 178.086H514.042V208.686H494.542V103.686H537.742C546.842 103.686 554.742 105.186 561.442 108.186C568.242 111.186 573.442 115.486 577.042 121.086C580.642 126.686 582.442 133.336 582.442 141.036C582.442 148.936 580.492 155.736 576.592 161.436C572.792 167.136 567.292 171.386 560.092 174.186L584.242 208.686H563.242ZM562.792 141.036C562.792 134.336 560.592 129.186 556.192 125.586C551.792 121.986 545.342 120.186 536.842 120.186H514.042V162.036H536.842C545.342 162.036 551.792 160.236 556.192 156.636C560.592 152.936 562.792 147.736 562.792 141.036ZM624.094 120.186H589.294V103.686H678.394V120.186H643.594V208.686H624.094V120.186ZM693.029 103.686H712.529V208.686H693.029V103.686ZM772.579 209.286C764.979 209.286 757.729 207.936 750.829 205.236C744.029 202.536 738.779 199.036 735.079 194.736L737.779 191.136C741.279 195.136 746.129 198.436 752.329 201.036C758.629 203.536 765.329 204.786 772.429 204.786C782.929 204.786 790.829 202.736 796.129 198.636C801.529 194.436 804.229 189.086 804.229 182.586C804.229 177.586 802.829 173.586 800.029 170.586C797.229 167.486 793.779 165.186 789.679 163.686C785.579 162.086 779.979 160.436 772.879 158.736C765.279 156.836 759.179 154.986 754.579 153.186C749.979 151.386 746.079 148.636 742.879 144.936C739.679 141.236 738.079 136.286 738.079 130.086C738.079 125.186 739.379 120.686 741.979 116.586C744.579 112.486 748.529 109.236 753.829 106.836C759.229 104.336 765.929 103.086 773.929 103.086C779.629 103.086 785.229 103.936 790.729 105.636C796.329 107.336 801.079 109.686 804.979 112.686L802.729 116.736C798.629 113.736 794.029 111.486 788.929 109.986C783.929 108.386 778.979 107.586 774.079 107.586C763.879 107.586 756.129 109.736 750.829 114.036C745.629 118.236 743.029 123.586 743.029 130.086C743.029 135.186 744.429 139.286 747.229 142.386C750.129 145.386 753.629 147.686 757.729 149.286C761.929 150.886 767.529 152.536 774.529 154.236C782.129 156.136 788.229 157.986 792.829 159.786C797.429 161.486 801.279 164.186 804.379 167.886C807.579 171.486 809.179 176.336 809.179 182.436C809.179 187.336 807.829 191.836 805.129 195.936C802.529 200.036 798.479 203.286 792.979 205.686C787.479 208.086 780.679 209.286 772.579 209.286ZM876.906 209.286C863.906 209.286 853.756 205.486 846.456 197.886C839.256 190.286 835.656 179.136 835.656 164.436V103.686H840.756V164.286C840.756 177.686 843.856 187.786 850.056 194.586C856.256 201.286 865.206 204.636 876.906 204.636C888.506 204.636 897.406 201.286 903.606 194.586C909.906 187.786 913.056 177.686 913.056 164.286V103.686H918.006V164.436C918.006 179.136 914.406 190.286 907.206 197.886C900.006 205.486 889.906 209.286 876.906 209.286ZM1029.3 208.686L1003.35 172.536C999.952 173.136 996.152 173.436 991.952 173.436H960.602V208.686H955.502V103.686H991.952C1005.05 103.686 1015.25 106.786 1022.55 112.986C1029.95 119.086 1033.65 127.586 1033.65 138.486C1033.65 146.886 1031.45 153.936 1027.05 159.636C1022.75 165.236 1016.55 169.136 1008.45 171.336L1035.3 208.686H1029.3ZM992.252 168.786C1003.95 168.786 1012.95 166.186 1019.25 160.986C1025.55 155.686 1028.7 148.186 1028.7 138.486C1028.7 128.886 1025.55 121.486 1019.25 116.286C1012.95 110.986 1003.95 108.336 992.252 108.336H960.602V168.786H992.252ZM1134.12 204.036V208.686H1063.17V103.686H1132.02V108.336H1068.27V153.036H1125.27V157.686H1068.27V204.036H1134.12ZM1163.36 103.686H1203.86C1214.76 103.686 1224.41 105.936 1232.81 110.436C1241.31 114.936 1247.86 121.186 1252.46 129.186C1257.16 137.086 1259.51 146.086 1259.51 156.186C1259.51 166.286 1257.16 175.336 1252.46 183.336C1247.86 191.236 1241.31 197.436 1232.81 201.936C1224.41 206.436 1214.76 208.686 1203.86 208.686H1163.36V103.686ZM1203.56 204.036C1213.76 204.036 1222.66 201.986 1230.26 197.886C1237.96 193.786 1243.91 188.136 1248.11 180.936C1252.31 173.636 1254.41 165.386 1254.41 156.186C1254.41 146.986 1252.31 138.786 1248.11 131.586C1243.91 124.286 1237.96 118.586 1230.26 114.486C1222.66 110.386 1213.76 108.336 1203.56 108.336H1168.46V204.036H1203.56Z" fill="#002F54"/>
</svg>
