<svg width="308" height="68" viewBox="0 0 308 68" fill="none" xmlns="http://www.w3.org/2000/svg">
<path d="M2.42 14.6382V37.5682C2.42 52.6982 18 62.9582 26.61 65.2482C35.21 62.9582 50.8 52.6982 50.8 37.5682V14.6382C41.12 14.2982 31.57 9.87824 26.61 3.49824C21.65 9.87824 12.11 14.2982 2.42 14.6382ZM26.61 67.6982C26.5136 67.7087 26.4164 67.7087 26.32 67.6982C15.71 65.0182 0 53.6282 0 37.5682V13.4582C0 13.1373 0.127482 12.8296 0.354401 12.6026C0.58132 12.3757 0.889088 12.2482 1.21 12.2482C11.21 12.2482 21.26 7.52824 25.59 0.748242C25.6992 0.581989 25.8474 0.444963 26.0217 0.3491C26.196 0.253238 26.3911 0.201448 26.59 0.198242C26.7891 0.200579 26.9845 0.251997 27.1589 0.347938C27.3334 0.443878 27.4814 0.581376 27.59 0.748242C32 7.52824 42 12.2482 52 12.2482C52.3209 12.2482 52.6287 12.3757 52.8556 12.6026C53.0825 12.8296 53.21 13.1373 53.21 13.4582V37.5682C53.21 53.6282 37.51 65.0182 26.89 67.6582C26.7936 67.6687 26.6964 67.6687 26.6 67.6582" fill="#093449"/>
<path d="M26.6099 18.2781C23.5132 18.2899 20.4895 19.219 17.9205 20.9481C15.3515 22.6771 13.3523 25.1285 12.1755 27.9929C10.9987 30.8572 10.6969 34.006 11.3083 37.0417C11.9197 40.0775 13.4168 42.864 15.6107 45.0495C17.8045 47.235 20.5968 48.7214 23.6348 49.3212C26.6728 49.921 29.8205 49.6072 32.6803 48.4194C35.5401 47.2317 37.9839 45.2232 39.7031 42.6476C41.4223 40.072 42.3398 37.0447 42.3399 33.9481C42.3293 29.785 40.6667 25.7963 37.7173 22.8582C34.7679 19.9201 30.7729 18.2728 26.6099 18.2781ZM26.6099 52.0281C23.0365 52.0162 19.5469 50.9458 16.5815 48.9519C13.6162 46.9581 11.3082 44.1302 9.94895 40.8255C8.58971 37.5208 8.24022 33.8874 8.9446 30.3842C9.64898 26.881 11.3757 23.6651 13.9066 21.1425C16.4375 18.62 19.6591 16.904 23.1646 16.2112C26.6702 15.5184 30.3024 15.88 33.6026 17.2501C36.9027 18.6203 39.7229 20.9377 41.7069 23.9096C43.691 26.8816 44.7498 30.3747 44.7499 33.9481C44.7366 38.7495 42.8193 43.3496 39.4185 46.7391C36.0177 50.1287 31.4113 52.0307 26.6099 52.0281Z" fill="#DDDD3F"/>
<path d="M19.3603 42.3885H19.1603C18.9713 42.3575 18.7923 42.2826 18.6377 42.1697C18.4831 42.0568 18.3572 41.909 18.2703 41.7385L15.8503 36.8985C15.7077 36.6119 15.6845 36.2806 15.7857 35.9769C15.8869 35.6733 16.1043 35.4222 16.3903 35.2785C16.6787 35.1382 17.0106 35.1161 17.3151 35.217C17.6196 35.3178 17.8726 35.5337 18.0203 35.8185L19.6803 39.1985L33.0003 25.8585C33.2296 25.6367 33.5362 25.5127 33.8553 25.5127C34.1743 25.5127 34.4809 25.6367 34.7103 25.8585C34.8236 25.9701 34.9137 26.1032 34.9751 26.25C35.0366 26.3968 35.0682 26.5543 35.0682 26.7135C35.0682 26.8726 35.0366 27.0301 34.9751 27.1769C34.9137 27.3237 34.8236 27.4568 34.7103 27.5685L20.2103 42.0385C20.0985 42.1498 19.9659 42.238 19.8201 42.2981C19.6742 42.3581 19.518 42.3888 19.3603 42.3885Z" fill="#093449"/>
<path d="M82.6378 43.8385C80.0938 43.8385 77.7898 43.2865 75.7258 42.1825C73.6858 41.0545 72.0778 39.5065 70.9018 37.5385C69.7498 35.5705 69.1738 33.3505 69.1738 30.8785C69.1738 28.4065 69.7618 26.1865 70.9378 24.2185C72.1138 22.2505 73.7218 20.7145 75.7618 19.6105C77.8258 18.4825 80.1298 17.9185 82.6738 17.9185C84.7378 17.9185 86.6218 18.2785 88.3258 18.9985C90.0298 19.7185 91.4698 20.7625 92.6458 22.1305L89.6218 24.9745C87.7978 23.0065 85.5538 22.0225 82.8898 22.0225C81.1618 22.0225 79.6138 22.4065 78.2458 23.1745C76.8778 23.9185 75.8098 24.9625 75.0418 26.3065C74.2738 27.6505 73.8898 29.1745 73.8898 30.8785C73.8898 32.5825 74.2738 34.1065 75.0418 35.4505C75.8098 36.7945 76.8778 37.8505 78.2458 38.6185C79.6138 39.3625 81.1618 39.7345 82.8898 39.7345C85.5538 39.7345 87.7978 38.7385 89.6218 36.7465L92.6458 39.6265C91.4698 40.9945 90.0178 42.0385 88.2898 42.7585C86.5858 43.4785 84.7018 43.8385 82.6378 43.8385ZM116.03 39.5545V43.4785H97.1301V18.2785H115.526V22.2025H101.81V28.7545H113.978V32.6065H101.81V39.5545H116.03ZM137.735 43.4785L132.587 36.0985C132.371 36.1225 132.047 36.1345 131.615 36.1345H125.927V43.4785H121.247V18.2785H131.615C133.799 18.2785 135.695 18.6385 137.303 19.3585C138.935 20.0785 140.183 21.1105 141.047 22.4545C141.911 23.7985 142.343 25.3945 142.343 27.2425C142.343 29.1385 141.875 30.7705 140.939 32.1385C140.027 33.5065 138.707 34.5265 136.979 35.1985L142.775 43.4785H137.735ZM137.627 27.2425C137.627 25.6345 137.099 24.3985 136.043 23.5345C134.987 22.6705 133.439 22.2385 131.399 22.2385H125.927V32.2825H131.399C133.439 32.2825 134.987 31.8505 136.043 30.9865C137.099 30.0985 137.627 28.8505 137.627 27.2425ZM152.34 22.2385H143.988V18.2785H165.372V22.2385H157.02V43.4785H152.34V22.2385ZM168.884 18.2785H173.564V43.4785H168.884V18.2785Z" fill="black"/>
<path d="M188.57 43.6225C186.746 43.6225 185.006 43.2985 183.35 42.6505C181.718 42.0025 180.458 41.1625 179.57 40.1305L180.218 39.2665C181.058 40.2265 182.222 41.0185 183.71 41.6425C185.222 42.2425 186.83 42.5425 188.534 42.5425C191.054 42.5425 192.95 42.0505 194.222 41.0665C195.518 40.0585 196.166 38.7745 196.166 37.2145C196.166 36.0145 195.83 35.0545 195.158 34.3345C194.486 33.5905 193.658 33.0385 192.674 32.6785C191.69 32.2945 190.346 31.8985 188.642 31.4905C186.818 31.0345 185.354 30.5905 184.25 30.1585C183.146 29.7265 182.21 29.0665 181.442 28.1785C180.674 27.2905 180.29 26.1025 180.29 24.6145C180.29 23.4385 180.602 22.3585 181.226 21.3745C181.85 20.3905 182.798 19.6105 184.07 19.0345C185.366 18.4345 186.974 18.1345 188.894 18.1345C190.262 18.1345 191.606 18.3385 192.926 18.7465C194.27 19.1545 195.41 19.7185 196.346 20.4385L195.806 21.4105C194.822 20.6905 193.718 20.1505 192.494 19.7905C191.294 19.4065 190.106 19.2145 188.93 19.2145C186.482 19.2145 184.622 19.7305 183.35 20.7625C182.102 21.7705 181.478 23.0545 181.478 24.6145C181.478 25.8385 181.814 26.8225 182.486 27.5665C183.182 28.2865 184.022 28.8385 185.006 29.2225C186.014 29.6065 187.358 30.0025 189.038 30.4105C190.862 30.8665 192.326 31.3105 193.43 31.7425C194.534 32.1505 195.458 32.7985 196.202 33.6865C196.97 34.5505 197.354 35.7145 197.354 37.1785C197.354 38.3545 197.03 39.4345 196.382 40.4185C195.758 41.4025 194.786 42.1825 193.466 42.7585C192.146 43.3345 190.514 43.6225 188.57 43.6225ZM213.608 43.6225C210.488 43.6225 208.052 42.7105 206.3 40.8865C204.572 39.0625 203.708 36.3865 203.708 32.8585V18.2785H204.932V32.8225C204.932 36.0385 205.676 38.4625 207.164 40.0945C208.652 41.7025 210.8 42.5065 213.608 42.5065C216.392 42.5065 218.528 41.7025 220.016 40.0945C221.528 38.4625 222.284 36.0385 222.284 32.8225V18.2785H223.472V32.8585C223.472 36.3865 222.608 39.0625 220.88 40.8865C219.152 42.7105 216.728 43.6225 213.608 43.6225ZM250.183 43.4785L243.955 34.8025C243.139 34.9465 242.227 35.0185 241.219 35.0185H233.695V43.4785H232.471V18.2785H241.219C244.363 18.2785 246.811 19.0225 248.563 20.5105C250.339 21.9745 251.227 24.0145 251.227 26.6305C251.227 28.6465 250.699 30.3385 249.643 31.7065C248.611 33.0505 247.123 33.9865 245.179 34.5145L251.623 43.4785H250.183ZM241.291 33.9025C244.099 33.9025 246.259 33.2785 247.771 32.0305C249.283 30.7585 250.039 28.9585 250.039 26.6305C250.039 24.3265 249.283 22.5505 247.771 21.3025C246.259 20.0305 244.099 19.3945 241.291 19.3945H233.695V33.9025H241.291ZM275.339 42.3625V43.4785H258.311V18.2785H274.835V19.3945H259.535V30.1225H273.215V31.2385H259.535V42.3625H275.339ZM282.358 18.2785H292.078C294.694 18.2785 297.01 18.8185 299.026 19.8985C301.066 20.9785 302.638 22.4785 303.742 24.3985C304.87 26.2945 305.434 28.4545 305.434 30.8785C305.434 33.3025 304.87 35.4745 303.742 37.3945C302.638 39.2905 301.066 40.7785 299.026 41.8585C297.01 42.9385 294.694 43.4785 292.078 43.4785H282.358V18.2785ZM292.006 42.3625C294.454 42.3625 296.59 41.8705 298.414 40.8865C300.262 39.9025 301.69 38.5465 302.698 36.8185C303.706 35.0665 304.21 33.0865 304.21 30.8785C304.21 28.6705 303.706 26.7025 302.698 24.9745C301.69 23.2225 300.262 21.8545 298.414 20.8705C296.59 19.8865 294.454 19.3945 292.006 19.3945H283.582V42.3625H292.006Z" fill="black"/>
</svg>
