<svg width="296" height="60" viewBox="0 0 296 60" fill="none" xmlns="http://www.w3.org/2000/svg">
<path d="M20.1641 48.2984C16.7721 48.2984 13.7001 47.5624 10.9481 46.0904C8.2281 44.5864 6.0841 42.5224 4.5161 39.8984C2.9801 37.2744 2.2121 34.3144 2.2121 31.0184C2.2121 27.7224 2.9961 24.7624 4.5641 22.1384C6.1321 19.5144 8.2761 17.4664 10.9961 15.9944C13.7481 14.4904 16.8201 13.7384 20.2121 13.7384C22.9641 13.7384 25.4761 14.2184 27.7481 15.1784C30.0201 16.1384 31.9401 17.5304 33.5081 19.3544L29.4761 23.1464C27.0441 20.5224 24.0521 19.2104 20.5001 19.2104C18.1961 19.2104 16.1321 19.7224 14.3081 20.7464C12.4841 21.7384 11.0601 23.1304 10.0361 24.9224C9.0121 26.7144 8.5001 28.7464 8.5001 31.0184C8.5001 33.2904 9.0121 35.3224 10.0361 37.1144C11.0601 38.9064 12.4841 40.3144 14.3081 41.3384C16.1321 42.3304 18.1961 42.8264 20.5001 42.8264C24.0521 42.8264 27.0441 41.4984 29.4761 38.8424L33.5081 42.6824C31.9401 44.5064 30.0041 45.8984 27.7001 46.8584C25.4281 47.8184 22.9161 48.2984 20.1641 48.2984ZM61.5671 42.5864V47.8184H36.3671V14.2184H60.8951V19.4504H42.6071V28.1864H58.8311V33.3224H42.6071V42.5864H61.5671ZM87.3874 47.8184L80.5234 37.9784C80.2354 38.0104 79.8034 38.0264 79.2274 38.0264H71.6434V47.8184H65.4033V14.2184H79.2274C82.1394 14.2184 84.6674 14.6984 86.8114 15.6584C88.9874 16.6184 90.6514 17.9944 91.8034 19.7864C92.9554 21.5784 93.5314 23.7064 93.5314 26.1704C93.5314 28.6984 92.9074 30.8744 91.6594 32.6984C90.4434 34.5224 88.6834 35.8824 86.3794 36.7784L94.1074 47.8184H87.3874ZM87.2434 26.1704C87.2434 24.0264 86.5394 22.3784 85.1313 21.2264C83.7234 20.0744 81.6594 19.4984 78.9394 19.4984H71.6434V32.8904H78.9394C81.6594 32.8904 83.7234 32.3144 85.1313 31.1624C86.5394 29.9784 87.2434 28.3144 87.2434 26.1704ZM103.74 19.4984H92.604V14.2184H121.116V19.4984H109.98V47.8184H103.74V19.4984ZM122.679 14.2184H128.919V47.8184H122.679V14.2184Z" fill="#F8F8F8"/>
<path d="M148.74 48.0104C146.308 48.0104 143.988 47.5784 141.78 46.7144C139.604 45.8504 137.924 44.7304 136.74 43.3544L137.604 42.2024C138.724 43.4824 140.276 44.5384 142.26 45.3704C144.276 46.1704 146.42 46.5704 148.692 46.5704C152.052 46.5704 154.58 45.9144 156.276 44.6024C158.004 43.2584 158.868 41.5464 158.868 39.4664C158.868 37.8664 158.42 36.5864 157.524 35.6264C156.628 34.6344 155.524 33.8984 154.212 33.4184C152.9 32.9064 151.108 32.3784 148.836 31.8344C146.404 31.2264 144.452 30.6344 142.98 30.0584C141.508 29.4824 140.26 28.6024 139.236 27.4184C138.212 26.2344 137.7 24.6504 137.7 22.6664C137.7 21.0984 138.116 19.6584 138.948 18.3464C139.78 17.0344 141.044 15.9944 142.74 15.2264C144.468 14.4264 146.612 14.0264 149.172 14.0264C150.996 14.0264 152.788 14.2984 154.548 14.8424C156.34 15.3864 157.86 16.1384 159.108 17.0984L158.388 18.3944C157.076 17.4344 155.604 16.7144 153.972 16.2344C152.372 15.7224 150.788 15.4664 149.22 15.4664C145.956 15.4664 143.476 16.1544 141.78 17.5304C140.116 18.8744 139.284 20.5864 139.284 22.6664C139.284 24.2984 139.732 25.6104 140.628 26.6024C141.556 27.5624 142.676 28.2984 143.988 28.8104C145.332 29.3224 147.124 29.8504 149.364 30.3944C151.796 31.0024 153.748 31.5944 155.22 32.1704C156.692 32.7144 157.924 33.5784 158.916 34.7624C159.94 35.9144 160.452 37.4664 160.452 39.4184C160.452 40.9864 160.02 42.4264 159.156 43.7384C158.324 45.0504 157.028 46.0904 155.268 46.8584C153.508 47.6264 151.332 48.0104 148.74 48.0104ZM179.005 48.0104C174.845 48.0104 171.597 46.7944 169.261 44.3624C166.957 41.9304 165.805 38.3624 165.805 33.6584V14.2184H167.437V33.6104C167.437 37.8984 168.429 41.1304 170.413 43.3064C172.397 45.4504 175.261 46.5224 179.005 46.5224C182.717 46.5224 185.565 45.4504 187.549 43.3064C189.565 41.1304 190.573 37.8984 190.573 33.6104V14.2184H192.157V33.6584C192.157 38.3624 191.005 41.9304 188.701 44.3624C186.397 46.7944 183.165 48.0104 179.005 48.0104ZM224.651 47.8184L216.347 36.2504C215.259 36.4424 214.043 36.5384 212.699 36.5384H202.667V47.8184H201.035V14.2184H212.699C216.891 14.2184 220.155 15.2104 222.491 17.1944C224.859 19.1464 226.043 21.8664 226.043 25.3544C226.043 28.0424 225.339 30.2984 223.931 32.1224C222.555 33.9144 220.571 35.1624 217.979 35.8664L226.571 47.8184H224.651ZM212.795 35.0504C216.539 35.0504 219.419 34.2184 221.435 32.5544C223.451 30.8584 224.459 28.4584 224.459 25.3544C224.459 22.2824 223.451 19.9144 221.435 18.2504C219.419 16.5544 216.539 15.7064 212.795 15.7064H202.667V35.0504H212.795ZM255.072 46.3304V47.8184H232.368V14.2184H254.4V15.7064H234V30.0104H252.24V31.4984H234V46.3304H255.072ZM261.311 14.2184H274.271C277.759 14.2184 280.847 14.9384 283.535 16.3784C286.255 17.8184 288.351 19.8184 289.823 22.3784C291.327 24.9064 292.079 27.7864 292.079 31.0184C292.079 34.2504 291.327 37.1464 289.823 39.7064C288.351 42.2344 286.255 44.2184 283.535 45.6584C280.847 47.0984 277.759 47.8184 274.271 47.8184H261.311V14.2184ZM274.175 46.3304C277.439 46.3304 280.287 45.6744 282.719 44.3624C285.183 43.0504 287.087 41.2424 288.431 38.9384C289.775 36.6024 290.447 33.9624 290.447 31.0184C290.447 28.0744 289.775 25.4504 288.431 23.1464C287.087 20.8104 285.183 18.9864 282.719 17.6744C280.287 16.3624 277.439 15.7064 274.175 15.7064H262.943V46.3304H274.175Z" fill="#F8F8F8"/>
</svg>
