<svg width="294" height="371" viewBox="0 0 294 371" fill="none" xmlns="http://www.w3.org/2000/svg">
<path d="M145.381 370.717C145.901 370.832 146.46 370.909 147 370.909C147.54 370.909 148.079 370.832 148.599 370.717C206.855 356.225 293.054 293.768 293.054 205.739V73.5991C293.054 69.9569 290.067 66.9892 286.424 66.9892C231.406 66.9892 176.349 41.0699 152.588 3.95428C151.374 2.08501 149.274 0.909485 147 0.909485C144.745 0.909485 142.606 2.08501 141.392 3.95428C117.612 41.0699 62.5744 66.9892 7.57546 66.9892C3.91399 66.9892 0.946289 69.9569 0.946289 73.5991V205.739C0.946289 293.768 87.1447 356.225 145.381 370.717Z" fill="#002F54"/>
<path d="M145 275.914C97.4177 275.914 58.8447 237.341 58.8447 189.759C58.8447 142.177 97.4177 103.604 145 103.604" stroke="#2CDE80" stroke-width="33"/>
<path d="M148.282 275.914C195.864 275.914 234.437 237.341 234.437 189.759C234.437 142.177 195.864 103.604 148.282 103.604" stroke="#DDDD3F" stroke-width="33"/>
<path d="M145.66 187.375L147.076 188.794L148.491 187.376L232.101 103.614C238.515 97.1882 248.92 97.1882 255.334 103.614L255.334 103.614C261.754 110.042 261.755 120.471 255.334 126.904L256.749 128.317L255.334 126.904L158.795 223.623L158.793 223.625L158.747 223.671L158.699 223.719L158.697 223.721C152.283 230.147 141.873 230.147 135.459 223.721L131.985 220.238L131.985 220.237L97.4713 185.661L96.0558 187.074L97.4713 185.661C91.0552 179.233 91.0552 168.803 97.4713 162.376C103.89 155.945 114.295 155.946 120.708 162.375L120.709 162.375L145.66 187.375Z" fill="#2CDE80" stroke="#002F54" stroke-width="4"/>
</svg>
