<svg width="49" height="48" viewBox="0 0 49 48" fill="none" xmlns="http://www.w3.org/2000/svg">
<g clip-path="url(#clip0)">
<path d="M23.9777 0.128376C37.2013 -0.0735082 47.9945 10.3343 48.2505 23.5569C48.2881 25.4981 48.0939 27.3878 47.6943 29.2003C47.0174 32.2692 46.615 35.3924 46.615 38.5351V44.6099C46.615 45.5406 45.8605 46.2951 44.9298 46.2951H38.855C35.7123 46.2951 32.5892 46.6975 29.5202 47.3744C27.7077 47.7741 25.8181 47.9683 23.8769 47.9306C10.6543 47.6748 0.246375 36.8822 0.448073 23.6587C0.644822 10.7518 11.0708 0.325592 23.9777 0.128376Z" fill="url(#paint0_linear)"/>
<path d="M47.7379 28.9849C47.7228 29.0565 47.7079 29.1281 47.6917 29.1998C47.0146 32.2687 46.6125 35.392 46.6125 38.5349V44.6103C46.6125 45.5404 45.8579 46.2949 44.9277 46.2949H38.8524C38.3983 46.2949 37.9453 46.303 37.4924 46.3203L21.9745 30.8013C21.7087 30.5321 21.5758 30.0479 21.5758 29.3477C21.5758 26.2776 22.3593 24.0683 23.9283 22.7223C24.0855 22.5767 24.4044 22.3202 24.8816 21.9538C24.7499 21.8406 17.37 14.4317 17.2844 14.3567C16.9343 14.0562 16.761 13.6448 16.761 13.1238C16.761 12.1891 17.4184 11.274 18.7357 10.3784C20.0518 9.48295 21.7226 9.03455 23.7459 9.03455C26.2844 9.03455 28.2845 9.68736 29.7451 10.9896L47.7379 28.9849Z" fill="url(#paint1_linear)"/>
<path d="M36.2444 46.385C34.3056 46.5167 32.3783 46.7894 30.4706 47.1741L21.6566 38.3602C21.2002 37.9165 20.9714 37.4 20.9714 36.8085C20.9714 36.1925 21.2002 35.6692 21.6566 35.2382C22.1131 34.8072 22.677 34.5912 23.3483 34.5912C24.037 34.5912 24.6332 34.8073 25.1358 35.2382L36.2444 46.385Z" fill="url(#paint2_linear)"/>
<path d="M16.7633 13.123C16.7633 12.1884 17.4215 11.2733 18.7385 10.3776C20.0549 9.48263 21.7252 9.03479 23.7489 9.03479C26.2871 9.03479 28.287 9.68667 29.7475 10.9898C31.2075 12.2936 31.9381 13.9526 31.9381 15.968C31.9381 16.8013 31.8165 17.6004 31.5734 18.3664C31.3304 19.1322 30.9801 19.8313 30.5216 20.4625C30.0631 21.0942 29.6512 21.6182 29.2871 22.0346C28.9231 22.4515 28.4639 22.9082 27.9109 23.4051C27.3579 23.9026 27.0278 24.2049 26.9221 24.3121C26.1236 25.0376 25.6317 25.7769 25.4452 26.5291C25.2587 27.2818 25.1662 28.4236 25.1662 29.9553C25.1662 30.7887 24.5458 31.205 23.3062 31.205C22.6857 31.205 22.243 31.0706 21.9772 30.8013C21.7114 30.5317 21.5785 30.0472 21.5785 29.347C21.5785 26.2773 22.3626 24.0683 23.9309 22.7218C24.1046 22.5605 24.475 22.2645 25.0419 21.8336C25.6081 21.4029 26.0301 21.0457 26.3078 20.7629C26.585 20.4801 26.9086 20.1028 27.279 19.6318C27.6494 19.1606 27.9202 18.6492 28.0921 18.0968C28.264 17.5451 28.3504 16.9593 28.3504 16.3395C28.3504 15.0472 27.9315 14.0438 27.0944 13.3302C26.2574 12.6166 25.0978 12.2594 23.6158 12.2594C22.7555 12.2594 22.0235 12.3898 21.4189 12.6506C20.8143 12.9113 20.3911 13.2055 20.1491 13.5342C19.9073 13.8629 19.6384 14.1577 19.343 14.4184C19.047 14.6792 18.7384 14.8089 18.4158 14.8089C18.0127 14.8089 17.636 14.6584 17.2872 14.3567C16.9378 14.0558 16.7633 13.6446 16.7633 13.123ZM20.9737 36.808C20.9737 36.1922 21.2018 35.6687 21.6584 35.2379C22.1144 34.8072 22.6787 34.591 23.3501 34.591C24.0393 34.591 24.635 34.8071 25.1377 35.2379C25.6402 35.6687 25.8916 36.1923 25.8916 36.808C25.8916 37.3996 25.6402 37.9165 25.1377 38.36C24.635 38.8035 24.0393 39.025 23.3501 39.025C22.6787 39.025 22.1144 38.8035 21.6584 38.36C21.2018 37.9164 20.9737 37.3996 20.9737 36.808Z" fill="white"/>
</g>
<defs>
<linearGradient id="paint0_linear" x1="15.3671" y1="15.0485" x2="48.013" y2="47.6944" gradientUnits="userSpaceOnUse">
<stop stop-color="#2CDE80"/>
<stop offset="1" stop-color="#6F62DF"/>
</linearGradient>
<linearGradient id="paint1_linear" x1="38.1511" y1="33.1884" x2="10.8307" y2="5.86799" gradientUnits="userSpaceOnUse">
<stop stop-color="#2CDE80"/>
<stop offset="1" stop-color="#2CDE80" stop-opacity="0.39"/>
</linearGradient>
<linearGradient id="paint2_linear" x1="29.0921" y1="42.496" x2="21.8233" y2="35.2272" gradientUnits="userSpaceOnUse">
<stop stop-color="#2CDE80"/>
<stop offset="1" stop-color="#2CDE80" stop-opacity="0.54"/>
</linearGradient>
<clipPath id="clip0">
<rect width="47.8099" height="47.8099" fill="white" transform="translate(0.445068 0.125366)"/>
</clipPath>
</defs>
</svg>
