<svg width="42" height="42" viewBox="0 0 42 42" fill="none" xmlns="http://www.w3.org/2000/svg">
<path d="M35.0417 35.5618H28.9916V26.0868C28.9916 23.8274 28.9512 20.9189 25.8449 20.9189C22.6937 20.9189 22.2115 23.3806 22.2115 25.9224V35.5612H16.1615V16.0768H21.9696V18.7396H22.0509C22.6321 17.7457 23.4721 16.9281 24.4812 16.3738C25.4904 15.8195 26.631 15.5494 27.7816 15.5921C33.9137 15.5921 35.0443 19.6256 35.0443 24.873L35.0417 35.5618ZM9.33473 13.4135C7.39564 13.4139 5.8234 11.8421 5.82308 9.90301C5.82276 7.96392 7.39436 6.39168 9.33346 6.39136C11.2725 6.39089 12.8448 7.96264 12.8451 9.90174C12.8453 10.8329 12.4755 11.7261 11.8172 12.3846C11.1589 13.0432 10.2659 13.4133 9.33473 13.4135ZM12.3599 35.562H6.30335V16.0768H12.3597L12.3599 35.562ZM38.058 0.772503H3.2632C1.61871 0.754001 0.270098 2.07135 0.25 3.71584V38.6557C0.26946 40.301 1.61791 41.6197 3.26304 41.6024H38.058C39.7066 41.6228 41.0603 40.3042 41.0831 38.6557V3.71313C41.0597 2.06545 39.7058 0.748258 38.058 0.769792" fill="#0A66C2"/>
</svg>
