<svg width="308" height="68" viewBox="0 0 308 68" fill="none" xmlns="http://www.w3.org/2000/svg">
<path d="M2.42 14.44V37.37C2.42 52.5 18 62.76 26.61 65.05C35.21 62.76 50.8 52.5 50.8 37.37V14.44C41.12 14.1 31.57 9.68 26.61 3.3C21.65 9.68 12.11 14.1 2.42 14.44ZM26.61 67.5C26.5136 67.5104 26.4164 67.5104 26.32 67.5C15.71 64.82 0 53.43 0 37.37V13.26C0 12.9391 0.127482 12.6313 0.354401 12.4044C0.58132 12.1775 0.889088 12.05 1.21 12.05C11.21 12.05 21.26 7.33 25.59 0.55C25.6992 0.383747 25.8474 0.24672 26.0217 0.150858C26.196 0.054996 26.3911 0.00320597 26.59 0C26.7891 0.00233699 26.9845 0.053755 27.1589 0.149695C27.3334 0.245636 27.4814 0.383134 27.59 0.55C32 7.33 42 12.05 52 12.05C52.3209 12.05 52.6287 12.1775 52.8556 12.4044C53.0825 12.6313 53.21 12.9391 53.21 13.26V37.37C53.21 53.43 37.51 64.82 26.89 67.46C26.7936 67.4704 26.6964 67.4704 26.6 67.46" fill="#F1F1F1"/>
<path d="M26.6099 18.0798C23.5132 18.0917 20.4895 19.0208 17.9205 20.7498C15.3515 22.4789 13.3523 24.9303 12.1755 27.7946C10.9987 30.659 10.6969 33.8078 11.3083 36.8435C11.9197 39.8792 13.4168 42.6657 15.6107 44.8512C17.8045 47.0367 20.5968 48.5232 23.6348 49.123C26.6728 49.7228 29.8205 49.409 32.6803 48.2212C35.5401 47.0334 37.9839 45.0249 39.7031 42.4493C41.4223 39.8737 42.3398 36.8465 42.3399 33.7498C42.3293 29.5867 40.6667 25.5981 37.7173 22.66C34.7679 19.7218 30.7729 18.0745 26.6099 18.0798ZM26.6099 51.8298C23.0365 51.818 19.5469 50.7475 16.5815 48.7537C13.6162 46.7598 11.3082 43.932 9.94895 40.6273C8.58971 37.3226 8.24022 33.6892 8.9446 30.186C9.64898 26.6827 11.3757 23.4668 13.9066 20.9443C16.4375 18.4217 19.6591 16.7057 23.1646 16.013C26.6702 15.3202 30.3024 15.6817 33.6026 17.0519C36.9027 18.4221 39.7229 20.7395 41.7069 23.7114C43.691 26.6833 44.7498 30.1765 44.7499 33.7498C44.7366 38.5513 42.8193 43.1514 39.4185 46.5409C36.0177 49.9304 31.4113 51.8325 26.6099 51.8298Z" fill="#D2DF64"/>
<path d="M19.3598 42.1902H19.1598C18.9708 42.1593 18.7918 42.0844 18.6372 41.9714C18.4826 41.8585 18.3567 41.7108 18.2698 41.5402L15.8498 36.7002C15.7072 36.4137 15.684 36.0823 15.7852 35.7787C15.8864 35.4751 16.1038 35.2239 16.3898 35.0802C16.6782 34.9399 17.0101 34.9178 17.3146 35.0187C17.6191 35.1196 17.8721 35.3354 18.0198 35.6202L19.6798 39.0002L32.9998 25.6602C33.2291 25.4384 33.5357 25.3145 33.8548 25.3145C34.1738 25.3145 34.4804 25.4384 34.7098 25.6602C34.8231 25.7719 34.9132 25.905 34.9746 26.0518C35.0361 26.1985 35.0678 26.3561 35.0678 26.5152C35.0678 26.6743 35.0361 26.8319 34.9746 26.9787C34.9132 27.1255 34.8231 27.2586 34.7098 27.3702L20.2098 41.8402C20.098 41.9516 19.9655 42.0398 19.8196 42.0998C19.6738 42.1599 19.5175 42.1906 19.3598 42.1902Z" fill="#F1F1F1"/>
<path d="M82.6378 43.6393C80.0938 43.6393 77.7898 43.0873 75.7258 41.9833C73.6858 40.8553 72.0778 39.3073 70.9018 37.3393C69.7498 35.3713 69.1738 33.1513 69.1738 30.6793C69.1738 28.2073 69.7618 25.9873 70.9378 24.0193C72.1138 22.0513 73.7218 20.5153 75.7618 19.4113C77.8258 18.2833 80.1298 17.7193 82.6738 17.7193C84.7378 17.7193 86.6218 18.0793 88.3258 18.7993C90.0298 19.5193 91.4698 20.5633 92.6458 21.9313L89.6218 24.7753C87.7978 22.8073 85.5538 21.8233 82.8898 21.8233C81.1618 21.8233 79.6138 22.2073 78.2458 22.9753C76.8778 23.7193 75.8098 24.7633 75.0418 26.1073C74.2738 27.4513 73.8898 28.9753 73.8898 30.6793C73.8898 32.3833 74.2738 33.9073 75.0418 35.2513C75.8098 36.5953 76.8778 37.6513 78.2458 38.4193C79.6138 39.1633 81.1618 39.5353 82.8898 39.5353C85.5538 39.5353 87.7978 38.5393 89.6218 36.5473L92.6458 39.4273C91.4698 40.7953 90.0178 41.8393 88.2898 42.5593C86.5858 43.2793 84.7018 43.6393 82.6378 43.6393ZM116.03 39.3553V43.2793H97.1301V18.0793H115.526V22.0033H101.81V28.5553H113.978V32.4073H101.81V39.3553H116.03ZM137.735 43.2793L132.587 35.8993C132.371 35.9233 132.047 35.9353 131.615 35.9353H125.927V43.2793H121.247V18.0793H131.615C133.799 18.0793 135.695 18.4393 137.303 19.1593C138.935 19.8793 140.183 20.9113 141.047 22.2553C141.911 23.5993 142.343 25.1953 142.343 27.0433C142.343 28.9393 141.875 30.5713 140.939 31.9393C140.027 33.3073 138.707 34.3273 136.979 34.9993L142.775 43.2793H137.735ZM137.627 27.0433C137.627 25.4353 137.099 24.1993 136.043 23.3353C134.987 22.4713 133.439 22.0393 131.399 22.0393H125.927V32.0833H131.399C133.439 32.0833 134.987 31.6513 136.043 30.7873C137.099 29.8993 137.627 28.6513 137.627 27.0433ZM152.34 22.0393H143.988V18.0793H165.372V22.0393H157.02V43.2793H152.34V22.0393ZM168.884 18.0793H173.564V43.2793H168.884V18.0793Z" fill="#F1F1F1"/>
<path d="M188.57 43.4233C186.746 43.4233 185.006 43.0993 183.35 42.4513C181.718 41.8033 180.458 40.9633 179.57 39.9313L180.218 39.0673C181.058 40.0273 182.222 40.8193 183.71 41.4433C185.222 42.0433 186.83 42.3433 188.534 42.3433C191.054 42.3433 192.95 41.8513 194.222 40.8673C195.518 39.8593 196.166 38.5753 196.166 37.0153C196.166 35.8153 195.83 34.8553 195.158 34.1353C194.486 33.3913 193.658 32.8393 192.674 32.4793C191.69 32.0953 190.346 31.6993 188.642 31.2913C186.818 30.8353 185.354 30.3913 184.25 29.9593C183.146 29.5273 182.21 28.8673 181.442 27.9793C180.674 27.0913 180.29 25.9033 180.29 24.4153C180.29 23.2393 180.602 22.1593 181.226 21.1753C181.85 20.1913 182.798 19.4113 184.07 18.8353C185.366 18.2353 186.974 17.9353 188.894 17.9353C190.262 17.9353 191.606 18.1393 192.926 18.5473C194.27 18.9553 195.41 19.5193 196.346 20.2393L195.806 21.2113C194.822 20.4913 193.718 19.9513 192.494 19.5913C191.294 19.2073 190.106 19.0153 188.93 19.0153C186.482 19.0153 184.622 19.5313 183.35 20.5633C182.102 21.5713 181.478 22.8553 181.478 24.4153C181.478 25.6393 181.814 26.6233 182.486 27.3673C183.182 28.0873 184.022 28.6393 185.006 29.0233C186.014 29.4073 187.358 29.8033 189.038 30.2113C190.862 30.6673 192.326 31.1113 193.43 31.5433C194.534 31.9513 195.458 32.5993 196.202 33.4873C196.97 34.3513 197.354 35.5153 197.354 36.9793C197.354 38.1553 197.03 39.2353 196.382 40.2193C195.758 41.2033 194.786 41.9833 193.466 42.5593C192.146 43.1353 190.514 43.4233 188.57 43.4233ZM213.608 43.4233C210.488 43.4233 208.052 42.5113 206.3 40.6873C204.572 38.8633 203.708 36.1873 203.708 32.6593V18.0793H204.932V32.6233C204.932 35.8393 205.676 38.2633 207.164 39.8953C208.652 41.5033 210.8 42.3073 213.608 42.3073C216.392 42.3073 218.528 41.5033 220.016 39.8953C221.528 38.2633 222.284 35.8393 222.284 32.6233V18.0793H223.472V32.6593C223.472 36.1873 222.608 38.8633 220.88 40.6873C219.152 42.5113 216.728 43.4233 213.608 43.4233ZM250.183 43.2793L243.955 34.6033C243.139 34.7473 242.227 34.8193 241.219 34.8193H233.695V43.2793H232.471V18.0793H241.219C244.363 18.0793 246.811 18.8233 248.563 20.3113C250.339 21.7753 251.227 23.8153 251.227 26.4313C251.227 28.4473 250.699 30.1393 249.643 31.5073C248.611 32.8513 247.123 33.7873 245.179 34.3153L251.623 43.2793H250.183ZM241.291 33.7033C244.099 33.7033 246.259 33.0793 247.771 31.8313C249.283 30.5593 250.039 28.7593 250.039 26.4313C250.039 24.1273 249.283 22.3513 247.771 21.1033C246.259 19.8313 244.099 19.1953 241.291 19.1953H233.695V33.7033H241.291ZM275.339 42.1633V43.2793H258.311V18.0793H274.835V19.1953H259.535V29.9233H273.215V31.0393H259.535V42.1633H275.339ZM282.358 18.0793H292.078C294.694 18.0793 297.01 18.6193 299.026 19.6993C301.066 20.7793 302.638 22.2793 303.742 24.1993C304.87 26.0953 305.434 28.2553 305.434 30.6793C305.434 33.1033 304.87 35.2753 303.742 37.1953C302.638 39.0913 301.066 40.5793 299.026 41.6593C297.01 42.7393 294.694 43.2793 292.078 43.2793H282.358V18.0793ZM292.006 42.1633C294.454 42.1633 296.59 41.6713 298.414 40.6873C300.262 39.7033 301.69 38.3473 302.698 36.6193C303.706 34.8673 304.21 32.8873 304.21 30.6793C304.21 28.4713 303.706 26.5033 302.698 24.7753C301.69 23.0233 300.262 21.6553 298.414 20.6713C296.59 19.6873 294.454 19.1953 292.006 19.1953H283.582V42.1633H292.006Z" fill="#F1F1F1"/>
</svg>
