<svg xmlns="http://www.w3.org/2000/svg" width="218.301" height="47.495" viewBox="0 0 218.301 47.495">
  <g id="mod_logo" data-name="mod logo" transform="translate(-3131 -2507.42)">
    <g id="surface1" transform="translate(3130 2492)">
      <g id="Group_4" data-name="Group 4">
        <g id="Group_3" data-name="Group 3" transform="translate(45.419 45.152)">
          <path id="Path_2" data-name="Path 2" d="M10.844.266a10.21,10.21,0,0,1-4.969-1.2A9.021,9.021,0,0,1,2.391-4.281a9.25,9.25,0,0,1-1.25-4.8,9.2,9.2,0,0,1,1.266-4.8,9.05,9.05,0,0,1,3.5-3.328,10.133,10.133,0,0,1,4.969-1.219,10.345,10.345,0,0,1,4.063.781,8.319,8.319,0,0,1,3.109,2.266l-2.172,2.047a6.357,6.357,0,0,0-4.844-2.125,6.905,6.905,0,0,0-3.359.813,5.849,5.849,0,0,0-2.3,2.266,6.52,6.52,0,0,0-.828,3.3,6.51,6.51,0,0,0,.828,3.3,5.824,5.824,0,0,0,2.3,2.266,6.863,6.863,0,0,0,3.359.813,6.318,6.318,0,0,0,4.844-2.141l2.172,2.063A8.2,8.2,0,0,1,14.922-.516,10.383,10.383,0,0,1,10.844.266Zm0,0" fill="#002f54"/>
        </g>
      </g>
      <g id="Group_6" data-name="Group 6">
        <g id="Group_5" data-name="Group 5" transform="translate(64.272 45.152)">
          <path id="Path_3" data-name="Path 3" d="M16.063-2.828V0H2.438V-18.156h13.25v2.828H5.813v4.719h8.766v2.781H5.813v5Zm0,0" fill="#002f54"/>
        </g>
      </g>
      <g id="Group_8" data-name="Group 8">
        <g id="Group_7" data-name="Group 7" transform="translate(81.647 45.152)">
          <path id="Path_4" data-name="Path 4" d="M14.313,0l-3.7-5.312c-.156.012-.391.016-.7.016H5.813V0H2.438V-18.156H9.906a10.043,10.043,0,0,1,4.109.781A6.05,6.05,0,0,1,16.7-15.141a6.207,6.207,0,0,1,.938,3.438,6.18,6.18,0,0,1-1,3.531,5.867,5.867,0,0,1-2.875,2.2L17.953,0Zm-.078-11.7a3.228,3.228,0,0,0-1.141-2.656A5.162,5.162,0,0,0,9.75-15.3H5.813v7.234H9.75A5.162,5.162,0,0,0,13.094-9,3.329,3.329,0,0,0,14.234-11.7Zm0,0" fill="#002f54"/>
        </g>
      </g>
      <g id="Group_10" data-name="Group 10">
        <g id="Group_9" data-name="Group 9" transform="translate(100.604 45.152)">
          <path id="Path_5" data-name="Path 5" d="M6.125-15.3H.109v-2.859H15.516V-15.3H9.5V0H6.125Zm0,0" fill="#002f54"/>
        </g>
      </g>
      <g id="Group_12" data-name="Group 12">
        <g id="Group_11" data-name="Group 11" transform="translate(116.216 45.152)">
          <path id="Path_6" data-name="Path 6" d="M2.438-18.156H5.813V0H2.438Zm0,0" fill="#002f54"/>
        </g>
      </g>
      <g id="Group_14" data-name="Group 14">
        <g id="Group_13" data-name="Group 13" transform="translate(127.177 45.152)">
          <path id="Path_7" data-name="Path 7" d="M7.906.109a10.121,10.121,0,0,1-3.75-.7A6.919,6.919,0,0,1,1.422-2.406l.469-.625a6.643,6.643,0,0,0,2.531,1.7,9.165,9.165,0,0,0,3.469.656A6.63,6.63,0,0,0,12-1.75a3.353,3.353,0,0,0,1.391-2.766,2.923,2.923,0,0,0-.734-2.078,4.559,4.559,0,0,0-1.8-1.2,24.878,24.878,0,0,0-2.891-.844A24.643,24.643,0,0,1,4.8-9.594a5.089,5.089,0,0,1-2.016-1.422,3.815,3.815,0,0,1-.828-2.578,4.266,4.266,0,0,1,.672-2.328,4.67,4.67,0,0,1,2.047-1.7,8.3,8.3,0,0,1,3.469-.641,9.724,9.724,0,0,1,2.922.453,7.715,7.715,0,0,1,2.453,1.219l-.391.688a8.318,8.318,0,0,0-2.375-1.172,8.73,8.73,0,0,0-2.578-.406,6.275,6.275,0,0,0-4.016,1.109A3.42,3.42,0,0,0,2.8-13.594a3,3,0,0,0,.734,2.125,5.009,5.009,0,0,0,1.828,1.2,24.273,24.273,0,0,0,2.891.844,30.706,30.706,0,0,1,3.156.953,4.911,4.911,0,0,1,2.016,1.406,3.724,3.724,0,0,1,.813,2.516A4.23,4.23,0,0,1,13.547-2.2,4.64,4.64,0,0,1,11.438-.516,8.766,8.766,0,0,1,7.906.109Zm0,0" fill="#002f54"/>
        </g>
      </g>
      <g id="Group_16" data-name="Group 16">
        <g id="Group_15" data-name="Group 15" transform="translate(142.84 45.152)">
          <path id="Path_8" data-name="Path 8" d="M10.3.109a6.9,6.9,0,0,1-5.25-1.969,8.129,8.129,0,0,1-1.875-5.8v-10.5h.875V-7.672A7.462,7.462,0,0,0,5.656-2.453,5.978,5.978,0,0,0,10.3-.7a5.97,5.97,0,0,0,4.625-1.75,7.427,7.427,0,0,0,1.625-5.219V-18.156h.859v10.5a8.129,8.129,0,0,1-1.875,5.8A6.856,6.856,0,0,1,10.3.109Zm0,0" fill="#002f54"/>
        </g>
      </g>
      <g id="Group_18" data-name="Group 18">
        <g id="Group_17" data-name="Group 17" transform="translate(163.405 45.152)">
          <path id="Path_9" data-name="Path 9" d="M16.078,0,11.594-6.25a11.177,11.177,0,0,1-1.969.156H4.2V0H3.313V-18.156H9.625a8.028,8.028,0,0,1,5.3,1.594,5.458,5.458,0,0,1,1.906,4.422A5.826,5.826,0,0,1,15.7-8.484a5.9,5.9,0,0,1-3.234,2.031L17.125,0ZM9.672-6.906a7.14,7.14,0,0,0,4.672-1.359,4.745,4.745,0,0,0,1.641-3.875,4.712,4.712,0,0,0-1.641-3.844,7.1,7.1,0,0,0-4.672-1.375H4.2V-6.906Zm0,0" fill="#002f54"/>
        </g>
      </g>
      <g id="Group_20" data-name="Group 20">
        <g id="Group_19" data-name="Group 19" transform="translate(182.025 45.152)">
          <path id="Path_10" data-name="Path 10" d="M15.594-.8V0H3.313V-18.156H15.219v.8H4.2v7.734h9.859v.813H4.2V-.8Zm0,0" fill="#002f54"/>
        </g>
      </g>
      <g id="Group_22" data-name="Group 22">
        <g id="Group_21" data-name="Group 21" transform="translate(199.348 45.152)">
          <path id="Path_11" data-name="Path 11" d="M3.313-18.156h7.016a10.472,10.472,0,0,1,5.016,1.172,8.394,8.394,0,0,1,3.391,3.219,9.038,9.038,0,0,1,1.219,4.687,9.038,9.038,0,0,1-1.219,4.688,8.483,8.483,0,0,1-3.391,3.234A10.556,10.556,0,0,1,10.328,0H3.313ZM10.266-.8a9.666,9.666,0,0,0,4.641-1.063,7.691,7.691,0,0,0,3.063-2.953,8.334,8.334,0,0,0,1.094-4.266,8.334,8.334,0,0,0-1.094-4.266,7.6,7.6,0,0,0-3.062-2.937,9.581,9.581,0,0,0-4.641-1.078H4.2V-.8Zm0,0" fill="#002f54"/>
        </g>
      </g>
      <g id="Group_24" data-name="Group 24">
        <g id="Group_23" data-name="Group 23" transform="translate(47.767 56.088)">
          <path id="Path_12" data-name="Path 12" d="M4.609-.484V0H.859V-5.312H4.5v.5H1.422v1.875h2.75v.484H1.422V-.484Zm0,0" fill="#002f54"/>
        </g>
      </g>
      <g id="Group_26" data-name="Group 26">
        <g id="Group_25" data-name="Group 25" transform="translate(52.84 56.088)">
          <path id="Path_13" data-name="Path 13" d="M4.391-5.625V0H3.875V-.781a1.754,1.754,0,0,1-.656.609,1.894,1.894,0,0,1-.891.2,2.049,2.049,0,0,1-1.016-.25A1.923,1.923,0,0,1,.594-.937,2.2,2.2,0,0,1,.344-2a2.182,2.182,0,0,1,.25-1.047,1.817,1.817,0,0,1,.719-.719,2.092,2.092,0,0,1,1.016-.25,1.912,1.912,0,0,1,.875.2,1.747,1.747,0,0,1,.641.578V-5.625ZM2.375-.437a1.485,1.485,0,0,0,.75-.187,1.4,1.4,0,0,0,.531-.547A1.678,1.678,0,0,0,3.859-2a1.569,1.569,0,0,0-.2-.8,1.3,1.3,0,0,0-.531-.547,1.419,1.419,0,0,0-.75-.2,1.5,1.5,0,0,0-.766.2,1.4,1.4,0,0,0-.531.547A1.645,1.645,0,0,0,.891-2a1.761,1.761,0,0,0,.188.828,1.518,1.518,0,0,0,.531.547A1.565,1.565,0,0,0,2.375-.437Zm0,0" fill="#002f54"/>
        </g>
      </g>
      <g id="Group_28" data-name="Group 28">
        <g id="Group_27" data-name="Group 27" transform="translate(57.981 56.088)">
          <path id="Path_14" data-name="Path 14" d="M.453-2.281H2.438v.469H.453Zm0,0" fill="#002f54"/>
        </g>
      </g>
      <g id="Group_30" data-name="Group 30">
        <g id="Group_29" data-name="Group 29" transform="translate(60.878 56.088)">
          <path id="Path_15" data-name="Path 15" d="M1.891-4.812H.031v-.5H4.313v.5H2.453V0H1.891Zm0,0" fill="#002f54"/>
        </g>
      </g>
      <g id="Group_32" data-name="Group 32">
        <g id="Group_31" data-name="Group 31" transform="translate(65.23 56.088)">
          <path id="Path_16" data-name="Path 16" d="M4.219-1.828H.891A1.472,1.472,0,0,0,1.359-.812a1.617,1.617,0,0,0,1.094.375,1.794,1.794,0,0,0,.688-.125,1.455,1.455,0,0,0,.531-.406l.313.359a1.76,1.76,0,0,1-.672.484,2.326,2.326,0,0,1-.875.156,2.326,2.326,0,0,1-1.094-.25A1.91,1.91,0,0,1,.609-.937,2.084,2.084,0,0,1,.344-2a2.1,2.1,0,0,1,.25-1.031,1.857,1.857,0,0,1,.7-.719,1.944,1.944,0,0,1,1-.266,1.878,1.878,0,0,1,.984.266,1.756,1.756,0,0,1,.7.719A2.142,2.142,0,0,1,4.234-2ZM2.3-3.547a1.338,1.338,0,0,0-.969.375,1.379,1.379,0,0,0-.438.938H3.719a1.466,1.466,0,0,0-.453-.937A1.351,1.351,0,0,0,2.3-3.547Zm0,0" fill="#002f54"/>
        </g>
      </g>
      <g id="Group_34" data-name="Group 34">
        <g id="Group_33" data-name="Group 33" transform="translate(69.81 56.088)">
          <path id="Path_17" data-name="Path 17" d="M2.406.031a2.2,2.2,0,0,1-1.062-.25A1.91,1.91,0,0,1,.609-.937,2.084,2.084,0,0,1,.344-2,1.989,1.989,0,0,1,.609-3.031a1.807,1.807,0,0,1,.734-.719,2.124,2.124,0,0,1,1.063-.266,2.076,2.076,0,0,1,.922.2,1.581,1.581,0,0,1,.641.578l-.406.281a1.3,1.3,0,0,0-.5-.437,1.426,1.426,0,0,0-.656-.156,1.521,1.521,0,0,0-.781.2,1.365,1.365,0,0,0-.547.547A1.645,1.645,0,0,0,.891-2a1.761,1.761,0,0,0,.188.828,1.47,1.47,0,0,0,.547.547,1.594,1.594,0,0,0,.781.188,1.522,1.522,0,0,0,.656-.141,1.444,1.444,0,0,0,.5-.438l.406.266a1.488,1.488,0,0,1-.656.594A2.15,2.15,0,0,1,2.406.031Zm0,0" fill="#002f54"/>
        </g>
      </g>
      <g id="Group_36" data-name="Group 36">
        <g id="Group_35" data-name="Group 35" transform="translate(74.079 56.088)">
          <path id="Path_18" data-name="Path 18" d="M2.781-4.016a1.617,1.617,0,0,1,1.188.437,1.688,1.688,0,0,1,.453,1.266V0H3.875V-2.266A1.312,1.312,0,0,0,3.563-3.2a1.126,1.126,0,0,0-.875-.328,1.372,1.372,0,0,0-1.031.391,1.419,1.419,0,0,0-.375,1.047V0H.75V-5.625h.531v2.344a1.549,1.549,0,0,1,.609-.547A2.017,2.017,0,0,1,2.781-4.016Zm0,0" fill="#002f54"/>
        </g>
      </g>
      <g id="Group_38" data-name="Group 38">
        <g id="Group_37" data-name="Group 37" transform="translate(79.213 56.088)">
          <path id="Path_19" data-name="Path 19" fill="#002f54"/>
        </g>
      </g>
      <g id="Group_40" data-name="Group 40">
        <g id="Group_39" data-name="Group 39" transform="translate(81.199 56.088)">
          <path id="Path_20" data-name="Path 20" d="M2.8-4.016a2.1,2.1,0,0,1,1.016.25,1.723,1.723,0,0,1,.719.719A2.106,2.106,0,0,1,4.8-2,2.162,2.162,0,0,1,4.531-.922a1.741,1.741,0,0,1-.7.7A2.1,2.1,0,0,1,2.8.031a1.984,1.984,0,0,1-.875-.187A1.61,1.61,0,0,1,1.281-.75V1.469H.75V-3.984h.516V-3.2A1.668,1.668,0,0,1,1.906-3.8,1.791,1.791,0,0,1,2.8-4.016ZM2.766-.437a1.485,1.485,0,0,0,.75-.187,1.4,1.4,0,0,0,.531-.547A1.678,1.678,0,0,0,4.25-2a1.569,1.569,0,0,0-.2-.8,1.3,1.3,0,0,0-.531-.547,1.419,1.419,0,0,0-.75-.2,1.5,1.5,0,0,0-.766.2,1.4,1.4,0,0,0-.531.547,1.645,1.645,0,0,0-.187.8,1.761,1.761,0,0,0,.188.828A1.518,1.518,0,0,0,2-.625,1.565,1.565,0,0,0,2.766-.437Zm0,0" fill="#002f54"/>
        </g>
      </g>
      <g id="Group_42" data-name="Group 42">
        <g id="Group_41" data-name="Group 41" transform="translate(86.34 56.088)">
          <path id="Path_21" data-name="Path 21" d="M.75-5.625h.531V0H.75Zm0,0" fill="#002f54"/>
        </g>
      </g>
      <g id="Group_44" data-name="Group 44">
        <g id="Group_43" data-name="Group 43" transform="translate(88.38 56.088)">
          <path id="Path_22" data-name="Path 22" d="M2.141-4.016a1.721,1.721,0,0,1,1.2.391,1.505,1.505,0,0,1,.422,1.156V0H3.25V-.625A1.228,1.228,0,0,1,2.7-.141a1.812,1.812,0,0,1-.828.172A1.632,1.632,0,0,1,.813-.281a1.017,1.017,0,0,1-.391-.844,1.023,1.023,0,0,1,.359-.812A1.819,1.819,0,0,1,1.953-2.25H3.219V-2.5a1.007,1.007,0,0,0-.3-.781,1.172,1.172,0,0,0-.828-.266,2.249,2.249,0,0,0-.734.125,1.882,1.882,0,0,0-.594.344l-.25-.406a2.4,2.4,0,0,1,.734-.391A2.8,2.8,0,0,1,2.141-4.016ZM1.953-.391a1.446,1.446,0,0,0,.781-.2A1.178,1.178,0,0,0,3.219-1.2v-.641H1.969c-.68,0-1.016.234-1.016.7a.655.655,0,0,0,.266.563A1.253,1.253,0,0,0,1.953-.391Zm0,0" fill="#002f54"/>
        </g>
      </g>
      <g id="Group_46" data-name="Group 46">
        <g id="Group_45" data-name="Group 45" transform="translate(92.854 56.088)">
          <path id="Path_23" data-name="Path 23" d="M2.844-.25a.926.926,0,0,1-.375.219,1.761,1.761,0,0,1-.453.063,1.212,1.212,0,0,1-.875-.3,1.154,1.154,0,0,1-.3-.859V-3.531H.125v-.453H.844v-.875h.531v.875H2.594v.453H1.375v2.375a.766.766,0,0,0,.172.547.7.7,0,0,0,.516.188,1.149,1.149,0,0,0,.328-.047.935.935,0,0,0,.266-.156Zm0,0" fill="#002f54"/>
        </g>
      </g>
      <g id="Group_48" data-name="Group 48">
        <g id="Group_47" data-name="Group 47" transform="translate(95.932 56.088)">
          <path id="Path_24" data-name="Path 24" d="M2.063-5.2a.716.716,0,0,0-.531.188.8.8,0,0,0-.172.563v.469H2.594v.453H1.375V0H.844V-3.531H.125v-.453H.844v-.5a1.157,1.157,0,0,1,.313-.859,1.206,1.206,0,0,1,.891-.312,1.578,1.578,0,0,1,.438.063.951.951,0,0,1,.359.188l-.187.391A.923.923,0,0,0,2.063-5.2Zm0,0" fill="#002f54"/>
        </g>
      </g>
      <g id="Group_50" data-name="Group 50">
        <g id="Group_49" data-name="Group 49" transform="translate(98.503 56.088)">
          <path id="Path_25" data-name="Path 25" d="M2.375.031a2.171,2.171,0,0,1-1.047-.25A1.923,1.923,0,0,1,.609-.937,2.084,2.084,0,0,1,.344-2,1.989,1.989,0,0,1,.609-3.031a1.817,1.817,0,0,1,.719-.719,2.1,2.1,0,0,1,1.047-.266,2.027,2.027,0,0,1,1.031.266,1.831,1.831,0,0,1,.734.719A2.027,2.027,0,0,1,4.406-2,2.124,2.124,0,0,1,4.141-.937a1.937,1.937,0,0,1-.734.719A2.1,2.1,0,0,1,2.375.031Zm0-.469a1.576,1.576,0,0,0,.766-.187,1.4,1.4,0,0,0,.531-.547A1.761,1.761,0,0,0,3.859-2a1.645,1.645,0,0,0-.187-.8,1.3,1.3,0,0,0-.531-.547,1.505,1.505,0,0,0-.766-.2,1.5,1.5,0,0,0-.766.2,1.4,1.4,0,0,0-.531.547A1.645,1.645,0,0,0,.891-2a1.761,1.761,0,0,0,.188.828,1.518,1.518,0,0,0,.531.547A1.565,1.565,0,0,0,2.375-.437Zm0,0" fill="#002f54"/>
        </g>
      </g>
      <g id="Group_52" data-name="Group 52">
        <g id="Group_51" data-name="Group 51" transform="translate(103.257 56.088)">
          <path id="Path_26" data-name="Path 26" d="M1.266-3.2a1.294,1.294,0,0,1,.563-.609,1.982,1.982,0,0,1,.938-.2V-3.5H2.625a1.277,1.277,0,0,0-.984.391,1.486,1.486,0,0,0-.359,1.078V0H.75V-3.984h.516Zm0,0" fill="#002f54"/>
        </g>
      </g>
      <g id="Group_54" data-name="Group 54">
        <g id="Group_53" data-name="Group 53" transform="translate(106.298 56.088)">
          <path id="Path_27" data-name="Path 27" d="M5.719-4.016a1.562,1.562,0,0,1,1.172.437,1.692,1.692,0,0,1,.438,1.266V0H6.8V-2.266A1.312,1.312,0,0,0,6.484-3.2a1.083,1.083,0,0,0-.844-.328,1.259,1.259,0,0,0-.969.391,1.444,1.444,0,0,0-.359,1.047V0H3.781V-2.266A1.312,1.312,0,0,0,3.469-3.2a1.083,1.083,0,0,0-.844-.328,1.312,1.312,0,0,0-.984.391,1.444,1.444,0,0,0-.359,1.047V0H.75V-3.984h.516v.719a1.432,1.432,0,0,1,.594-.547,1.832,1.832,0,0,1,.875-.2,1.643,1.643,0,0,1,.859.219,1.214,1.214,0,0,1,.547.625,1.54,1.54,0,0,1,.625-.609A1.926,1.926,0,0,1,5.719-4.016Zm0,0" fill="#002f54"/>
        </g>
      </g>
      <g id="Group_56" data-name="Group 56">
        <g id="Group_55" data-name="Group 55" transform="translate(114.343 56.088)">
          <path id="Path_28" data-name="Path 28" fill="#002f54"/>
        </g>
      </g>
      <g id="Group_58" data-name="Group 58">
        <g id="Group_57" data-name="Group 57" transform="translate(116.33 56.088)">
          <path id="Path_29" data-name="Path 29" d="M2.375.031a2.171,2.171,0,0,1-1.047-.25A1.923,1.923,0,0,1,.609-.937,2.084,2.084,0,0,1,.344-2,1.989,1.989,0,0,1,.609-3.031a1.817,1.817,0,0,1,.719-.719,2.1,2.1,0,0,1,1.047-.266,2.027,2.027,0,0,1,1.031.266,1.831,1.831,0,0,1,.734.719A2.027,2.027,0,0,1,4.406-2,2.124,2.124,0,0,1,4.141-.937a1.937,1.937,0,0,1-.734.719A2.1,2.1,0,0,1,2.375.031Zm0-.469a1.576,1.576,0,0,0,.766-.187,1.4,1.4,0,0,0,.531-.547A1.761,1.761,0,0,0,3.859-2a1.645,1.645,0,0,0-.187-.8,1.3,1.3,0,0,0-.531-.547,1.505,1.505,0,0,0-.766-.2,1.5,1.5,0,0,0-.766.2,1.4,1.4,0,0,0-.531.547A1.645,1.645,0,0,0,.891-2a1.761,1.761,0,0,0,.188.828,1.518,1.518,0,0,0,.531.547A1.565,1.565,0,0,0,2.375-.437Zm0,0" fill="#002f54"/>
        </g>
      </g>
      <g id="Group_60" data-name="Group 60">
        <g id="Group_59" data-name="Group 59" transform="translate(121.084 56.088)">
          <path id="Path_30" data-name="Path 30" d="M2.063-5.2a.716.716,0,0,0-.531.188.8.8,0,0,0-.172.563v.469H2.594v.453H1.375V0H.844V-3.531H.125v-.453H.844v-.5a1.157,1.157,0,0,1,.313-.859,1.206,1.206,0,0,1,.891-.312,1.578,1.578,0,0,1,.438.063.951.951,0,0,1,.359.188l-.187.391A.923.923,0,0,0,2.063-5.2Zm0,0" fill="#002f54"/>
        </g>
      </g>
      <g id="Group_62" data-name="Group 62">
        <g id="Group_61" data-name="Group 61" transform="translate(123.655 56.088)">
          <path id="Path_31" data-name="Path 31" fill="#002f54"/>
        </g>
      </g>
      <g id="Group_64" data-name="Group 64">
        <g id="Group_63" data-name="Group 63" transform="translate(125.641 56.088)">
          <path id="Path_32" data-name="Path 32" d="M4.188-1.422H1.234L.594,0H.016L2.438-5.312H3L5.422,0H4.828Zm-.2-.453L2.719-4.719,1.438-1.875Zm0,0" fill="#002f54"/>
        </g>
      </g>
      <g id="Group_66" data-name="Group 66">
        <g id="Group_65" data-name="Group 65" transform="translate(131.078 56.088)">
          <path id="Path_33" data-name="Path 33" d="M2.781-4.016a1.617,1.617,0,0,1,1.188.437,1.688,1.688,0,0,1,.453,1.266V0H3.875V-2.266A1.312,1.312,0,0,0,3.563-3.2a1.126,1.126,0,0,0-.875-.328,1.372,1.372,0,0,0-1.031.391,1.419,1.419,0,0,0-.375,1.047V0H.75V-3.984h.516v.734a1.516,1.516,0,0,1,.609-.562A1.962,1.962,0,0,1,2.781-4.016Zm0,0" fill="#002f54"/>
        </g>
      </g>
      <g id="Group_68" data-name="Group 68">
        <g id="Group_67" data-name="Group 67" transform="translate(136.211 56.088)">
          <path id="Path_34" data-name="Path 34" d="M2.141-4.016a1.721,1.721,0,0,1,1.2.391,1.505,1.505,0,0,1,.422,1.156V0H3.25V-.625A1.228,1.228,0,0,1,2.7-.141a1.812,1.812,0,0,1-.828.172A1.632,1.632,0,0,1,.813-.281a1.017,1.017,0,0,1-.391-.844,1.023,1.023,0,0,1,.359-.812A1.819,1.819,0,0,1,1.953-2.25H3.219V-2.5a1.007,1.007,0,0,0-.3-.781,1.172,1.172,0,0,0-.828-.266,2.249,2.249,0,0,0-.734.125,1.882,1.882,0,0,0-.594.344l-.25-.406a2.4,2.4,0,0,1,.734-.391A2.8,2.8,0,0,1,2.141-4.016ZM1.953-.391a1.446,1.446,0,0,0,.781-.2A1.178,1.178,0,0,0,3.219-1.2v-.641H1.969c-.68,0-1.016.234-1.016.7a.655.655,0,0,0,.266.563A1.253,1.253,0,0,0,1.953-.391Zm0,0" fill="#002f54"/>
        </g>
      </g>
      <g id="Group_70" data-name="Group 70">
        <g id="Group_69" data-name="Group 69" transform="translate(140.685 56.088)">
          <path id="Path_35" data-name="Path 35" d="M.75-5.625h.531V0H.75Zm0,0" fill="#002f54"/>
        </g>
      </g>
      <g id="Group_72" data-name="Group 72">
        <g id="Group_71" data-name="Group 71" transform="translate(142.725 56.088)">
          <path id="Path_36" data-name="Path 36" d="M2.375.031a2.171,2.171,0,0,1-1.047-.25A1.923,1.923,0,0,1,.609-.937,2.084,2.084,0,0,1,.344-2,1.989,1.989,0,0,1,.609-3.031a1.817,1.817,0,0,1,.719-.719,2.1,2.1,0,0,1,1.047-.266,2.027,2.027,0,0,1,1.031.266,1.831,1.831,0,0,1,.734.719A2.027,2.027,0,0,1,4.406-2,2.124,2.124,0,0,1,4.141-.937a1.937,1.937,0,0,1-.734.719A2.1,2.1,0,0,1,2.375.031Zm0-.469a1.576,1.576,0,0,0,.766-.187,1.4,1.4,0,0,0,.531-.547A1.761,1.761,0,0,0,3.859-2a1.645,1.645,0,0,0-.187-.8,1.3,1.3,0,0,0-.531-.547,1.505,1.505,0,0,0-.766-.2,1.5,1.5,0,0,0-.766.2,1.4,1.4,0,0,0-.531.547A1.645,1.645,0,0,0,.891-2a1.761,1.761,0,0,0,.188.828,1.518,1.518,0,0,0,.531.547A1.565,1.565,0,0,0,2.375-.437Zm0,0" fill="#002f54"/>
        </g>
      </g>
      <g id="Group_74" data-name="Group 74">
        <g id="Group_73" data-name="Group 73" transform="translate(147.479 56.088)">
          <path id="Path_37" data-name="Path 37" d="M4.438-3.984v3.5a2.014,2.014,0,0,1-.5,1.5,1.993,1.993,0,0,1-1.484.5,3.275,3.275,0,0,1-1.063-.172,2.08,2.08,0,0,1-.8-.453L.859.484a2.016,2.016,0,0,0,.7.406,2.737,2.737,0,0,0,.875.141A1.521,1.521,0,0,0,3.547.672,1.463,1.463,0,0,0,3.906-.422v-.5a1.673,1.673,0,0,1-.656.578,2.15,2.15,0,0,1-.906.188A2.174,2.174,0,0,1,1.328-.391a1.843,1.843,0,0,1-.719-.688A1.943,1.943,0,0,1,.344-2.094a1.868,1.868,0,0,1,.266-1,1.778,1.778,0,0,1,.719-.672,2.092,2.092,0,0,1,1.016-.25,2.076,2.076,0,0,1,.922.2,1.683,1.683,0,0,1,.656.594v-.766ZM2.406-.625a1.576,1.576,0,0,0,.766-.187,1.317,1.317,0,0,0,.547-.516,1.5,1.5,0,0,0,.2-.766,1.419,1.419,0,0,0-.2-.75,1.35,1.35,0,0,0-.531-.516,1.616,1.616,0,0,0-.781-.187,1.594,1.594,0,0,0-.781.188,1.312,1.312,0,0,0-.547.516,1.485,1.485,0,0,0-.188.75,1.565,1.565,0,0,0,.188.766,1.418,1.418,0,0,0,.547.516A1.594,1.594,0,0,0,2.406-.625Zm0,0" fill="#002f54"/>
        </g>
      </g>
      <g id="Group_76" data-name="Group 76">
        <g id="Group_75" data-name="Group 75" transform="translate(152.681 56.088)">
          <path id="Path_38" data-name="Path 38" d="M.75-3.984h.531V0H.75Zm.266-.875a.405.405,0,0,1-.281-.109A.368.368,0,0,1,.625-5.25.341.341,0,0,1,.734-5.5a.389.389,0,0,1,.281-.125.4.4,0,0,1,.281.109.35.35,0,0,1,.125.266.353.353,0,0,1-.125.281A.38.38,0,0,1,1.016-4.859Zm0,0" fill="#002f54"/>
        </g>
      </g>
      <g id="Group_78" data-name="Group 78">
        <g id="Group_77" data-name="Group 77" transform="translate(154.721 56.088)">
          <path id="Path_39" data-name="Path 39" d="M2.406.031a2.2,2.2,0,0,1-1.062-.25A1.91,1.91,0,0,1,.609-.937,2.084,2.084,0,0,1,.344-2,1.989,1.989,0,0,1,.609-3.031a1.807,1.807,0,0,1,.734-.719,2.124,2.124,0,0,1,1.063-.266,2.076,2.076,0,0,1,.922.2,1.581,1.581,0,0,1,.641.578l-.406.281a1.3,1.3,0,0,0-.5-.437,1.426,1.426,0,0,0-.656-.156,1.521,1.521,0,0,0-.781.2,1.365,1.365,0,0,0-.547.547A1.645,1.645,0,0,0,.891-2a1.761,1.761,0,0,0,.188.828,1.47,1.47,0,0,0,.547.547,1.594,1.594,0,0,0,.781.188,1.522,1.522,0,0,0,.656-.141,1.444,1.444,0,0,0,.5-.438l.406.266a1.488,1.488,0,0,1-.656.594A2.15,2.15,0,0,1,2.406.031Zm0,0" fill="#002f54"/>
        </g>
      </g>
      <g id="Group_80" data-name="Group 80">
        <g id="Group_79" data-name="Group 79" transform="translate(158.99 56.088)">
          <path id="Path_40" data-name="Path 40" d="M2.141-4.016a1.721,1.721,0,0,1,1.2.391,1.505,1.505,0,0,1,.422,1.156V0H3.25V-.625A1.228,1.228,0,0,1,2.7-.141a1.812,1.812,0,0,1-.828.172A1.632,1.632,0,0,1,.813-.281a1.017,1.017,0,0,1-.391-.844,1.023,1.023,0,0,1,.359-.812A1.819,1.819,0,0,1,1.953-2.25H3.219V-2.5a1.007,1.007,0,0,0-.3-.781,1.172,1.172,0,0,0-.828-.266,2.249,2.249,0,0,0-.734.125,1.882,1.882,0,0,0-.594.344l-.25-.406a2.4,2.4,0,0,1,.734-.391A2.8,2.8,0,0,1,2.141-4.016ZM1.953-.391a1.446,1.446,0,0,0,.781-.2A1.178,1.178,0,0,0,3.219-1.2v-.641H1.969c-.68,0-1.016.234-1.016.7a.655.655,0,0,0,.266.563A1.253,1.253,0,0,0,1.953-.391Zm0,0" fill="#002f54"/>
        </g>
      </g>
    </g>
    <g id="icon" transform="translate(3130.054 2506.51)">
      <path id="Path_41" data-name="Path 41" d="M19.486,48.379a.979.979,0,0,0,.208.025.955.955,0,0,0,.205-.025C27.378,46.519,38.442,38.5,38.442,27.2V10.24a.852.852,0,0,0-.851-.848c-7.062,0-14.13-3.327-17.18-8.091a.856.856,0,0,0-1.437,0C15.922,6.065,8.857,9.392,1.8,9.392a.85.85,0,0,0-.851.848V27.2C.946,38.5,12.011,46.519,19.486,48.379Z" transform="translate(0 0)" fill="#002f54"/>
      <path id="Path_42" data-name="Path 42" d="M69.749,125.413a10.9,10.9,0,1,1,0-21.809" transform="translate(-50.262 -89.202)" fill="none" stroke="#2cde80" stroke-width="3.5"/>
      <path id="Path_43" data-name="Path 43" d="M148.282,125.413a10.9,10.9,0,1,0,0-21.809" transform="translate(-128.38 -89.202)" fill="none" stroke="#dddd3f" stroke-width="3.5"/>
      <path id="Path_44" data-name="Path 44" d="M99.463,110.165l.182.182.182-.182,10.733-10.752a2.106,2.106,0,0,1,2.982,0h0a2.116,2.116,0,0,1,0,2.99l.182.181-.182-.181-12.392,12.415h0l-.006.006-.006.006h0a2.107,2.107,0,0,1-2.983,0l-.446-.447h0l-4.43-4.438-.182.181.182-.181a2.111,2.111,0,0,1,2.983-2.989h0Z" transform="translate(-79.94 -85.32)" fill="#2cde80" stroke="#002f54" stroke-width="1"/>
    </g>
  </g>
</svg>
