<?xml version="1.0" standalone="no"?>
<!DOCTYPE svg PUBLIC "-//W3C//DTD SVG 20010904//EN"
 "http://www.w3.org/TR/2001/REC-SVG-20010904/DTD/svg10.dtd">
<svg version="1.0" xmlns="http://www.w3.org/2000/svg"
 width="371.000000pt" height="371.000000pt" viewBox="0 0 371.000000 371.000000"
 preserveAspectRatio="xMidYMid meet">
<metadata>
Created by potrace 1.14, written by Peter Selinger 2001-2017
</metadata>
<g transform="translate(0.000000,371.000000) scale(0.100000,-0.100000)"
fill="#000000" stroke="none">
<path d="M1823 3699 c-12 -4 -24 -17 -28 -28 -3 -12 -10 -21 -15 -21 -5 0 -12
-9 -15 -20 -11 -36 -197 -213 -290 -276 -117 -80 -311 -173 -455 -219 -63 -20
-126 -38 -140 -40 -14 -2 -63 -11 -109 -20 -83 -15 -159 -23 -279 -29 -106 -5
-97 69 -97 -759 1 -397 4 -751 8 -787 10 -86 55 -265 78 -314 11 -22 19 -44
19 -49 0 -5 20 -49 44 -97 182 -365 531 -696 946 -898 134 -66 319 -132 368
-132 48 0 226 65 368 135 366 181 691 470 876 780 82 137 164 338 181 440 3
17 11 59 17 95 10 48 13 254 14 802 1 654 0 740 -14 758 -17 22 -27 24 -205
35 -54 4 -101 8 -105 10 -3 1 -27 6 -55 9 -158 21 -422 115 -590 210 -32 17
-129 80 -135 86 -3 3 -23 18 -45 35 -81 60 -220 210 -269 292 -5 7 -55 9 -73
2z"/>
</g>
</svg>
