<svg width="43" height="54" viewBox="0 0 43 54" fill="none" xmlns="http://www.w3.org/2000/svg">
<path d="M20.9564 53.6876C21.0306 53.7039 21.1104 53.7149 21.1871 53.7149C21.2641 53.7149 21.3411 53.7039 21.4151 53.6876C29.7185 51.622 42.0047 42.7199 42.0047 30.1726V11.3383C42.0047 10.8191 41.579 10.3961 41.0599 10.3961C33.2179 10.3961 25.3705 6.70175 21.9837 1.41152C21.8106 1.14509 21.5114 0.977539 21.1871 0.977539C20.8658 0.977539 20.5609 1.14509 20.3879 1.41152C16.9984 6.70175 9.15368 10.3961 1.31451 10.3961C0.792627 10.3961 0.369629 10.8191 0.369629 11.3383V30.1726C0.369629 42.7199 12.6558 51.622 20.9564 53.6876Z" fill="#002F54"/>
<path d="M16.3021 31.128L16.5883 31.4146L16.8742 31.128L29.985 17.9933L29.699 17.7078L29.985 17.9933C30.9554 17.0211 32.5296 17.0211 33.5 17.9933L33.5002 17.9934C34.4715 18.9659 34.4715 20.5441 33.5 21.5174L33.7861 21.803L33.5 21.5174L18.362 36.6839L18.3613 36.6843L18.3468 36.6989L18.3464 36.6993C17.376 37.6714 15.8013 37.6714 14.8308 36.6994V36.6993L14.2861 36.1532L14.2859 36.1529L8.87382 30.7311C7.90306 29.7585 7.90306 28.1804 8.87382 27.2076C9.84498 26.2347 11.4191 26.2348 12.3895 27.2076L16.3021 31.128Z" fill="#2CDE80" stroke="#002F54"/>
</svg>
