<svg width="38" height="38" viewBox="0 0 38 38" fill="none" xmlns="http://www.w3.org/2000/svg">
<g clip-path="url(#clip0)">
<path d="M26.9187 10.3395C26.6671 9.92348 26.1692 9.72575 25.7007 9.85635C25.2325 9.98694 24.9084 10.4137 24.9084 10.8997C24.9084 12.2217 23.8329 13.297 22.5111 13.297C21.1894 13.297 20.1139 12.2217 20.1139 10.8997V1.82201C20.1139 1.38397 19.8499 0.989076 19.4451 0.821529C19.0403 0.6537 18.5746 0.746218 18.2649 1.05621C18.1431 1.17778 15.255 4.08304 12.3289 8.47226C10.6032 11.0605 9.22617 13.6278 8.23612 16.103C6.98206 19.2387 6.34601 22.2404 6.34601 25.0252C6.34601 32.0193 12.0364 37.7097 19.0307 37.7097C26.0248 37.7097 31.7152 32.0193 31.7152 25.0252C31.7155 20.548 30.1015 15.6071 26.9187 10.3395ZM26.2581 24.7434C26.2581 25.3417 25.7732 25.8266 25.175 25.8266C24.577 25.8266 24.0918 25.3417 24.0918 24.7434V22.7179L18.6988 28.1113C18.4954 28.3144 18.2201 28.4283 17.9327 28.4283C17.6455 28.4283 17.3699 28.3144 17.1669 28.1113L14.6514 25.5956L12.9562 27.2908C12.5331 27.7139 11.8474 27.7139 11.4243 27.2908C11.0012 26.8677 11.0012 26.182 11.4243 25.7589L13.8856 23.2979C14.3087 22.8751 14.9944 22.8751 15.4175 23.2981L17.9327 25.8136L22.5602 21.186H20.5344C19.9362 21.186 19.4513 20.7012 19.4513 20.1029C19.4513 19.5047 19.9362 19.0198 20.5344 19.0198H25.1752C25.7732 19.0198 26.2584 19.5049 26.2584 20.1029V24.7434H26.2581Z" fill="#191D38"/>
</g>
<defs>
<clipPath id="clip0">
<rect width="36.9708" height="36.9708" fill="white" transform="translate(0.569336 0.73877)"/>
</clipPath>
</defs>
</svg>
