<svg width="30" height="25" viewBox="0 0 30 25" fill="none" xmlns="http://www.w3.org/2000/svg">
<path d="M25.9824 4.66681C27.2908 3.86362 28.1572 2.76732 28.5815 1.37306C27.3865 2.01936 26.1041 2.48899 24.7744 2.76732C23.636 1.54309 22.1948 0.921265 20.4669 0.921265C18.7779 0.921265 17.3513 1.51395 16.187 2.66692C15.6247 3.21443 15.1801 3.87098 14.8805 4.59634C14.5809 5.3217 14.4326 6.1006 14.4446 6.88531C14.4446 7.38569 14.5077 7.83263 14.634 8.21156C9.65293 8.04153 5.53007 5.97524 2.28167 1.99813C1.73109 2.97136 1.4558 3.9624 1.4558 4.98744C1.4558 7.09421 2.34482 8.76375 4.11962 9.9896C3.10753 9.90377 2.21527 9.64792 1.4558 9.22851C1.4558 10.7329 1.89788 11.9895 2.78366 13.0955C3.64411 14.1732 4.85672 14.9134 6.20858 15.1861C5.70334 15.3156 5.17058 15.3772 4.62324 15.3772C4.118 15.3772 3.76013 15.3351 3.548 15.2428C3.92044 16.4686 4.62324 17.4629 5.63857 18.224C6.6423 18.9861 7.86326 19.4077 9.1234 19.4271C6.96643 21.1194 4.50017 21.9566 1.71004 21.9566C1.02668 21.9566 0.542491 21.9468 0.24939 21.895C2.99742 23.6795 6.05636 24.5653 9.44079 24.5653C12.9046 24.5653 15.9651 23.6876 18.629 21.9323C21.2928 20.1866 23.2587 18.0329 24.5218 15.497C25.7708 13.0432 26.4212 10.3286 26.4196 7.57515V6.8173C27.5839 5.95893 28.5918 4.90666 29.3992 3.70654C28.3088 4.17916 27.1594 4.50218 25.9824 4.66681Z" fill="#08A3E6"/>
</svg>
