<svg width="40" height="33" viewBox="0 0 40 33" fill="none" xmlns="http://www.w3.org/2000/svg">
<path d="M35.1026 5.6559C36.8594 4.57749 38.0226 3.10555 38.5922 1.23356C36.9878 2.1013 35.266 2.73186 33.4806 3.10555C31.9522 1.46185 30.0171 0.626953 27.6972 0.626953C25.4295 0.626953 23.5141 1.42271 21.9508 2.97075C21.1959 3.70586 20.599 4.58737 20.1967 5.56128C19.7944 6.53519 19.5953 7.58097 19.6114 8.63457C19.6114 9.3064 19.6962 9.90648 19.8657 10.4152C13.1779 10.187 7.64234 7.41266 3.28088 2.0728C2.54165 3.3795 2.17203 4.71012 2.17203 6.08639C2.17203 8.91504 3.36567 11.1566 5.74861 12.8025C4.38972 12.6873 3.19174 12.3438 2.17203 11.7806C2.17203 13.8005 2.76559 15.4877 3.95488 16.9727C5.11016 18.4197 6.73826 19.4135 8.55334 19.7796C7.87498 19.9535 7.15967 20.0361 6.42478 20.0361C5.74643 20.0361 5.26593 19.9796 4.98111 19.8557C5.48118 21.5015 6.42479 22.8365 7.78801 23.8584C9.13567 24.8817 10.775 25.4477 12.4669 25.4738C9.57087 27.7459 6.25954 28.8699 2.51338 28.8699C1.59587 28.8699 0.945778 28.8569 0.552246 28.7873C4.24188 31.1833 8.34896 32.3726 12.8931 32.3726C17.5437 32.3726 21.6529 31.1942 25.2295 28.8373C28.8061 26.4935 31.4456 23.6018 33.1415 20.197C34.8186 16.9025 35.6918 13.2576 35.6896 9.56078V8.54325C37.2528 7.39075 38.6061 5.97793 39.6902 4.36659C38.2261 5.00116 36.6829 5.43486 35.1026 5.6559Z" fill="#08A3E6"/>
</svg>
