<svg width="32" height="32" viewBox="0 0 32 32" fill="none" xmlns="http://www.w3.org/2000/svg">
<path d="M29.4303 0.0957031H2.7795C1.50499 0.0957031 0.470703 1.10566 0.470703 2.34933V29.1153C0.470703 30.3607 1.50499 31.3719 2.7795 31.3719H29.4303C30.7057 31.3719 31.7469 30.3607 31.7469 29.1153V2.34933C31.7469 1.10566 30.7057 0.0957031 29.4303 0.0957031ZM9.74671 26.7474H5.10567V11.8221H9.74671V26.7474ZM7.42619 9.78134C7.07293 9.78134 6.72314 9.71173 6.39679 9.5765C6.07045 9.44126 5.77395 9.24304 5.52424 8.99317C5.27453 8.7433 5.07651 8.44667 4.94148 8.12024C4.80645 7.79381 4.73707 7.44397 4.7373 7.09072C4.7373 6.37764 5.02057 5.69376 5.52479 5.18954C6.02902 4.68532 6.71289 4.40205 7.42597 4.40205C8.13905 4.40205 8.82292 4.68532 9.32715 5.18954C9.83137 5.69376 10.1146 6.37764 10.1146 7.09072C10.1146 7.80394 9.83146 8.48798 9.32734 8.99251C8.82322 9.49704 8.13941 9.78077 7.42619 9.78134ZM27.1206 26.7474H22.487V19.4896C22.487 17.7581 22.4531 15.5318 20.0757 15.5318C17.6613 15.5318 17.2934 17.4175 17.2934 19.364V26.7478H12.6563V11.8221H17.1066V13.8603H17.17C17.7895 12.6874 19.3029 11.4498 21.56 11.4498C26.254 11.4498 27.1211 14.5401 27.1211 18.5604V26.7474H27.1206Z" fill="#2B70B5"/>
</svg>
