<svg width="32" height="31" viewBox="0 0 32 31" fill="none" xmlns="http://www.w3.org/2000/svg">
<path d="M30.3203 0.0957031H1.97929C1.29772 0.0957031 0.74707 0.64635 0.74707 1.32792V29.6689C0.74707 30.3505 1.29772 30.9011 1.97929 30.9011H30.3203C31.0018 30.9011 31.5525 30.3505 31.5525 29.6689V1.32792C31.5525 0.64635 31.0018 0.0957031 30.3203 0.0957031ZM26.7622 9.08703H24.3017C22.3725 9.08703 21.9989 10.0035 21.9989 11.3512V14.3201H26.6044L26.0037 18.9679H21.9989V30.9011H17.1972V18.9717H13.1809V14.3201H17.1972V10.893C17.1972 6.91525 19.6269 4.74732 23.1773 4.74732C24.8793 4.74732 26.3387 4.87439 26.7661 4.93215V9.08703H26.7622Z" fill="#0A66C2"/>
</svg>
