<svg xmlns="http://www.w3.org/2000/svg" xmlns:xlink="http://www.w3.org/1999/xlink" viewBox="0 0 244.6 206.08"><defs><style>.cls-1{fill:none;}.cls-2{clip-path:url(#clip-path);}.cls-3{fill:#002f54;}</style><clipPath id="clip-path" transform="translate(0.01 -0.14)"><rect class="cls-1" width="246" height="206.25"/></clipPath></defs><g id="Layer_2" data-name="Layer 2"><g id="Layer_1-2" data-name="Layer 1"><g class="cls-2"><path class="cls-3" d="M112.2,25.79s-.18,3.72-2.55,5.65-5.66,3.91-3.31,6.7c1.44,1.7,5.16-.94,4.4-3.39S112.77,28.57,112.2,25.79Z" transform="translate(0.01 -0.14)"/><path class="cls-3" d="M46,84s3.1-1.48,5.71-.41,5.65,2.88,6.89-.25c.76-1.9-3-3.76-4.68-2.08S48,82.27,46,84Z" transform="translate(0.01 -0.14)"/><path class="cls-3" d="M205,165s-4.49,2.39-8.4,1-8.54-3.89-10.16.81c-1,2.86,4.7,5.36,7,2.77s8.65-1.94,11.51-4.56Z" transform="translate(0.01 -0.14)"/><path class="cls-3" d="M15.85,74.3s1.52,2.43.87,4.68-1.86,4.94.85,5.67c1.65.45,2.84-2.85,1.29-4.06s-1.43-4.79-3-6.29Z" transform="translate(0.01 -0.14)"/><path class="cls-3" d="M140.23,190.12s2.29-3.24,5.52-3.62,7.33-.27,6.81-4.12c-.31-2.35-5.16-2.1-5.89.53s-5.36,4.38-6.44,7.21Z" transform="translate(0.01 -0.14)"/><path class="cls-3" d="M139,187.65s1.49-5,5.38-6.89,9.06-3.44,6.78-8c-1.39-2.81-7.37-.44-7.16,3.16s-4.85,7.77-5,11.77Z" transform="translate(0.01 -0.14)"/><path class="cls-3" d="M205.71,159.38s1.59-4.19,5-5.52,7.92-2.36,6.27-6.42c-1-2.47-6.24-.82-6.28,2.25S206.09,156,205.71,159.38Z" transform="translate(0.01 -0.14)"/><path class="cls-3" d="M188.19,62.09s-.76,3.19-3.12,4.48-5.54,2.45-4,5.25c1,1.7,4.61,0,4.36-2.22s2.76-5,2.72-7.51Z" transform="translate(0.01 -0.14)"/><path class="cls-3" d="M146.21,78.19s1.5-4.4,5-5.91,8.13-2.73,6.27-6.88c-1.14-2.53-6.5-.64-6.44,2.56s-4.55,6.7-4.82,10.23Z" transform="translate(0.01 -0.14)"/><path class="cls-3" d="M28.72,56.56s-4-1.31-5.37-4.45-2.53-7.3-6.27-5.59c-2.27,1-.52,5.85,2.36,5.77S25.53,56.35,28.72,56.56Z" transform="translate(0.01 -0.14)"/><path class="cls-3" d="M98.43,28.85s-1.93-2.91-1.21-5.67S99.33,17.1,96,16.3c-2-.49-3.37,3.56-1.45,5s1.89,5.78,3.87,7.56Z" transform="translate(0.01 -0.14)"/><path class="cls-3" d="M127.19,48.41s-1.73-2.47-1.18-4.88,1.69-5.3-1.2-5.92c-1.76-.38-2.83,3.15-1.13,4.35s1.76,5,3.51,6.45Z" transform="translate(0.01 -0.14)"/><path class="cls-3" d="M175.44,129.83s-.25-3.45,1.71-5.5,4.79-4.23,2.3-6.53c-1.51-1.41-4.64,1.44-3.67,3.61S174.6,127.33,175.44,129.83Z" transform="translate(0.01 -0.14)"/><path class="cls-3" d="M111.15,66.33s4.77,1.84,6.26,5.74,2.63,9,7.29,7.19c2.83-1.13,1-7.09-2.52-7.17s-7.16-5.3-11-5.76Z" transform="translate(0.01 -0.14)"/><path class="cls-3" d="M124.54,18.93s2.4,3.47,1.61,6.83-2.39,7.39,1.65,8.28c2.46.54,4-4.39,1.61-6.07S127,21,124.54,18.93Z" transform="translate(0.01 -0.14)"/><path class="cls-3" d="M87.85,16.63s-5.37-3.11-7.39-.27-6.15,2.9-7.27-.45,8.33-6.54,14.66.72Z" transform="translate(0.01 -0.14)"/><path class="cls-3" d="M215.31,74s-5-2.24-6.52.44-5.15,3.12-6.44.28,6.72-6.52,13-.72Z" transform="translate(0.01 -0.14)"/><path class="cls-3" d="M145,206.22s4.64-6.4,1.3-9.32-2.89-8.16,1.51-9.14,7.23,11.38-2.81,18.46Z" transform="translate(0.01 -0.14)"/><path class="cls-3" d="M84.23,158.89s3.39-6.89-.29-9.14-4.11-7.34-.06-9,8.79,9.72.35,18.14Z" transform="translate(0.01 -0.14)"/><path class="cls-3" d="M92.82,111.42s5.12-1.53,4.53-4.47,1.81-5.56,4.58-4.28S101.12,111.74,92.82,111.42Z" transform="translate(0.01 -0.14)"/><path class="cls-3" d="M52,73.11s-6.73,8.51-2.32,12.71,3.5,11.36-2.59,12.45S37.8,82.24,52,73.1Z" transform="translate(0.01 -0.14)"/><path class="cls-3" d="M45.32,95s.34,7.46,4.54,7.66,7,4.34,4.27,7.65S42.07,106.08,45.32,95Z" transform="translate(0.01 -0.14)"/><path class="cls-3" d="M132.11,48.79s8.36,6.55,12.46,2.23,11.12-3.45,12.21,2.49-15.68,9.09-24.67-4.72Z" transform="translate(0.01 -0.14)"/><path class="cls-3" d="M211.59,83.54s-3.31,10.22,2.24,12.6,7.18,9.34,1.9,12.46-14.15-11.69-4.14-25.06Z" transform="translate(0.01 -0.14)"/><path class="cls-3" d="M216.31,120.35s-2.56,8.92,2.3,10.81,6.46,7.85,2,10.69-12.55-9.68-4.3-21.5Z" transform="translate(0.01 -0.14)"/><path class="cls-3" d="M161.7,12.73s-7.83,2.82-6.66,7.33-2.32,8.8-6.72,7.05S148.78,13,161.7,12.73Z" transform="translate(0.01 -0.14)"/><path class="cls-3" d="M96.07,122.29s-6.41,3.29-4.89,7-1,7.82-5,6.8S85,123.91,96.07,122.29Z" transform="translate(0.01 -0.14)"/><path class="cls-3" d="M10,66.42s-3.44,8.85,1.34,11.24,5.86,8.6,1,11.08S.47,77.71,10,66.42Z" transform="translate(0.01 -0.14)"/><path class="cls-3" d="M179.4,149.21s-3.26-6.12-6.86-4.62-7.57-.88-6.64-4.73,11.79-1.29,13.5,9.35Z" transform="translate(0.01 -0.14)"/><path class="cls-3" d="M152.28,83.21s-9.9,1.13-9.78,6.71-5.13,9.61-9.78,6.37,4.45-16.37,19.56-13.08Z" transform="translate(0.01 -0.14)"/><path class="cls-3" d="M165.6,23s3.71-6.64,6.21-4.52,4.87-2.85.82-5.65S164.84,17.13,165.6,23Z" transform="translate(0.01 -0.14)"/><path class="cls-3" d="M32.16,37s-.08,10.47-4.51,9.58-4,6.65,2.76,7.36S37,43.56,32.16,37Z" transform="translate(0.01 -0.14)"/><path class="cls-3" d="M100.89,80.31s5.71,9,1.41,10.72.24,7.92,6.43,4.81-.07-12.51-7.84-15.53Z" transform="translate(0.01 -0.14)"/><path class="cls-3" d="M186.28,107.13s4.72-4.88,6.4-2.48,4.85-1.34,2-4.68-7.71,1.93-8.4,7.16Z" transform="translate(0.01 -0.14)"/><path class="cls-3" d="M103.45,114s-5.86,2.91-6.61.19-4.83-.34-3.32,3.61S101.13,118.54,103.45,114Z" transform="translate(0.01 -0.14)"/><path class="cls-3" d="M145.52,172.19s2-9.68,5.92-8.05,4.91-5.44-1.21-7.32-8,8.4-4.71,15.37Z" transform="translate(0.01 -0.14)"/><path class="cls-3" d="M173,144.87s-8,3.62-8.86-.05-6.46-.68-4.63,4.68,10.18,1.33,13.49-4.63Z" transform="translate(0.01 -0.14)"/><path class="cls-3" d="M196.22,143.87s1.68-9.19,5.44-7.72,4.53-5.25-1.29-6.9-7.36,8.09-4.15,14.62Z" transform="translate(0.01 -0.14)"/><path class="cls-3" d="M92.53,109.59s-.24-6,2.31-5.58,2.09-3.9-1.77-4.12-3.46,6.08-.54,9.7Z" transform="translate(0.01 -0.14)"/><path class="cls-3" d="M231,107.8s5.06,3,3.38,4.85,2.12,3.79,4.35.73S235.52,107.32,231,107.8Z" transform="translate(0.01 -0.14)"/><path class="cls-3" d="M162.5,92.77S169,101,165,103.08s1.05,7.7,6.77,4-1.35-12.2-9.24-14.35Z" transform="translate(0.01 -0.14)"/><path class="cls-3" d="M144.06,150.1s-8.34,1-8.08-2.58-5.7-2.48-5.57,2.94,8.91,4.13,13.65-.36Z" transform="translate(0.01 -0.14)"/><path class="cls-3" d="M84,9.38s-5.41-.33-4.82-2.59S75.8,4.55,75.25,8,80.42,11.67,84,9.38Z" transform="translate(0.01 -0.14)"/><path class="cls-3" d="M203.56,32.91s-.7,9.39-4.62,8.32S195,47,201,48s6.51-8.9,2.59-15.09Z" transform="translate(0.01 -0.14)"/><path class="cls-3" d="M165.43,121.94s4.31,3.06,2.66,4.63,1.61,3.56,3.85,1-2.4-5.69-6.51-5.61Z" transform="translate(0.01 -0.14)"/><path class="cls-3" d="M64.47,108.1a5.36,5.36,0,0,0,5.36-5.63,5.44,5.44,0,0,0-1.64-3.76,2.61,2.61,0,0,0-.42-.38A5.54,5.54,0,0,0,65,97.17l-.21-.06a27.2,27.2,0,0,0-19.45,2c11.36-.91,13.91,6,13.91,6a6.47,6.47,0,0,0,5.18,3Z" transform="translate(0.01 -0.14)"/><path class="cls-3" d="M69.72,55.82a2.84,2.84,0,0,0,3.34,2.38,2.92,2.92,0,0,0,1.85-1.13,2.5,2.5,0,0,0,.16-.24,2.93,2.93,0,0,0,.41-1.51s0-.07,0-.11a14.23,14.23,0,0,0-2.45-10c1.3,5.84-2.13,7.68-2.13,7.68a3.39,3.39,0,0,0-1.19,2.91Z" transform="translate(0.01 -0.14)"/><path class="cls-3" d="M134.05,44.91a2.78,2.78,0,0,0-3.75-1.48,2.82,2.82,0,0,0-1.49,1.51,1,1,0,0,0-.1.28,2.71,2.71,0,0,0,0,1.52.49.49,0,0,0,0,.12,14,14,0,0,0,4.71,8.93c-2.63-5.26.21-7.82.21-7.82a3.35,3.35,0,0,0,.44-3.06Z" transform="translate(0.01 -0.14)"/><path class="cls-3" d="M71.9,119a5.17,5.17,0,0,0-4.77-5.8,5.3,5.3,0,0,0-3.81,1.12,2.64,2.64,0,0,0-.41.36,5.23,5.23,0,0,0-1.44,2.47l-.08.19A26.17,26.17,0,0,0,61,136.15c.48-11,7.43-12.6,7.43-12.6A6.23,6.23,0,0,0,71.9,119Z" transform="translate(0.01 -0.14)"/><path class="cls-3" d="M30.66,113.86a4.22,4.22,0,0,0,5.78-2,4.31,4.31,0,0,0,.23-3.22,2.15,2.15,0,0,0-.16-.41A4.2,4.2,0,0,0,35,106.46a.68.68,0,0,0-.12-.12,21.34,21.34,0,0,0-14.26-5.67c8.23,3.48,7.49,9.23,7.49,9.23a5.07,5.07,0,0,0,2.52,4Z" transform="translate(0.01 -0.14)"/><path class="cls-3" d="M162.54,159.13a3.14,3.14,0,0,0,.22,4.55,3.26,3.26,0,0,0,2.27.83l.33,0a3.32,3.32,0,0,0,1.59-.68l.11-.07a15.9,15.9,0,0,0,7-9c-4.2,5.18-8.18,3.46-8.18,3.46a3.8,3.8,0,0,0-3.36,1Z" transform="translate(0.01 -0.14)"/><path class="cls-3" d="M166,111.29a2.67,2.67,0,0,0-3.73-1,2.72,2.72,0,0,0-1.26,1.6,1.15,1.15,0,0,0-.07.28,2.71,2.71,0,0,0,.13,1.46l0,.11a13.51,13.51,0,0,0,5.45,8c-3.07-4.75-.64-7.49-.64-7.49a3.19,3.19,0,0,0,.09-3Z" transform="translate(0.01 -0.14)"/><path class="cls-3" d="M219.35,81.5a3.72,3.72,0,0,0,1-6.8,1.52,1.52,0,0,0-.34-.19,3.68,3.68,0,0,0-2-.32h-.15A18.5,18.5,0,0,0,205.3,78.6c7.35-2.41,10.15,1.75,10.15,1.75a4.42,4.42,0,0,0,3.9,1.15Z" transform="translate(0.01 -0.14)"/><path class="cls-3" d="M148.55,12.11a4.18,4.18,0,0,0-4.57-4,4.29,4.29,0,0,0-2.88,1.4,1.64,1.64,0,0,0-.28.34A4.31,4.31,0,0,0,140,12c0,.06,0,.11,0,.17a21.08,21.08,0,0,0,2.21,15c-1.1-8.78,4.21-11,4.21-11a5,5,0,0,0,2.16-4.12Z" transform="translate(0.01 -0.14)"/><path class="cls-3" d="M50.91,112.84a3.52,3.52,0,0,0-4.65-2.08,3.62,3.62,0,0,0-2,1.83,2.18,2.18,0,0,0-.14.34,3.51,3.51,0,0,0-.12,1.93V115a17.76,17.76,0,0,0,5.46,11.55c-3-6.79.69-9.87.69-9.87A4.23,4.23,0,0,0,50.91,112.84Z" transform="translate(0.01 -0.14)"/><path class="cls-3" d="M193.7,60.86a5.17,5.17,0,0,0-4.18,6.23,5.26,5.26,0,0,0,2.18,3.31,2.81,2.81,0,0,0,.46.29,5.32,5.32,0,0,0,2.78.66l.21,0a26.23,26.23,0,0,0,18.17-5.06c-10.64,2.72-14.2-3.45-14.2-3.45a6.28,6.28,0,0,0-5.42-2Z" transform="translate(0.01 -0.14)"/><path class="cls-3" d="M19.41,78.7a2.92,2.92,0,0,0,3.33-2.61,3,3,0,0,0-.58-2.16,1.41,1.41,0,0,0-.2-.24,3,3,0,0,0-1.37-.83l-.11,0a14.81,14.81,0,0,0-10.63-.46c6.18.4,7,4.33,7,4.33a3.54,3.54,0,0,0,2.55,2Z" transform="translate(0.01 -0.14)"/><path class="cls-3" d="M92,60.67a5.16,5.16,0,0,0-6.11-4.31,5.26,5.26,0,0,0-3.36,2.07,2.29,2.29,0,0,0-.3.46,5.25,5.25,0,0,0-.73,2.74c0,.07,0,.13,0,.21A26.08,26.08,0,0,0,86,80c-2.43-10.65,3.81-14,3.81-14A6.22,6.22,0,0,0,92,60.67Z" transform="translate(0.01 -0.14)"/><path class="cls-3" d="M32.53,85.9A3.17,3.17,0,0,0,28.46,88a3.23,3.23,0,0,0,.2,2.43,1.28,1.28,0,0,0,.17.29,3.18,3.18,0,0,0,1.3,1.16l.11.08a16.08,16.08,0,0,0,11.29,2.56c-6.54-1.63-6.66-6-6.66-6a3.83,3.83,0,0,0-2.34-2.66Z" transform="translate(0.01 -0.14)"/><path class="cls-3" d="M70.43,45.44a4.48,4.48,0,0,0-7.7-2.94,1.72,1.72,0,0,0-.31.34,4.52,4.52,0,0,0-.92,2.23c0,.06,0,.11,0,.17A22.09,22.09,0,0,0,63.26,61C62.41,51.81,68,49.68,68,49.68a5.27,5.27,0,0,0,2.39-4.24Z" transform="translate(0.01 -0.14)"/><path class="cls-3" d="M116.25,93.06a8.17,8.17,0,0,1-2.74,4.73l0,0a1.67,1.67,0,0,0-.56,1.72,1.7,1.7,0,0,0,2.06,1.22,1.73,1.73,0,0,0,1-.76.53.53,0,0,0,.08-.15,2.74,2.74,0,0,0,.39-1.1s.91-3.52-.27-5.7Z" transform="translate(0.01 -0.14)"/><path class="cls-3" d="M239.26,85.11a9.07,9.07,0,0,1-5.09-3.27l0,0a1.88,1.88,0,0,0-3.34,1.51,1.91,1.91,0,0,0,.78,1.16.69.69,0,0,0,.17.1,3.14,3.14,0,0,0,1.2.49s3.85,1.18,6.32,0Z" transform="translate(0.01 -0.14)"/><path class="cls-3" d="M151.93,60.83a9.9,9.9,0,0,1-6.59.42l0,0a2,2,0,0,0-1.95,3.48,2,2,0,0,0,1.43.51.74.74,0,0,0,.21,0,3.31,3.31,0,0,0,1.37-.35s4.15-1.45,5.55-4.09Z" transform="translate(0.01 -0.14)"/><path class="cls-3" d="M81.23,67.61a13.81,13.81,0,0,1-8.09,4.45v.07a2.87,2.87,0,0,0-2.32,2,2.86,2.86,0,0,0,4,3.36,1.74,1.74,0,0,0,.26-.15c.43-.28,1.29-.77,1.52-1.25,0,0,4.39-4.3,4.59-8.48Z" transform="translate(0.01 -0.14)"/><path class="cls-3" d="M48.68,18.71a11.07,11.07,0,0,1-7,2.3v0a2.28,2.28,0,1,0,.56,4.46,1.27,1.27,0,0,0,.23-.08,3.81,3.81,0,0,0,1.38-.76s4.08-2.72,4.85-6Z" transform="translate(0.01 -0.14)"/><path class="cls-3" d="M109.16,71.27a7.77,7.77,0,0,1,3.52,3.86h0a1.62,1.62,0,1,0,2.73-1.65l-.12-.12a2.68,2.68,0,0,0-.89-.68s-3-1.84-5.28-1.4Z" transform="translate(0.01 -0.14)"/><path class="cls-3" d="M166.67,12.85a14.31,14.31,0,0,1-8.11-5l-.07,0a2.95,2.95,0,1,0-4,4.26,1.28,1.28,0,0,0,.26.16,4.81,4.81,0,0,0,1.9.73s6.1,1.77,10-.17Z" transform="translate(0.01 -0.14)"/><path class="cls-3" d="M33.14,80.73A9.47,9.47,0,0,1,36,86.4H36a2,2,0,0,0,3.81.43,1.93,1.93,0,0,0-.08-1.46.76.76,0,0,0-.09-.18,3.26,3.26,0,0,0-.82-1.08S36,81,33.14,80.73Z" transform="translate(0.01 -0.14)"/><path class="cls-3" d="M159.91,71.52a12.39,12.39,0,0,1-8.19-1l0,0a2.54,2.54,0,0,0-3.2,3.8,2.48,2.48,0,0,0,1.64,1,1,1,0,0,0,.26,0,4.16,4.16,0,0,0,1.76-.11s5.43-.82,7.77-3.73Z" transform="translate(0.01 -0.14)"/><path class="cls-3" d="M24,90.48a9.63,9.63,0,0,1-6.4.5l0,0a2,2,0,1,0-.44,3.88.71.71,0,0,0,.2,0,3.13,3.13,0,0,0,1.32-.36S22.68,93.07,24,90.48Z" transform="translate(0.01 -0.14)"/><path class="cls-3" d="M95.27,15.41a13.35,13.35,0,0,1-4.1-7.94H91.1a2.77,2.77,0,0,0-5.38-.53A2.71,2.71,0,0,0,85.85,9a1.57,1.57,0,0,0,.14.25,4.51,4.51,0,0,0,1.18,1.51s4,4.36,8.1,4.66Z" transform="translate(0.01 -0.14)"/><path class="cls-3" d="M91.74,7.14a11.91,11.91,0,0,1,7.77,1.49l0,0a2.45,2.45,0,0,0,3.31-3.44,2.4,2.4,0,0,0-1.51-1,.85.85,0,0,0-.25,0,4,4,0,0,0-1.69,0s-5.25.43-7.66,3.07Z" transform="translate(0.01 -0.14)"/><path class="cls-3" d="M52.08,23.44a9,9,0,0,1,4.81-3.55v0a1.87,1.87,0,0,0,1.32-1.49,1.86,1.86,0,0,0-2.89-1.81.79.79,0,0,0-.15.12c-.25.22-.76.61-.87.93,0,0-2.45,3.14-2.22,5.84Z" transform="translate(0.01 -0.14)"/><path class="cls-3" d="M59.14,141.11a6.88,6.88,0,0,1-2.22-4h0a1.42,1.42,0,0,0-2.77-.2,1.39,1.39,0,0,0,.1,1.06.37.37,0,0,0,.07.12,2.31,2.31,0,0,0,.62.76S57.06,141,59.14,141.11Z" transform="translate(0.01 -0.14)"/><path class="cls-3" d="M35.16,26.4A9.52,9.52,0,0,1,29.91,30V30a2,2,0,0,0-1.46,1.52,2,2,0,0,0,3,2l.16-.12c.28-.21.84-.61,1-1C32.57,32.5,35.3,29.27,35.16,26.4Z" transform="translate(0.01 -0.14)"/><path class="cls-3" d="M187.22,41.29s13.32,4.21,12,14.63c0,0-2,5.56-5.53,4.43s-4.79-6.42-.85-8.6-1.51-9.52-5.6-10.45Z" transform="translate(0.01 -0.14)"/><path class="cls-3" d="M181.56,65.83s16.71,6.75,13.95,20c0,0-3.14,7-7.56,5.15s-5.53-8.75-.23-11.16-1-12.4-6.16-14Z" transform="translate(0.01 -0.14)"/><path class="cls-3" d="M69.85,154.6s-6.68-12.5,1.7-19.12c0,0,5.41-2.63,7.17.69s-1.09,8.07-5.5,6.86-5.67,8-3.37,11.57Z" transform="translate(0.01 -0.14)"/><path class="cls-3" d="M243.06,116.75s2.93,10.33-4.35,13.89c0,0-4.43,1.08-5.2-1.67a3.64,3.64,0,0,1,5.19-4.19c3.07,1.61,5.49-5,4.36-8Z" transform="translate(0.01 -0.14)"/><path class="cls-3" d="M115.54,108.61s4.12,18.16-8.82,23.65c0,0-7.78,1.45-8.85-3.37s4.19-9.85,9.37-6.78,10-8.17,8.3-13.5Z" transform="translate(0.01 -0.14)"/><path class="cls-3" d="M133.36,63.58s-10.91-1.71-11.1-10c0,0,.9-4.59,3.79-4.12a3.73,3.73,0,0,1,1.69,6.62C124.91,58.24,130.06,63.33,133.36,63.58Z" transform="translate(0.01 -0.14)"/><path class="cls-3" d="M188.18,56.72s-5.72,17.94-19.82,16.12c0,0-7.52-2.71-6-7.46s8.71-6.44,11.65-1.12,12.88-2,14.16-7.54Z" transform="translate(0.01 -0.14)"/><path class="cls-3" d="M107,57.25s-15.44-5.6-13.36-17.78c0,0,2.62-6.44,6.71-4.94s5.32,7.79.58,10.16S102.23,56,107,57.25Z" transform="translate(0.01 -0.14)"/><path class="cls-3" d="M54.51,59.8s10.18-.59,12,6.86c0,0,.09,4.32-2.61,4.46a3.44,3.44,0,0,1-2.82-5.64c2.12-2.51-3.52-6.1-6.55-5.68Z" transform="translate(0.01 -0.14)"/><path class="cls-3" d="M62.06,139.4s1.79-14,12.45-14.6c0,0,5.94,1,5.45,4.71s-5.56,5.94-8.46,2.41-9.24,3.24-9.44,7.48Z" transform="translate(0.01 -0.14)"/><path class="cls-3" d="M109.93,128.26s8.92,2.39,8.34,9.3c0,0-1.15,3.73-3.51,3.09a3.11,3.11,0,0,1-.82-5.65c2.54-1.56-1.28-6.24-4-6.74Z" transform="translate(0.01 -0.14)"/><path class="cls-3" d="M74.63,83.82s9.52-1,11.52,6c0,0,.25,4-2.27,4.29A3.24,3.24,0,0,1,81,88.88C82.89,86.44,77.46,83.3,74.63,83.82Z" transform="translate(0.01 -0.14)"/><path class="cls-3" d="M210.9,166s-15.8-11.77-9.18-25c0,0,5.25-6.5,9.43-3.36s3.4,10.78-2.87,11.86-2.39,13.4,2.62,16.54Z" transform="translate(0.01 -0.14)"/><path class="cls-3" d="M157.66,120.17s-9.66-10-3.51-18.53c0,0,4.41-3.92,7-1.25s1.13,7.91-3.36,7.94-3.22,9.07-.09,11.84Z" transform="translate(0.01 -0.14)"/><path class="cls-3" d="M23.67,72.36S39.41,60.88,50.05,71c0,0,4.62,6.85.43,9.87s-11.2.08-10.4-6.15-12-6.16-16.41-2.35Z" transform="translate(0.01 -0.14)"/><path class="cls-3" d="M194.06,130.42s-9-2.52-9.32-5.86-5.58-1-4.44,2.1,9.84,7.3,13.76,3.76Z" transform="translate(0.01 -0.14)"/><path class="cls-3" d="M115.82,74.63s-14,1.55-16.32-2.92-8.34,1.78-5,5.43,17.85,4.63,21.32-2.51Z" transform="translate(0.01 -0.14)"/><path class="cls-3" d="M111.43,152.68s-8.25-7-7-10.65-5.41-3.71-5.69.08,6.85,12.41,12.68,10.57Z" transform="translate(0.01 -0.14)"/><path class="cls-3" d="M217.79,157.19s8.39-9.23,12.59-7.64,4.5-6.07.13-6.55-14.61,7.4-12.72,14.19Z" transform="translate(0.01 -0.14)"/><path class="cls-3" d="M99.49,60.25s-3.33,5.7-5.68,5.33-1.66,3.64.66,3.41,6.75-5.43,5-8.74Z" transform="translate(0.01 -0.14)"/><path class="cls-3" d="M86.63,51.66s8.67,2.92,8.83,6.2,5.41,1.24,4.45-1.83-9.27-7.63-13.28-4.37Z" transform="translate(0.01 -0.14)"/><path class="cls-3" d="M167.29,170.79s-7.38,2.37-9.14.22-4.31,1.87-2.11,3.48S166.2,175,167.29,170.79Z" transform="translate(0.01 -0.14)"/><path class="cls-3" d="M199.15,115.4s2.35,6.59.44,8.24,1.82,3.84,3.22,1.8.21-9.17-3.66-10Z" transform="translate(0.01 -0.14)"/><path class="cls-3" d="M143.07,34.85s-3.07,7.32-5.93,7.25-1.41,4.6,1.32,4S145.65,38.52,143.07,34.85Z" transform="translate(0.01 -0.14)"/><path class="cls-3" d="M128.05,3.37s-7.63,6.73-10.89,5.06-4.2,4.53-.69,5.31S129,9,128.05,3.37Z" transform="translate(0.01 -0.14)"/><path class="cls-3" d="M73.27,116.12s9.17-7,12.73-4.85,5.11-4.78,1.21-6-14.53,4.31-13.94,10.8Z" transform="translate(0.01 -0.14)"/><path class="cls-3" d="M126.5,82.65s10.17-2.43,12.32.66,6-2.08,3.19-4.48-13.61-1.77-15.51,3.82Z" transform="translate(0.01 -0.14)"/><path class="cls-3" d="M244.59,113.09s-11.7,5.59-15.11,2.41-6.73,4.08-2.71,6.26,17-1.39,17.82-8.67Z" transform="translate(0.01 -0.14)"/><path class="cls-3" d="M118,107.07s2.24,8.65-.37,10.53,1.88,5.08,3.88,2.66,1.31-11.65-3.51-13.19Z" transform="translate(0.01 -0.14)"/><path class="cls-3" d="M99.43,51.44s7.35-3.26,9.41-1.23,4.24-2.41,1.78-3.83S100.08,47,99.43,51.44Z" transform="translate(0.01 -0.14)"/><path class="cls-3" d="M184.2,112.77s1.25,9.46,7.55,11.76,5.87-7.19,2.27-7.28-4.14,1-4.14,1S184.43,113.93,184.2,112.77Z" transform="translate(0.01 -0.14)"/><path class="cls-3" d="M108.83,139.74s.11,5.84,3.79,7.67,4.06-4,1.88-4.27-2.59.32-2.59.32S108.89,140.45,108.83,139.74Z" transform="translate(0.01 -0.14)"/><path class="cls-3" d="M197.92,152.65s-4.35,3.53-3.56,7.38,5.4.72,4.34-1.1-1.78-1.76-1.78-1.76S197.41,153.12,197.92,152.65Z" transform="translate(0.01 -0.14)"/><path class="cls-3" d="M204.85,169.65s-8.35,1-10.4,6.56,6.29,5.19,6.4,2-.86-3.65-.86-3.65,3.84-4.76,4.86-4.95Z" transform="translate(0.01 -0.14)"/><path class="cls-3" d="M76.59,108.26s-4.45-2.38-7.38-.39,1.28,4.73,2.43,3.22.85-2.09.85-2.09,3.53-1,4.1-.74Z" transform="translate(0.01 -0.14)"/><path class="cls-3" d="M209.75,76.71s-1.72,5.88,1.38,8.86,5.31-2.7,3.22-3.69-2.69-.48-2.69-.48S209.58,77.45,209.75,76.71Z" transform="translate(0.01 -0.14)"/><path class="cls-3" d="M73.18,24.6s-5.11,8.77-1.3,14.78,9.61-2.24,6.65-4.65-4.14-1.84-4.14-1.84-1.78-7.17-1.21-8.29Z" transform="translate(0.01 -0.14)"/><path class="cls-3" d="M72.2,19.63s5,9.27,12.34,9.2,3.26-9.67-.49-8.38-3.88,2.64-3.88,2.64S72.88,20.73,72.2,19.63Z" transform="translate(0.01 -0.14)"/><path class="cls-3" d="M56.68,45.25s-3.82-7.38-9.66-7.4-2.68,7.61.29,6.63,3.1-2,3.1-2S56.15,44.37,56.68,45.25Z" transform="translate(0.01 -0.14)"/><path class="cls-3" d="M177.84,33.73s-1.92,7.75,2.29,11.46,6.77-3.81,4-5-3.53-.49-3.53-.49-2.93-5-2.75-6Z" transform="translate(0.01 -0.14)"/><path class="cls-3" d="M93.16,43.69s-9.38-2.49-14,2.53,4.5,8.28,6,4.94.66-4.28.66-4.28,6.17-3.43,7.34-3.19Z" transform="translate(0.01 -0.14)"/><path class="cls-3" d="M218.88,107.19s-1.26,7.49,3,10.69,6.14-4.1,3.42-5-3.38-.2-3.38-.2S218.78,108.12,218.88,107.19Z" transform="translate(0.01 -0.14)"/><path class="cls-3" d="M181.47,145.13s1.53-9.57-3.94-13.63-7.8,5.3-4.33,6.43,4.33.23,4.33.23,4.06,5.78,3.94,7Z" transform="translate(0.01 -0.14)"/><path class="cls-3" d="M181.09,138.73s5,2.16,8-.27-1.82-5-2.92-3.24-.72,2.33-.72,2.33-3.73,1.41-4.37,1.18Z" transform="translate(0.01 -0.14)"/><path class="cls-3" d="M65.92,58.44s2.76,7.51,8.35,8.23,3.47-7,.51-6.38-3.21,1.59-3.21,1.59S66.31,59.34,65.92,58.44Z" transform="translate(0.01 -0.14)"/><path class="cls-3" d="M122.28,161.3s-3.92-2.64-3.91-4,1-2.75,2.43-2.11,1.15,2.56.81,4.24.67,1.89.67,1.89Z" transform="translate(0.01 -0.14)"/><path class="cls-3" d="M87.59,80.07s8.62,2.08,9.51,4.52,0,5.49-2.89,5.3S90.52,86.13,90,83,87.59,80.07,87.59,80.07Z" transform="translate(0.01 -0.14)"/><path class="cls-3" d="M176.42,48.24s6.3,5.17,6.06,7.54S180.28,60.33,178,59s-1.54-4.59-.69-7.41-.85-3.36-.85-3.36Z" transform="translate(0.01 -0.14)"/><path class="cls-3" d="M138.51,183.58s-5.32-6.24-4.66-8.55,3-4.11,5.05-2.4.72,4.82-.64,7.47S138.51,183.58,138.51,183.58Z" transform="translate(0.01 -0.14)"/><path class="cls-3" d="M132.57,28.07s-1.8-5.48-.75-6.81,3.05-1.89,3.94-.22-.82,3.33-2.42,4.7S132.57,28.07,132.57,28.07Z" transform="translate(0.01 -0.14)"/><path class="cls-3" d="M67.93,25.51s-.64-4.59.38-5.49S71,19,71.45,20.41s-1.13,2.51-2.58,3.37-.94,1.73-.94,1.73Z" transform="translate(0.01 -0.14)"/><path class="cls-3" d="M226.14,94.5s4.85-3.75,6.56-3.18,3,2.38,1.62,3.86-3.63.36-5.57-.74-2.61.06-2.61.06Z" transform="translate(0.01 -0.14)"/><path class="cls-3" d="M175.29,153.77s6.59,5.91,6.22,8.47-2.61,4.83-5.06,3.3-1.46-5-.4-8.08S175.29,153.77,175.29,153.77Z" transform="translate(0.01 -0.14)"/><path class="cls-3" d="M183.22,167.47s-3.61,7.83-6.11,8.23-5.27-1-4.54-3.76,4.3-2.82,7.44-2.7S183.22,167.47,183.22,167.47Z" transform="translate(0.01 -0.14)"/><path class="cls-3" d="M179.18,36s2.83-7.52,5.12-8.06,5,.6,4.47,3.19-3.8,2.9-6.72,3S179.18,36,179.18,36Z" transform="translate(0.01 -0.14)"/><path class="cls-3" d="M163.87,31.78s-2.2,7-4.28,7.62-4.55-.3-4.23-2.69,3.32-2.84,6-3.08,2.53-1.85,2.53-1.85Z" transform="translate(0.01 -0.14)"/><path class="cls-3" d="M87,83s-6.13.8-7.32-.56-1.38-3.58.55-4.17,3.34,1.52,4.47,3.46S87,83,87,83Z" transform="translate(0.01 -0.14)"/><path class="cls-3" d="M132.77,38.07s2.16-7.33,4.3-8,4.75.23,4.46,2.71-3.4,3-6.17,3.32-2.59,2-2.59,2Z" transform="translate(0.01 -0.14)"/><path class="cls-3" d="M130.08,118.6s-.92,5.77-2.48,6.48-3.62.29-3.64-1.63,2.28-2.61,4.35-3.11,1.77-1.74,1.77-1.74Z" transform="translate(0.01 -0.14)"/><path class="cls-3" d="M188.1,72.75s-4.67,7.42-7.25,7.49-5.16-1.74-4.06-4.39,4.69-2.27,7.84-1.73S188.1,72.75,188.1,72.75Z" transform="translate(0.01 -0.14)"/><path class="cls-3" d="M131.8,64.43s-4.32,4.22-4.45,6,1.07,6.7,4.85,6.8,3.43-4.08,1.76-7a19.71,19.71,0,0,1-2.16-5.86Z" transform="translate(0.01 -0.14)"/><path class="cls-3" d="M43.17,57.8S37,59.43,35.94,61s-2.51,6.72.91,8.77,5.28-2,5.25-5.48a20.53,20.53,0,0,1,1.07-6.5Z" transform="translate(0.01 -0.14)"/><path class="cls-3" d="M42.64,108.17s-4.17,2.16-4.67,3.46-.73,5.22,2.05,6.15,3.48-2.25,2.89-4.77A15.19,15.19,0,0,1,42.64,108.17Z" transform="translate(0.01 -0.14)"/><path class="cls-3" d="M161.6,59.4s5.7-1.3,6.72-2.72,2.52-6.08-.55-8.06-4.9,1.63-5,4.85A18.86,18.86,0,0,1,161.6,59.4Z" transform="translate(0.01 -0.14)"/><path class="cls-3" d="M105.24,20.51s-2.72,2.46-2.84,3.54.49,4.09,2.77,4.23,2.18-2.38,1.24-4.17a11.84,11.84,0,0,1-1.17-3.6Z" transform="translate(0.01 -0.14)"/><path class="cls-3" d="M242.1,108.74s1.3-3.36.93-4.37-2.25-3.37-4.32-2.49-.85,3.06.77,4.21a11.73,11.73,0,0,1,2.62,2.65Z" transform="translate(0.01 -0.14)"/><path class="cls-3" d="M18.75,41.56S22,43.05,23,42.74s3.5-2,2.75-4.13-3-1-4.24.51A11.78,11.78,0,0,1,18.75,41.56Z" transform="translate(0.01 -0.14)"/><path class="cls-3" d="M193.69,23.83s-2.15,5.3-1.58,6.9,3.48,5.42,6.79,4.07,1.43-4.84-1.11-6.71A18.37,18.37,0,0,1,193.69,23.83Z" transform="translate(0.01 -0.14)"/><path class="cls-3" d="M183.76,145.52s-3.21,5.45-2.86,7.3,2.92,6.49,6.77,5.56,2.35-5.06-.12-7.52A20.61,20.61,0,0,1,183.76,145.52Z" transform="translate(0.01 -0.14)"/><path class="cls-3" d="M240.17,141.6s-1.78-6.59-3.48-7.72-7.22-2.67-9.41,1,2.13,5.64,5.9,5.6A22.36,22.36,0,0,1,240.17,141.6Z" transform="translate(0.01 -0.14)"/><path class="cls-3" d="M193.22,154s2.92-5,2.59-6.67-2.69-5.92-6.2-5.06-2.13,4.63.13,6.87A18.71,18.71,0,0,1,193.22,154Z" transform="translate(0.01 -0.14)"/><path class="cls-3" d="M189.89,24.89s-.5-3.43-1.28-4.1-3.48-1.77-4.81-.06.73,3,2.64,3.18A11.17,11.17,0,0,1,189.89,24.89Z" transform="translate(0.01 -0.14)"/><path class="cls-3" d="M143.87,105.93s3,1.21,4,.88,3.1-2,2.32-3.91-2.79-.8-3.85.66A10.88,10.88,0,0,1,143.87,105.93Z" transform="translate(0.01 -0.14)"/><path class="cls-3" d="M225.44,65.73s-3.29-6.19-5.25-6.93-7.84-1-9.19,3.16,3.43,5.15,7.19,4.24A22.88,22.88,0,0,1,225.44,65.73Z" transform="translate(0.01 -0.14)"/><path class="cls-3" d="M187,53.3s2.5-2,2.66-3-.24-3.6-2.24-3.84-2,2-1.28,3.6A10.5,10.5,0,0,1,187,53.3Z" transform="translate(0.01 -0.14)"/><path class="cls-3" d="M187.18,83.69s-6.05,2-9.08-2.27-5.59-2.08-5.45-.84,6.84,8.07,14.53,3.11Z" transform="translate(0.01 -0.14)"/><path class="cls-3" d="M102.38,95.21S97.9,97,95.43,93.87s-4.31-1.34-4.15-.41,5.5,5.82,11.1,1.75Z" transform="translate(0.01 -0.14)"/><path class="cls-3" d="M163.25,157s3.53-4.94,8.27-3.36,5.48-1.54,4.67-2.41S166.37,148.82,163.25,157Z" transform="translate(0.01 -0.14)"/><path class="cls-3" d="M69.45,30.44s-6-6.31-2.45-12.52-.66-8.11-2.11-7.22-6,13.12,4.56,19.74Z" transform="translate(0.01 -0.14)"/><path class="cls-3" d="M148.34,31.4s4-2.55,7,0,4.41.48,4.08-.39S153,26.42,148.34,31.4Z" transform="translate(0.01 -0.14)"/><path class="cls-3" d="M125.45,113.42s4.17-1,6,2,3.63,1.71,3.61.88S130.89,110.53,125.45,113.42Z" transform="translate(0.01 -0.14)"/><path class="cls-3" d="M218,71.05s4.07-1.91,6.55.83,4.09,1,3.88.15-5.46-5.09-10.43-1Z" transform="translate(0.01 -0.14)"/><path class="cls-3" d="M149.34,131.83S156,129.31,159.6,134s6.34,2.07,6.13.7-8-8.72-16.39-2.82Z" transform="translate(0.01 -0.14)"/><path class="cls-3" d="M155.67,54.77s1.06-8.6,8.09-9.84,5.82-5.65,4.21-6.19-13.93,3.69-12.3,16Z" transform="translate(0.01 -0.14)"/><path class="cls-3" d="M137.79,111.62s-1.7-6.35,2.9-9.2,2.49-5.62,1.21-5.55-8.76,6.53-4.11,14.75Z" transform="translate(0.01 -0.14)"/><path class="cls-3" d="M169.65,167.09s-3.6,2.28-6.26,0-4-.45-3.67.32S165.46,171.55,169.65,167.09Z" transform="translate(0.01 -0.14)"/><path class="cls-3" d="M19,65.78s3.36-6.44,9.24-5.35,6.23-2.73,5.14-3.62S21.33,55.62,19,65.78Z" transform="translate(0.01 -0.14)"/><path class="cls-3" d="M169.79,40.54s4.42,3.86,2.43,8.25,1,5.4,1.87,4.71,3.24-9.18-4.3-13Z" transform="translate(0.01 -0.14)"/><path class="cls-3" d="M117.52,30.1s1,6.46-3.91,8.76-3.11,5.26-1.84,5.34,9.4-5.45,5.75-14.1Z" transform="translate(0.01 -0.14)"/><path class="cls-3" d="M123.2,1.88s-3,2.81-5.89,1.15-3.81.31-3.39,1S120.09,6.85,123.2,1.88Z" transform="translate(0.01 -0.14)"/><path class="cls-3" d="M181.92,183.91s-3.87,2-6.35-.6-4-.83-3.76,0,5.43,4.74,10.11.61Z" transform="translate(0.01 -0.14)"/><path class="cls-3" d="M207.66,65.05s-2.68-4.21,0-7.33.52-4.64-.39-4.29S202.42,60.15,207.66,65.05Z" transform="translate(0.01 -0.14)"/><path class="cls-3" d="M214.3,154.41s-1,5-5.14,5.46-3.64,3.09-2.72,3.48,8.33-1.63,7.86-8.94Z" transform="translate(0.01 -0.14)"/><path class="cls-3" d="M17.55,105.88s4.51.74,5,4.46,2.86,3.18,3.18,2.35S24.09,105.29,17.55,105.88Z" transform="translate(0.01 -0.14)"/><path class="cls-3" d="M126.32,94.77s-7.73-2.13-7.9-8.71S114,80,113.32,81.38s1.48,13.2,13,13.39Z" transform="translate(0.01 -0.14)"/><path class="cls-3" d="M42.39,72.65s-2.58,3.69-6.11,2.55S32.23,76.38,32.84,77s7.29,1.69,9.55-4.37Z" transform="translate(0.01 -0.14)"/><path class="cls-3" d="M226.8,95.12s4.74,2.73,3.73,7.11,1.85,4.77,2.56,4,1.29-9-6.29-11.09Z" transform="translate(0.01 -0.14)"/><path class="cls-3" d="M145.62,29.13s4.91,4.71,2.38,9.69.81,6.31,1.9,5.56,4.24-10.46-4.28-15.25Z" transform="translate(0.01 -0.14)"/><path class="cls-3" d="M63.06,95.57s4-4.86,8.74-2.91,5.74-1.23,5-2.18-10-3.09-13.71,5.09Z" transform="translate(0.01 -0.14)"/><path class="cls-3" d="M146.27,152.82s-3.7-3.54-1.8-7.28-.61-4.74-1.43-4.18S139.85,149.23,146.27,152.82Z" transform="translate(0.01 -0.14)"/><path class="cls-3" d="M61.6,98.77S57.79,93,61.42,88.63s.62-6.43-.64-5.94-6.56,9.43.82,16.08Z" transform="translate(0.01 -0.14)"/><path class="cls-3" d="M65.05,96.32s6.86-.38,8.81,4.91,5.22,3.73,5.42,2.41-4.83-10.32-14.23-7.32Z" transform="translate(0.01 -0.14)"/><path class="cls-3" d="M92.64,122.24s-4.29-1-4.53-4.61-2.54-3.24-2.9-2.46,1.1,7.22,7.43,7.07Z" transform="translate(0.01 -0.14)"/><path class="cls-3" d="M38,62.81s1.32-8.59,8.41-9.61,6-5.48,4.42-6.08S36.76,50.38,38,62.81Z" transform="translate(0.01 -0.14)"/><path class="cls-3" d="M29.12,74.1s.4,5.68-4,7.36-3,4.37-1.94,4.52,8.52-4.13,5.91-11.88Z" transform="translate(0.01 -0.14)"/><path class="cls-3" d="M175.43,108.52s1-7.4,1.58-8.84,5.84-.86,3.69,3-4,2-5.27,5.79Z" transform="translate(0.01 -0.14)"/><path class="cls-3" d="M191,94.72s-3.7,6.57-4.77,7.72-5.8-1.36-2.33-4.24S188.45,97.76,191,94.72Z" transform="translate(0.01 -0.14)"/><path class="cls-3" d="M150.46,109.54s-2.14,7-2.92,8.35-5.81-.08-3.11-3.55,4.2-1.36,6-4.8Z" transform="translate(0.01 -0.14)"/><path class="cls-3" d="M166.36,131.66s-8.68-6.5-10.11-8.25,3-8,6.48-2.5-.23,6.49,3.63,10.75Z" transform="translate(0.01 -0.14)"/><path class="cls-3" d="M122.58,139.43s3.48,7.67,3.79,9.39-5.06,4.3-5.35-.72S123.61,143.77,122.58,139.43Z" transform="translate(0.01 -0.14)"/><path class="cls-3" d="M0,62.74s14.26-4.17,17.34-4.3,6.28,9.85-2.56,9.14S7.83,62,0,62.74Z" transform="translate(0.01 -0.14)"/><path class="cls-3" d="M112.6,65.6s11.45-3.91,14-4.13S132,69.26,124.81,69,119,64.73,112.6,65.6Z" transform="translate(0.01 -0.14)"/><path class="cls-3" d="M24.53,94.76s-4,6.79-5.12,8-6-1.53-2.34-4.46S21.77,97.89,24.53,94.76Z" transform="translate(0.01 -0.14)"/><path class="cls-3" d="M206.58,109.81s10.41,4.24,12.3,5.61-.94,8.79-5.84,4.21-1.48-6.56-6.46-9.82Z" transform="translate(0.01 -0.14)"/><path class="cls-3" d="M52.86,75.61S64.48,73.12,67,73.2s4.43,8.23-2.58,7.14-5.21-4.85-11.51-4.73Z" transform="translate(0.01 -0.14)"/><path class="cls-3" d="M33.61,61.58s-5.45,8.17-7,9.55-7.38-2.33-2.6-5.72,5.9-.13,9.56-3.83Z" transform="translate(0.01 -0.14)"/><path class="cls-3" d="M113.92,113.89s-4.32,6.65-5.53,7.78-6-1.82-2.16-4.6,4.77-.16,7.69-3.18Z" transform="translate(0.01 -0.14)"/><path class="cls-3" d="M219.25,50.21s-8.86-.52-10.63-1.06-1.55-6.81,3.28-4.63S214.69,49,219.25,50.21Z" transform="translate(0.01 -0.14)"/><path class="cls-3" d="M173,33.72S161.37,28,159.32,26.3s1.78-10,7-4.36,1.17,7.64,6.63,11.78Z" transform="translate(0.01 -0.14)"/><path class="cls-3" d="M195.83,73.69s9.23,7.64,10.71,9.64-3.78,8.64-7.29,2.41S199.85,78.6,195.83,73.69Z" transform="translate(0.01 -0.14)"/><path class="cls-3" d="M73.48,120.16s4.14-.58,4.75,1.28,4.33,3.16,5.33-.07S77.29,114.56,73.48,120.16Z" transform="translate(0.01 -0.14)"/><path class="cls-3" d="M133.56,60.35s4.21,4.41,2.51,6.72-.08,7.83,4.62,6.28,2.78-13.24-7.13-13Z" transform="translate(0.01 -0.14)"/><path class="cls-3" d="M201.77,162.73s3,3.07,1.85,4.72,0,5.54,3.35,4.39S208.78,162.44,201.77,162.73Z" transform="translate(0.01 -0.14)"/><path class="cls-3" d="M48.3,121s4.05,4.1,2.49,6.31.06,7.41,4.48,5.86S57.67,120.62,48.3,121Z" transform="translate(0.01 -0.14)"/><path class="cls-3" d="M103.76,114.27s2.45-2.44,3.79-1.52,4.45-.06,3.5-2.71-7.57-1.38-7.29,4.23Z" transform="translate(0.01 -0.14)"/><path class="cls-3" d="M138.54,166.45s-1.51-3.8.12-4.81,2-4.84-1.3-5S132.32,164.12,138.54,166.45Z" transform="translate(0.01 -0.14)"/><path class="cls-3" d="M72.42,149.19s3-.2,3.28,1.15,2.89,2.45,3.77.22S75.4,145.44,72.42,149.19Z" transform="translate(0.01 -0.14)"/><path class="cls-3" d="M231.15,123.49s-4.29,3.11-6.09,1.39-6.73-1-5.94,3.25S230.21,132,231.15,123.49Z" transform="translate(0.01 -0.14)"/><path class="cls-3" d="M12.57,48.93s.5,3-.86,3.51-2.24,3.24.16,3.91,4.89-4.73.7-7.42Z" transform="translate(0.01 -0.14)"/><path class="cls-3" d="M177.91,181s5.38-1.78,6.65.57,6.56,3.17,7.12-1.39-10-7.59-13.77.82Z" transform="translate(0.01 -0.14)"/><path class="cls-3" d="M179.14,21.5s-1.53,2.59-2.86,2.1-3.74,1-2.37,3S180.6,26.17,179.14,21.5Z" transform="translate(0.01 -0.14)"/><path class="cls-3" d="M193.08,110.53s-5.4.39-6-2.07-5.32-4.46-6.91-.37S187.66,117.44,193.08,110.53Z" transform="translate(0.01 -0.14)"/><path class="cls-3" d="M118.33,127s3.9,2.19,3.21,4.17,1.64,5.51,4.6,3.4-.92-9.88-7.81-7.57Z" transform="translate(0.01 -0.14)"/><path class="cls-3" d="M189.93,41.79s.69-3,2.17-3,3.37-2.19,1.36-3.75S187,37.63,189.93,41.79Z" transform="translate(0.01 -0.14)"/><path class="cls-3" d="M159.47,186.1s3.12-3.34,4.93-2.17,5.88-.28,4.51-3.73S158.86,178.71,159.47,186.1Z" transform="translate(0.01 -0.14)"/><path class="cls-3" d="M165,74.05s-3,.81-2.9,3.13-1.39,2.88-2.12,1.59S158.55,74,165,74.05Z" transform="translate(0.01 -0.14)"/><path class="cls-3" d="M93.8,148.16s.33,2.32,2.09,2.48,2,1.32,1,1.75-3.75.6-3.09-4.23Z" transform="translate(0.01 -0.14)"/><path class="cls-3" d="M151.52,203.09s2.13-.6,2-2.27,1-2.08,1.51-1.16S156.13,203.08,151.52,203.09Z" transform="translate(0.01 -0.14)"/><path class="cls-3" d="M91.5,67.35s-2.65,3.51-.53,6.06,1,4.45-1,3.63S84.2,72.88,91.5,67.35Z" transform="translate(0.01 -0.14)"/><path class="cls-3" d="M177.56,13.7s.83,2.25,2.64,2,2.34.88,1.38,1.54S178,18.69,177.56,13.7Z" transform="translate(0.01 -0.14)"/><path class="cls-3" d="M215.87,53s1.69,1.43,3,.44,2.27-.34,1.8.61S218.44,56.77,215.87,53Z" transform="translate(0.01 -0.14)"/><path class="cls-3" d="M111.41,6.87s-2.13-1.69-3.75-.43-2.78.52-2.23-.68S108.11,2.27,111.41,6.87Z" transform="translate(0.01 -0.14)"/><path class="cls-3" d="M35.19,100.61s-1.4-2.36-3.38-1.75-2.81-.5-1.87-1.43S33.72,95.09,35.19,100.61Z" transform="translate(0.01 -0.14)"/><path class="cls-3" d="M37.31,105.05s2.36-1.63,1.57-3.65.33-3,1.37-2,2.72,3.76-2.94,5.69Z" transform="translate(0.01 -0.14)"/><path class="cls-3" d="M200,155.32s0,2.94,2.13,3.47,2.29,2,.92,2.35S198.25,161.19,200,155.32Z" transform="translate(0.01 -0.14)"/><path class="cls-3" d="M145.43,109s-4.26,1.72-3.73,5.14-1.55,4.5-2.85,2.72S135.92,110,145.43,109Z" transform="translate(0.01 -0.14)"/><path class="cls-3" d="M105.83,98.66s1.77,4.4,5.32,3.86,4.66,1.6,2.81,3-7.07,3-8.13-6.81Z" transform="translate(0.01 -0.14)"/><path class="cls-3" d="M147.75,118.55s-2.95,3.13-1.15,5.83.45,4.44-1.36,3.43S140.07,123.15,147.75,118.55Z" transform="translate(0.01 -0.14)"/><path class="cls-3" d="M53.89,57.6s2.91-2.7,1.43-5.31-.14-4.11,1.46-3.07S61.26,53.83,53.89,57.6Z" transform="translate(0.01 -0.14)"/><path class="cls-3" d="M92,22.74s-.33,3.54,2.22,4.4,2.55,2.66.86,2.92-5.75-.42-3.08-7.32Z" transform="translate(0.01 -0.14)"/><path class="cls-3" d="M39.15,40.68S42,44.79,38,49.18s1.11,4.65,1.58,2.28,3.66-6.07-.43-10.78Z" transform="translate(0.01 -0.14)"/><path class="cls-3" d="M63.27,89.33s1.65-4.36,7.15-3.6,3-3.32.91-2.42S64.73,83.71,63.27,89.33Z" transform="translate(0.01 -0.14)"/><path class="cls-3" d="M171.78,123.66s-2.43-4.63,2.3-8.66-.56-5-1.34-2.57-4.59,5.82-1,11.23Z" transform="translate(0.01 -0.14)"/><path class="cls-3" d="M204.71,116s3.74,2.49,1.83,7.48,2.47,3.52,2.07,1.38,1.07-6.27-3.9-8.86Z" transform="translate(0.01 -0.14)"/><path class="cls-3" d="M94.91,133.05s1.49,3.92-2.66,6.67,0,4,.83,2.17S97.28,137.71,94.91,133.05Z" transform="translate(0.01 -0.14)"/><path class="cls-3" d="M146.83,114.48s5.5,2.81,3.69,9.9,3.91,4.41,3,1.56.46-8.71-6.73-11.46Z" transform="translate(0.01 -0.14)"/><path class="cls-3" d="M78.35,38.37s3.05-4.45,9-2.11,4.27-2.92,1.69-2.47S81.53,32.44,78.35,38.37Z" transform="translate(0.01 -0.14)"/><path class="cls-3" d="M226,85.14s-.47-4.57,4.71-6.32,1.17-4.23-.26-2.53-5.64,3.25-4.45,8.85Z" transform="translate(0.01 -0.14)"/><path class="cls-3" d="M26.59,36.79S33.51,35,37.41,42.53s6.78.81,3.83-1S34.93,33.66,26.59,36.79Z" transform="translate(0.01 -0.14)"/><path class="cls-3" d="M93.28,95.87s-4,4.25-10,.79-5,2.41-2.2,2.35S88.94,101.67,93.28,95.87Z" transform="translate(0.01 -0.14)"/><path class="cls-3" d="M54.77,133.08s6.09.72,6.85,7.95,5.17,2.76,3.37.41-2.58-8.27-10.22-8.36Z" transform="translate(0.01 -0.14)"/><path class="cls-3" d="M147.34,129.39s-2.57,7.74-12.23,6.8-5,6-1.43,4.28S145.18,139.32,147.34,129.39Z" transform="translate(0.01 -0.14)"/><path class="cls-3" d="M228.48,86.23s7.11,1,7.78,9.53,6,3.39,3.93.59-2.77-9.78-11.71-10.12Z" transform="translate(0.01 -0.14)"/><path class="cls-3" d="M132.83,85.66s-3.11,2.73-7.1-.15S122,86.86,124,87,129.34,89.46,132.83,85.66Z" transform="translate(0.01 -0.14)"/><path class="cls-3" d="M122.15,156.09s6.34,2,5.63,9.93,4.94,4,3.52,1.15-1-9.38-9.15-11.08Z" transform="translate(0.01 -0.14)"/><path class="cls-3" d="M153,73.58c-.08-.22,2,10.38-2,13.3s-6.14,5.4-4.15,8.43,12.07,2.62,11.4-6.51S153.8,75.69,153,73.58Z" transform="translate(0.01 -0.14)"/><path class="cls-3" d="M65.31,62.73c.2-.07-9.1,1.55-11.57-2s-4.58-5.46-7.27-3.8S43.92,67.39,51.91,67s11.55-3.67,13.4-4.28Z" transform="translate(0.01 -0.14)"/><path class="cls-3" d="M160.85,162c.18.2-6.52-10.23-3.49-15s4.3-8.32.91-10.73-14,2.25-9.45,11.71,10.34,12.11,12,14Z" transform="translate(0.01 -0.14)"/><path class="cls-3" d="M129.35,117.35c-.14-.11,5.45,5.4,4.25,8.77s-1.49,5.74.94,6.76,8.32-3.34,4.2-8.55-8.08-6-9.39-7Z" transform="translate(0.01 -0.14)"/><path class="cls-3" d="M126.73.14c-.13-.11,4.79,6,3.19,9.23s-2.15,5.53.15,6.82,8.65-2.34,5.17-8-7.32-6.94-8.51-8Z" transform="translate(0.01 -0.14)"/><path class="cls-3" d="M35.67,36.22c-.21.15,10.62-5,14.88-1.56s7.51,5.11,10.23,2.14-.51-13.69-10.16-10.46-12.88,8.49-14.95,9.88Z" transform="translate(0.01 -0.14)"/><path class="cls-3" d="M56.52,101.24c-.08-.17,2.2,7.9-.71,10.4s-4.43,4.54-2.71,6.77,9.49,1.29,8.43-5.73-4.3-9.86-5-11.44Z" transform="translate(0.01 -0.14)"/><path class="cls-3" d="M229.92,111.36c.2.2-7.45-10.27-4.58-15.46s4-9,.27-11.27-14.46,3.23-9.13,12.83,11.56,12,13.44,13.9Z" transform="translate(0.01 -0.14)"/><path class="cls-3" d="M120.15,42.88c0-.27-3.39,11.62-9,12.5s-9.09,2.26-8.67,6.39,10.91,9,15-.64,2.28-15.71,2.62-18.25Z" transform="translate(0.01 -0.14)"/><path class="cls-3" d="M141.44,113.94c.25.08-10.7-5.3-10.58-10.87s-.63-9.19-4.71-9.5-10.63,9-2,14.66,14.87,4.94,17.28,5.71Z" transform="translate(0.01 -0.14)"/><path class="cls-3" d="M196.46,84.59c-.14-.23,4.54,11.36.64,15.54s-5.83,7.45-2.92,10.48,14.29.39,11.57-9.85-8-13.93-9.29-16.17Z" transform="translate(0.01 -0.14)"/><path class="cls-3" d="M190.77,94c.17,0-7.58-.93-8.69-4.31s-2.32-5.42-4.85-4.74-4.5,7.67,1.91,9.26S189.16,94,190.77,94Z" transform="translate(0.01 -0.14)"/><path class="cls-3" d="M98.14,12c-.26,0,11.15,3.38,11.93,8.76s2.09,8.74,6.07,8.38,8.77-10.36-.46-14.42S100.58,12.37,98.14,12Z" transform="translate(0.01 -0.14)"/><path class="cls-3" d="M180.74,96.12c.23.07-9.64-4.62-9.6-9.61s-.66-8.23-4.32-8.46-9.41,8.18-1.61,13.15,13.37,4.26,15.53,4.93Z" transform="translate(0.01 -0.14)"/><path class="cls-3" d="M174,43.17c0,.13-1.28-5.91,1-7.63s3.45-3.16,2.28-4.87-6.94-1.36-6.45,3.86S173.56,42,174,43.17Z" transform="translate(0.01 -0.14)"/></g></g></g></svg>