<svg xmlns="http://www.w3.org/2000/svg" xmlns:xlink="http://www.w3.org/1999/xlink" viewBox="0 0 310.11 298.25"><defs><style>.cls-1{fill:none;}.cls-2{clip-path:url(#clip-path);}.cls-3{fill:#fefdef;}.cls-4{fill:#002f54;}</style><clipPath id="clip-path" transform="translate(-0.12 0)"><rect class="cls-1" width="310.35" height="298.37"/></clipPath></defs><g id="Layer_2" data-name="Layer 2"><g id="Layer_1-2" data-name="Layer 1"><g class="cls-2"><path class="cls-3" d="M120.36,162h.15a8.18,8.18,0,0,0,5.11-1.87l-6,1.81C119.89,162,120.12,162,120.36,162Z" transform="translate(-0.12 0)"/><path class="cls-4" d="M24.59,239.72H81.26v27.54H22Q23.65,253.52,24.59,239.72ZM1.26,296.78H17.74c1.19-6.87,2.22-13.76,3.15-20.66H81.26v20.66H97.49V239.72h3.44V223.49H25.49a559.43,559.43,0,0,0-9.43-127l-15.94,3A543.5,543.5,0,0,1,1.26,296.78Z" transform="translate(-0.12 0)"/><path class="cls-4" d="M163.18,8.73c2.17,0,3.36-.69,3.56-2.06a2.14,2.14,0,0,1,1-1.22,6.3,6.3,0,0,1,3.38-.63,5.67,5.67,0,0,1,1.71.28,2.71,2.71,0,0,1,1.16.61,5,5,0,0,1,.66,1.68A8.67,8.67,0,0,1,175,9.52a5.08,5.08,0,0,1-.56,2.24,2.89,2.89,0,0,1-1.36,1.48L170,14.46c-2,.78-3.31,1.35-4,1.72a13.65,13.65,0,0,0-2.32,1.61c-.94,1.92-1.52,3.18-1.74,3.81a5.79,5.79,0,0,0-.34,2,5.25,5.25,0,0,0,.37,2q.38.93,1,.93a5.11,5.11,0,0,0,2.82-.58,2.64,2.64,0,0,0,1.06-1.78,24.28,24.28,0,0,1,1.09-3.88q5.81-2,7.65-2.88a8,8,0,0,0,3.24-3.05,10.43,10.43,0,0,0,1.38-5.64v0a11.69,11.69,0,0,0-.73-4.57A9.06,9.06,0,0,0,176.24,1,6.59,6.59,0,0,0,172.13,0c-.9,0-1.79.06-2.69.07a7.2,7.2,0,0,0-3.65,1.11h0a11.71,11.71,0,0,0-3.41,2.7,4.6,4.6,0,0,0-1.35,2.8Q161.05,8.73,163.18,8.73Z" transform="translate(-0.12 0)"/><path class="cls-4" d="M162.09,36.18a5.63,5.63,0,0,0,3-1,2.94,2.94,0,0,0,1.6-2.46c0-1.22-.7-1.88-2.1-2a3.61,3.61,0,0,0-1.87-.78,2.61,2.61,0,0,0-1.67.48c-.14.12-.32.26-.55.42-1.24.85-1.85,1.62-1.85,2.33a2.71,2.71,0,0,0,1,2.15A3.63,3.63,0,0,0,162.09,36.18Z" transform="translate(-0.12 0)"/><path class="cls-4" d="M139.47,24.57c1.33-.84,1.79-1.72,1.39-2.64a1.57,1.57,0,0,1,.14-1.14,4.59,4.59,0,0,1,1.83-1.7A4.07,4.07,0,0,1,144,18.6a1.94,1.94,0,0,1,1-.07,3.38,3.38,0,0,1,1,.77A6.29,6.29,0,0,1,147,20.46a3.89,3.89,0,0,1,.53,1.59,2.13,2.13,0,0,1-.27,1.44l-1.43,2c-.91,1.23-1.51,2.1-1.8,2.6a10.15,10.15,0,0,0-.79,1.89c.16,1.54.3,2.54.4,3a4.52,4.52,0,0,0,.58,1.37,3.78,3.78,0,0,0,1,1c.4.29.72.35,1,.18a3.64,3.64,0,0,0,1.5-1.45,1.91,1.91,0,0,0,0-1.5,19.24,19.24,0,0,1-.84-2.8q2.78-3.48,3.58-4.73a5.78,5.78,0,0,0,.8-3.12,7.55,7.55,0,0,0-1.34-4h0a8.24,8.24,0,0,0-2.22-2.52,6.49,6.49,0,0,0-3.19-.68,4.79,4.79,0,0,0-2.89,1c-.53.37-1.07.73-1.61,1.08a5.37,5.37,0,0,0-1.81,2.1h0a8.35,8.35,0,0,0-1,3,3.42,3.42,0,0,0,.26,2.25A1.33,1.33,0,0,0,139.47,24.57Z" transform="translate(-0.12 0)"/><path class="cls-4" d="M148.85,37.49a2.58,2.58,0,0,0-1.45.25,1.84,1.84,0,0,0-.83.94c0,.13-.1.28-.18.47-.43,1-.5,1.71-.23,2.14a2,2,0,0,0,1.44.94,2.65,2.65,0,0,0,1.84-.43A4.1,4.1,0,0,0,150.87,40a2.13,2.13,0,0,0,0-2.13C150.43,37.13,149.75,37,148.85,37.49Z" transform="translate(-0.12 0)"/><path class="cls-4" d="M168.22,121.74l-11-17.43-5.12,3.23,10,15.95,4.92-1.49A10.88,10.88,0,0,1,168.22,121.74Z" transform="translate(-0.12 0)"/><path class="cls-4" d="M175.64,144.89l.77,1.22,5.12-3.22-1.13-1.8A12.21,12.21,0,0,1,175.64,144.89Z" transform="translate(-0.12 0)"/><polygon class="cls-4" points="186.13 156.06 182.81 145.11 177.69 148.33 186.13 156.06"/><rect class="cls-4" x="147.9" y="156.71" width="67.37" height="3.69"/><path class="cls-4" d="M201.13,83.28a49.27,49.27,0,1,1,49.27,49.28A49.27,49.27,0,0,1,201.13,83.28Zm16.55,43.9a57.89,57.89,0,1,0-9.24-8.74L193.2,145.87Z" transform="translate(-0.12 0)"/><path class="cls-4" d="M52.87,211.35A13.92,13.92,0,0,0,62,214.74h1.49c4.79,1,8.72,1.26,11.92,0h44.45l-5.35,68.4a14,14,0,0,0,6.17,12.72v.05h.07a13.85,13.85,0,0,0,6.64,2.29c.37,0,.74.05,1.11.05a14,14,0,0,0,14-12.93L149,201.81a14,14,0,0,0-14-15.11h-.56v-6.87H242.2V295.91H256V179.83h15.12V164.58H105.54v15.25h15.13v6.87H84.84c-.92-25.75,3.09-37,8.2-45L76.12,118.25a12.26,12.26,0,0,1,2.78-17.09,12.12,12.12,0,0,1,7.15-2.32A12.29,12.29,0,0,1,96,103.93l23.41,32.5,13.75-4.16,4.4-23.87a8.82,8.82,0,0,0,.12-1.14,27.9,27.9,0,0,1-18,.34l-.11.62-.16-.7c-.65-.21-1.29-.44-1.93-.7-8.35-3.38-15-10.44-18.7-19.3-17.59-6.77-33.51,2.26-44.19,19-16.17,25.75-16.11,42.46-18,74.15C35.81,198.39,43.54,207,52.87,211.35Z" transform="translate(-0.12 0)"/><path class="cls-4" d="M143.72,70.76a5.41,5.41,0,1,1-5.41,5.41A5.41,5.41,0,0,1,143.72,70.76Zm-13.53,34.69c15.67-1.27,27.16-17.12,25.68-35.4S140.48,38,124.81,39.27,97.65,56.38,99.13,74.66,114.52,106.72,130.19,105.45Z" transform="translate(-0.12 0)"/><path class="cls-4" d="M93.24,105.92a8.85,8.85,0,1,0-14.36,10.35l28.52,39.59a8.85,8.85,0,0,0,7.18,3.68,8.68,8.68,0,0,0,2.56-.38l56.07-17a8.85,8.85,0,1,0-5.13-17l-50,15.14Z" transform="translate(-0.12 0)"/></g></g></g></svg>