<svg xmlns="http://www.w3.org/2000/svg" xmlns:xlink="http://www.w3.org/1999/xlink" viewBox="0 0 462.03 186.57"><defs><style>.cls-1{fill:none;}.cls-2{clip-path:url(#clip-path);}.cls-3{fill:#2cdc7f;}.cls-4{clip-path:url(#clip-path-2);}.cls-5{fill:#002f54;}</style><clipPath id="clip-path" transform="translate(0 -0.09)"><rect class="cls-1" width="462" height="186.75"/></clipPath><clipPath id="clip-path-2" transform="translate(0 -0.09)"><rect class="cls-1" x="2.51" y="2.6" width="459.49" height="184.06"/></clipPath></defs><g id="Layer_2" data-name="Layer 2"><g id="Layer_1-2" data-name="Layer 1"><g class="cls-2"><path class="cls-3" d="M58.71,141.12H43.86c-16.2,0-29.45-13.75-29.45-30.56V69.47a2.46,2.46,0,0,1,0-4.87V33.16C14.41,16.35,27.66,2.6,43.86,2.6H58.71c16.2,0,29.46,13.75,29.46,30.56V64.61a2.47,2.47,0,0,1,0,4.86v41.09c0,16.81-13.26,30.56-29.46,30.56" transform="translate(0 -0.09)"/><path class="cls-3" d="M180.58,129.88a8.13,8.13,0,0,0-7.06,3.26q-2.42,3.31-2.41,10.59c0,5.11.71,8.73,2.14,10.94s3.75,3.26,7.06,3.26h.09a7.82,7.82,0,0,0,6.79-3.35c1.52-2.21,2.23-5.91,2.23-11.12,0-4.94-.71-8.47-2.14-10.5s-3.66-3.08-6.7-3.08m-.8,37.93h-.1c-15.09,0-22.69-7.94-22.69-23.82,0-7.5,2.06-13.41,6.08-17.73s10-6.35,18-6.35c7.78,0,13.49,2,17.07,6.17s5.36,9.79,5.36,16.94c0,7.85-2,13.94-5.81,18.26s-9.83,6.53-17.86,6.53" transform="translate(0 -0.09)"/><path class="cls-3" d="M233.11,130.41c-6.25,0-9.38,4.58-9.38,13.85,0,8.73,3,13.05,8.93,13.05a11.6,11.6,0,0,0,8.05-3.26l-.1-21.09a13.05,13.05,0,0,0-7.5-2.55M228,167.81q-8.58,0-13.41-5.56t-4.82-17.46c0-8.56,1.88-14.91,5.72-18.88a18.48,18.48,0,0,1,13.93-6.09c5.1,0,9,1.32,11.8,3.88V100.14h13l-.09,66.61H242.85l-.8-4.5-.27-.08c-3.49,3.79-8,5.64-13.76,5.64" transform="translate(0 -0.09)"/><path class="cls-3" d="M284,168.16q-11.25,0-16.88-6.35c-3.76-4.23-5.63-9.88-5.63-17q0-11.79,6.16-18.27c4.11-4.32,10-6.44,17.61-6.44,5.62,0,10.18,1.5,13.58,4.5s5.36,7.32,5.81,12.79l-12.07,1.77c-.27-3.09-1-5.38-2.14-6.79s-3-2.12-5.45-2.12a9,9,0,0,0-7,2.82c-1.7,1.86-2.51,5.21-2.51,10.24s.81,8.73,2.33,10.94,3.75,3.26,6.88,3.26a8.09,8.09,0,0,0,5.9-2q2-2,2.68-6.35l11.35,2.12c-.81,5.55-3.13,9.7-6.8,12.44a23.89,23.89,0,0,1-14.2,4.14l.35.35" transform="translate(0 -0.09)"/><path class="cls-3" d="M334.33,147.26a19,19,0,0,0-8.22,1.5,4.68,4.68,0,0,0-2.86,4.58c0,3.35,1.79,5,5.45,5a10.59,10.59,0,0,0,7.78-3v-8.11h-2.15m-10.81,20.55a19.47,19.47,0,0,1-7.06-1.23,9.14,9.14,0,0,1-4.29-3.18,12.78,12.78,0,0,1-1.87-3.88,14,14,0,0,1-.54-3.88c0-10.68,8.67-16.06,26-16.06h.72v-1.67c0-2.92-.45-5-1.25-6.36s-2.59-2-5.37-2c-2.23,0-3.84.44-4.82,1.42a9.41,9.41,0,0,0-2.14,4.85l-11.44-2.21c1.52-9.17,8-13.76,19.66-13.76,6.34,0,11,1.32,14.11,3.88s4.65,6.71,4.56,12.35l-.18,19.23a5,5,0,0,0,.54,2.74c.35.53,1.07.79,2.23.79a10.23,10.23,0,0,0,2.77-.53l.36,7.68a20.32,20.32,0,0,1-8.58,1.76c-5.45,0-8.66-1.94-9.56-5.82-3,4-7.68,5.91-13.85,5.91" transform="translate(0 -0.09)"/><path class="cls-3" d="M378.46,167.81c-5.8,0-10.36-1.14-13.67-3.35a14.06,14.06,0,0,1-6.16-9.26l11-3.53a10.72,10.72,0,0,0,2.95,5.11c1.34,1.24,3.39,1.86,6.34,1.86,4.47,0,6.7-1.42,6.7-4.32a3.1,3.1,0,0,0-1.87-3.18,35.4,35.4,0,0,0-6.79-1.77,58.41,58.41,0,0,1-6.17-1.32,25.26,25.26,0,0,1-5.09-2.2,9.65,9.65,0,0,1-4.11-4.33,15.27,15.27,0,0,1-1.34-6.7c0-4.86,1.87-8.56,5.54-11.12s8.31-3.88,13.85-3.88l-.27.09c9.92,0,16.17,4.06,18.58,12.17l-11.07,3.44a10.16,10.16,0,0,0-2.69-4.76,7.63,7.63,0,0,0-5.27-1.59c-3.93,0-5.89,1.32-5.89,4.06a3.21,3.21,0,0,0,2.14,3.17,36.7,36.7,0,0,0,7.24,1.86,58.14,58.14,0,0,1,6.16,1.32,21.83,21.83,0,0,1,5,2.12,9.92,9.92,0,0,1,4,4.05,14.55,14.55,0,0,1,1.34,6.54c0,5-1.88,8.91-5.72,11.55s-8.76,4-14.75,4" transform="translate(0 -0.09)"/><path class="cls-3" d="M423.76,167.9c-4.82,0-8.49-1.23-11.08-3.62s-3.75-6.17-3.75-11.38V130.49h-7v-9.7h7V107.2l13.49-1.76v15.35h12.33v9.7H422.42v20.56c0,2.2.36,3.7,1.16,4.68s2.24,1.49,4.29,1.49a15.19,15.19,0,0,0,7.78-2.11l1.69,9.53a21.63,21.63,0,0,1-5.72,2.2,28.48,28.48,0,0,1-7.86,1.06" transform="translate(0 -0.09)"/></g><g class="cls-4"><path class="cls-3" d="M128.4,130.41a13.22,13.22,0,0,0-8.66,3.52l-.18,19.94a15.51,15.51,0,0,0,3.57,2.12,11.55,11.55,0,0,0,4.65,1.06c5.8,0,8.75-4.68,8.75-14,0-4.59-.62-7.85-2-9.7a7,7,0,0,0-6.17-2.91m-40,56.25H14.13a2.07,2.07,0,0,1-1.84-2.24v-3.36A12.71,12.71,0,0,1,25,168.44H48V152.75H39.76c-20.54,0-37.25-17.33-37.25-38.64V64.58H9a2.46,2.46,0,0,1,0,4.91v44.62C9,131.71,22.8,146,39.76,146h23c17,0,30.75-14.31,30.75-31.91V69.5h0a2.46,2.46,0,0,1,0-4.92h30.44l4.41-5.84a1.36,1.36,0,0,1,1.08-.61,1.12,1.12,0,0,1,.47.11A2.09,2.09,0,0,1,131,59.91l1.15,8,.87-7.17c.12-1,.75-1.81,1.5-1.84h0c.74,0,1.39.7,1.56,1.71l1.08,6.65,2.42-9.49c.23-.88.81-1.47,1.47-1.47h.14a1.91,1.91,0,0,1,1.42,1.79l1.7,12.56,3.55-14.59c.22-.9.82-1.5,1.49-1.5h.11a1.9,1.9,0,0,1,1.43,1.81l2.06,15.79L155.2,59.8c.17-1,.78-1.64,1.48-1.66h0c.69,0,1.31.6,1.52,1.54l1.75,7.7,2.44-15.51c.16-1,.78-1.72,1.51-1.74H164c.7,0,1.31.7,1.49,1.66l3.25,17.83,2.36-10c.22-.91.82-1.52,1.5-1.52h0a1.76,1.76,0,0,1,1.48,1.59l2.34,11,4.31-26.68c.17-1,.83-1.72,1.55-1.72h0c.74,0,1.38.79,1.5,1.83l3.75,30.19,2.68-17.17c.16-1,.8-1.73,1.54-1.73h.07a1.92,1.92,0,0,1,1.49,1.92L195,75.49l2.83-13.39a1.81,1.81,0,0,1,1.36-1.57h.15a1.59,1.59,0,0,1,1.39,1.2l2.35,6.46,3-21c.15-1,.82-1.78,1.57-1.78h0c.77,0,1.41.86,1.5,1.94l2.09,23.2,1.85-14a1.91,1.91,0,0,1,1.44-1.8h.11c.67,0,1.27.59,1.49,1.49l2.41,9.89,2.48-20.08c.13-1,.75-1.83,1.53-1.83h0c.77,0,1.42.83,1.53,1.91l2.66,27,1.62-16.48a2,2,0,0,1,1.43-1.91H230c.68,0,1.29.62,1.5,1.55l2.65,12,1.51-20.32c.08-1.14.75-2,1.55-2h.05c.82,0,1.49.95,1.53,2.1l.24,6.66,1.73-28.79c.07-1.15.75-2,1.57-2h0c.82,0,1.5.89,1.57,2l2.33,41.41,1.93-26.74c.08-1.11.73-2,1.52-2h0c.77,0,1.45.77,1.57,1.86L253.77,62l2.51-28.13c.1-1.09.75-1.94,1.52-1.94h.07c.8,0,1.46.89,1.54,2l2.26,34.78,2.18-28.33c.09-1.12.75-2,1.55-2h0c.77,0,1.43.83,1.53,1.93l2.43,25.89,2.38-43.94c.06-1.15.74-2,1.56-2h0c.82,0,1.5.89,1.57,2l2.43,41.51,2.38-35.2c.08-1.15.76-2,1.59-2s1.49.91,1.55,2.06L285,73.05l2.44-29.47c.09-1.11.76-1.95,1.55-2h0c.79,0,1.46.83,1.56,1.93l2.41,26,2.06-15.73c.14-1.06.81-1.81,1.55-1.81h0c.77,0,1.42.81,1.53,1.89L300,71.79l2.39-39.53c.07-1.13.73-2,1.53-2h0c.79,0,1.45.83,1.55,1.94l2.94,32.29,2.41-23.53c.11-1.11.79-1.9,1.57-1.9h0c.8,0,1.45.91,1.52,2l1.78,30.22,2.48-42.62c.07-1.15.75-2,1.57-2s1.5.89,1.57,2l1.51,27,.64-16c0-1.17.73-2.09,1.56-2.09h0c.83,0,1.52.9,1.57,2.07l1.1,24.11,2.55-10.14c.22-.89.81-1.48,1.48-1.48H332a2,2,0,0,1,1.4,1.91c.58,6.16,1.29,13.64,1.94,20.43.68-11.93,1.51-27.22,2.15-39.19.07-1.13.72-2,1.52-2.05h.06c.78,0,1.43.8,1.55,1.89l2.92,27.66,2.14-8.73c.22-.91.83-1.5,1.49-1.5h.13a1.93,1.93,0,0,1,1.42,1.85l1.74,15,2.19-31.71c.08-1.11.73-2,1.53-2h0c.79,0,1.44.81,1.55,1.91L358.51,65l1.95-8.47c.21-.91.82-1.54,1.48-1.54H362c.7,0,1.29.71,1.47,1.66l2.43,13.43,2.24-22.7c.11-1.1.77-1.91,1.55-1.91h0c.79,0,1.45.82,1.55,1.92l2.64,27.69L380,42.55c.18-1,.82-1.65,1.53-1.65h.06c.74,0,1.36.81,1.48,1.85L386,67.58l1.94-9.51c.2-.94.82-1.59,1.51-1.59s1.32.65,1.51,1.59l2.33,11.19,1.65-17.35A1.93,1.93,0,0,1,396.39,50h.08c.73,0,1.36.68,1.54,1.67l3.25,18.18,1.81-9.69c.17-.95.77-1.63,1.47-1.65h0A1.75,1.75,0,0,1,406.08,60l2.73,12,2.33-21.29c.11-1.05.73-1.83,1.49-1.87h.07c.73,0,1.35.71,1.52,1.7l2.85,16.72L419.26,54c.17-1,.79-1.7,1.52-1.71h0c.72,0,1.35.69,1.53,1.67l3.1,17.35,1.63-6.85c.22-.9.82-1.5,1.5-1.5H452.3V12.55L86.55,12.48C83,8.42,82.61,6.74,77.41,2.81H462V185.49h-344v0H106.42V120.79h11.44l.81,4.67c3.84-3.79,8.66-5.64,14.56-5.64,5.36,0,9.65,1.85,12.78,5.47s4.73,9.44,4.73,17.47c0,8.55-1.79,14.82-5.27,19a17.14,17.14,0,0,1-13.67,6.09,18,18,0,0,1-12.33-4.41v12.34H452.3V67.4H429.67l-3,12.47c-.22.9-.82,1.51-1.48,1.51h-.07a1.82,1.82,0,0,1-1.47-1.67l-2.82-15.8-2.23,13.45c-.16,1-.79,1.71-1.52,1.72h0c-.72,0-1.35-.71-1.52-1.7L413,62.5,410.89,82a1.92,1.92,0,0,1-1.42,1.87h-.14c-.67,0-1.27-.62-1.49-1.53l-3.1-13.66-2,10.65c-.18,1-.81,1.66-1.52,1.66h0c-.71,0-1.34-.69-1.52-1.67L397,63.88l-1.55,16.3A2,2,0,0,1,394,82.1h-.12c-.7,0-1.31-.64-1.51-1.59l-2.89-13.89-2.37,11.57c-.19,1-.82,1.61-1.52,1.61h-.08A1.9,1.9,0,0,1,384,77.94L381.16,53.7l-6.24,33.39c-.18,1-.81,1.65-1.51,1.65h-.1a1.91,1.91,0,0,1-1.46-1.91l-2.17-22.74-1.76,17.85a1.93,1.93,0,0,1-1.47,1.9h-.09c-.72,0-1.35-.68-1.53-1.67l-3.06-16.94-2.37,10.3c-.21.92-.82,1.54-1.5,1.54h-.13a2,2,0,0,1-1.43-1.9l-1.85-18.5-2.07,30.09c-.08,1.1-.72,2-1.51,2h-.07c-.77,0-1.41-.79-1.54-1.86l-2.69-23.06-2.19,9c-.23.9-.82,1.5-1.49,1.5h-.15a2,2,0,0,1-1.41-1.88l-1.81-17.19c-.18,3.11-.36,6.38-.54,9.66-.4,7.32-.82,14.64-1.14,20.13-.16,2.76-.3,5-.41,6.66-.2,3.17-.26,4.13-1.41,4.49a1.12,1.12,0,0,1-.35.06,1.59,1.59,0,0,1-1.37-1.12c-.19-.46-.31-.76-3.21-31.35L328.2,75.44a1.71,1.71,0,0,1-1.48,1.47.86.86,0,0,1-.22,0,1.77,1.77,0,0,1-1.21-1.27l-.52,13.19c0,1.16-.73,2.08-1.55,2.09h0c-.82,0-1.5-.89-1.57-2l-1.81-32.43-2.46,41.95c-.06,1.15-.74,2-1.56,2s-1.5-.89-1.57-2L312,60.91,310,81.22c-.11,1.09-.77,1.89-1.55,1.89h0c-.79,0-1.45-.83-1.55-1.93l-2.53-27.82L302,91c-.07,1.12-.72,2-1.52,2h0c-.77,0-1.44-.8-1.55-1.89l-2.49-23.49-2.16,16.5c-.14,1.06-.81,1.82-1.56,1.82h0c-.77,0-1.42-.85-1.52-1.93L289.11,61.9l-2.93,35.4c-.09,1.1-.74,2-1.52,2h-.08c-.81,0-1.48-.92-1.53-2.06l-2-41.31L278.78,89c-.07,1.14-.75,2-1.56,2h0c-.82,0-1.49-.89-1.56-2L273.4,50.53l-2,37.31c-.07,1.13-.72,2-1.53,2h0c-.79,0-1.47-.82-1.57-1.92l-2.69-28.75-2.47,32c-.09,1.13-.76,2-1.56,2h0c-.81,0-1.48-.88-1.55-2L257.6,54.66l-2.07,23.2c-.1,1.09-.76,1.92-1.54,1.94h0c-.76,0-1.42-.79-1.55-1.86l-2.32-20.2L247.6,92.08c-.08,1.12-.75,2-1.54,2h0c-.81,0-1.48-.9-1.55-2l-2.19-38.85-2.07,34.54c-.07,1.15-.76,2-1.57,2h0c-.83,0-1.5-.94-1.54-2.1l-.39-10.71-.18,2.47a2,2,0,0,1-1.4,2h-.16c-.68,0-1.29-.62-1.5-1.55L230.6,67.06l-2.21,22.51c-.11,1.09-.77,1.9-1.55,1.91s-1.45-.82-1.56-1.91l-2.84-28.81-1.81,14.61a1.9,1.9,0,0,1-1.42,1.82h-.13c-.66,0-1.26-.6-1.48-1.49l-2.47-10.1-2.6,19.59c-.14,1-.8,1.8-1.55,1.8h0c-.77,0-1.41-.85-1.51-1.93l-2.13-23.75-2,14A1.94,1.94,0,0,1,204,77l-.21,0a1.6,1.6,0,0,1-1.4-1.21l-2.62-7.19-3.81,18.06c-.2.94-.82,1.58-1.51,1.58h-.12a2,2,0,0,1-1.44-1.92l-1.48-15.9-2.47,15.8c-.16,1-.78,1.74-1.51,1.74h-.06a1.87,1.87,0,0,1-1.51-1.84L182.06,55.8,178.16,80a1.83,1.83,0,0,1-1.48,1.72h0c-.7,0-1.32-.63-1.52-1.58l-2.63-12.4L170,78.14c-.22.91-.83,1.51-1.51,1.51h0A1.8,1.8,0,0,1,167,78l-2.94-16.13-2.28,14.47a1.83,1.83,0,0,1-1.46,1.73h0a1.74,1.74,0,0,1-1.52-1.53l-1.87-8.2L154.19,83c-.18,1-.82,1.66-1.54,1.66h0c-.74,0-1.36-.79-1.49-1.82l-2.27-17.33L145.35,80c-.22.9-.81,1.5-1.48,1.5h-.12a1.89,1.89,0,0,1-1.43-1.79l-1.74-12.81-2.28,9c-.23.88-.82,1.46-1.48,1.46h-.1a1.87,1.87,0,0,1-1.44-1.71l-.52-3.23-1,8c-.12,1.06-.76,1.83-1.52,1.85h0c-.74,0-1.39-.74-1.53-1.78l-2.27-15.78-2.8,3.71a1.37,1.37,0,0,1-1.08.61H100v45.1c0,21.31-16.71,38.64-37.24,38.64H54.53v15.69h23a12.71,12.71,0,0,1,12.73,12.62v3.36a2.07,2.07,0,0,1-1.84,2.24" transform="translate(0 -0.09)"/></g><g class="cls-2"><path class="cls-5" d="M11.9,67V108c0,16.81,13.25,30.56,29.45,30.56H56.2c16.2,0,29.45-13.75,29.45-30.56V67a2.46,2.46,0,0,0,0-4.85V30.65C85.65,13.84,72.4.09,56.2.09H41.35C25.15.09,11.9,13.84,11.9,30.65V62.09a2.46,2.46,0,0,0,0,4.87" transform="translate(0 -0.09)"/><path class="cls-5" d="M177.27,165.3c8,0,14-2.21,17.86-6.53s5.81-10.41,5.81-18.26q0-10.72-5.36-16.94c-3.58-4.15-9.29-6.18-17.07-6.18q-11.92,0-17.95,6.36c-4,4.32-6.08,10.23-6.08,17.73,0,15.88,7.6,23.82,22.69,23.82h.1m-6.53-13.15c-1.43-2.2-2.14-5.82-2.14-10.94q0-7.28,2.41-10.59a8.13,8.13,0,0,1,7.06-3.26c3,0,5.27,1.06,6.7,3.09s2.14,5.56,2.14,10.5c0,5.2-.71,8.91-2.23,11.12a7.82,7.82,0,0,1-6.79,3.35h-.09C174.49,155.42,172.17,154.36,170.74,152.15Z" transform="translate(0 -0.09)"/><path class="cls-5" d="M225.51,165.3c5.71,0,10.27-1.85,13.76-5.65l.27.09.8,4.5H251.6l.09-66.61h-13v23.56c-2.77-2.56-6.7-3.88-11.8-3.88A18.47,18.47,0,0,0,213,123.39c-3.84,4-5.72,10.32-5.72,18.88q0,11.91,4.82,17.47t13.41,5.56m5.09-37.41a13,13,0,0,1,7.5,2.56l.1,21.09a11.65,11.65,0,0,1-8,3.26c-6,0-8.93-4.32-8.93-13.05C221.22,132.48,224.35,127.89,230.6,127.89Z" transform="translate(0 -0.09)"/><path class="cls-5" d="M282.51,127.72c2.41,0,4.29.7,5.45,2.11s1.87,3.71,2.14,6.8l12.07-1.77c-.45-5.47-2.33-9.7-5.81-12.79s-8-4.5-13.59-4.5c-7.59,0-13.49,2.12-17.6,6.44S259,134.42,259,142.27c0,7.15,1.87,12.79,5.63,17s9.38,6.35,16.88,6.35l-.35-.35a23.83,23.83,0,0,0,14.2-4.15c3.67-2.73,6-6.88,6.8-12.44l-11.35-2.11c-.45,2.9-1.34,5-2.68,6.35a8.09,8.09,0,0,1-5.9,2c-3.13,0-5.36-1.06-6.88-3.27S273,145.8,273,140.77s.81-8.38,2.51-10.23a9,9,0,0,1,7-2.82" transform="translate(0 -0.09)"/><path class="cls-5" d="M333.25,137.07c-17.33,0-26,5.38-26,16.05a14,14,0,0,0,.54,3.89,12.89,12.89,0,0,0,1.87,3.88,9.13,9.13,0,0,0,4.29,3.17A19.25,19.25,0,0,0,321,165.3c6.17,0,10.81-1.94,13.85-5.91.89,3.88,4.11,5.82,9.56,5.82a20.48,20.48,0,0,0,8.58-1.76l-.36-7.68a10.64,10.64,0,0,1-2.77.53c-1.16,0-1.88-.26-2.23-.79a5,5,0,0,1-.54-2.74l.18-19.23c.09-5.65-1.52-9.79-4.56-12.35s-7.77-3.88-14.11-3.88c-11.62,0-18.14,4.58-19.66,13.76l11.44,2.2a9.49,9.49,0,0,1,2.14-4.85c1-1,2.59-1.41,4.82-1.41,2.78,0,4.56.71,5.36,2s1.26,3.44,1.26,6.35v1.68h-.72m.72,15.79a10.59,10.59,0,0,1-7.78,3c-3.66,0-5.45-1.68-5.45-5a4.69,4.69,0,0,1,2.86-4.59,19,19,0,0,1,8.22-1.5H334Z" transform="translate(0 -0.09)"/><path class="cls-5" d="M376.4,156.12c-2.95,0-5-.61-6.34-1.85a10.71,10.71,0,0,1-2.95-5.12l-11,3.53a14.06,14.06,0,0,0,6.16,9.27c3.31,2.2,7.87,3.35,13.67,3.35q9,0,14.75-4c3.84-2.65,5.72-6.53,5.72-11.56a14.5,14.5,0,0,0-1.34-6.53,9.94,9.94,0,0,0-4-4.06,21.77,21.77,0,0,0-5-2.11,60.36,60.36,0,0,0-6.16-1.33,36.86,36.86,0,0,1-7.24-1.85,3.22,3.22,0,0,1-2.14-3.18c0-2.73,2-4.05,5.89-4.05a7.63,7.63,0,0,1,5.27,1.59,10.19,10.19,0,0,1,2.69,4.76l11.07-3.44c-2.41-8.12-8.66-12.18-18.58-12.18l.27-.08c-5.54,0-10.19,1.32-13.85,3.88a12.73,12.73,0,0,0-5.54,11.11,15.29,15.29,0,0,0,1.34,6.71,9.63,9.63,0,0,0,4.11,4.32,24,24,0,0,0,5.09,2.2,55.63,55.63,0,0,0,6.17,1.33,36.34,36.34,0,0,1,6.79,1.76,3.1,3.1,0,0,1,1.87,3.18c0,2.91-2.23,4.32-6.7,4.32" transform="translate(0 -0.09)"/><path class="cls-5" d="M406.42,104.69v13.58h-7V128h7v22.41q0,7.8,3.75,11.38c2.59,2.38,6.25,3.62,11.08,3.62a28.48,28.48,0,0,0,7.86-1.06,21.59,21.59,0,0,0,5.72-2.21l-1.7-9.53a15,15,0,0,1-7.77,2.12c-2.05,0-3.48-.53-4.29-1.5s-1.16-2.47-1.16-4.67V128h12.33v-9.71H419.91V102.93l-13.49,1.76" transform="translate(0 -0.09)"/><path class="cls-5" d="M71.47.29c7.44,2,9.45,5.62,13,9.67L449.79,10V60.45H426c-.68,0-1.28.61-1.5,1.51l-1.63,6.85-3.1-17.36c-.18-1-.81-1.67-1.53-1.67h0c-.73,0-1.35.72-1.52,1.71l-2.19,13.24L411.71,48c-.18-1-.83-1.75-1.59-1.7a1.89,1.89,0,0,0-1.49,1.88l-2.34,21.29-2.72-12A1.74,1.74,0,0,0,402,56c-.7,0-1.3.7-1.48,1.66l-1.8,9.69-3.26-18.18c-.18-1-.84-1.72-1.61-1.67a1.92,1.92,0,0,0-1.47,1.92l-1.65,17.34-2.33-11.19c-.19-.94-.81-1.59-1.51-1.59s-1.31.66-1.51,1.6l-1.94,9.5-2.92-24.82a1.89,1.89,0,0,0-1.48-1.85c-.73,0-1.41.64-1.59,1.65l-6.09,32.58-2.64-27.69c-.1-1.1-.77-1.92-1.55-1.93h0c-.78,0-1.44.82-1.55,1.91L363.4,67.62,361,54.19c-.18-1-.77-1.64-1.47-1.67s-1.33.59-1.55,1.53L356,62.53,353.25,35.1c-.11-1.11-.79-1.93-1.59-1.9s-1.45.88-1.53,2l-2.19,31.7-1.74-15a1.92,1.92,0,0,0-1.42-1.85c-.72-.08-1.39.53-1.62,1.48L341,60.3,338.1,32.63c-.12-1.11-.8-1.93-1.61-1.88s-1.45.92-1.52,2c-.64,12-1.47,27.27-2.15,39.19-.65-6.78-1.36-14.26-1.94-20.42a2,2,0,0,0-1.4-1.91c-.73-.11-1.4.5-1.64,1.46l-2.55,10.15-1.1-24.11c-.05-1.17-.74-2.08-1.57-2.08h0c-.83,0-1.52.92-1.56,2.09l-.64,16-1.51-27.05c-.07-1.15-.75-2-1.57-2s-1.5.88-1.57,2l-2.48,42.62-1.78-30.22c-.07-1.13-.72-2-1.52-2s-1.49.79-1.6,1.9L306,62,303,29.65c-.1-1.1-.76-1.93-1.55-1.93h0c-.8,0-1.46.9-1.53,2l-2.39,39.53-1.89-17.89c-.11-1.07-.76-1.87-1.53-1.89s-1.43.75-1.57,1.82L290.48,67l-2.41-26c-.1-1.11-.77-1.93-1.56-1.93h0c-.79,0-1.46.85-1.55,2l-2.44,29.46-2.16-44.35c-.06-1.16-.73-2.05-1.55-2.06s-1.51.85-1.59,2l-2.38,35.2L272.4,19.8c-.07-1.15-.75-2-1.57-2h0c-.82,0-1.5.89-1.57,2l-2.37,44-2.43-25.9c-.1-1.11-.78-2-1.57-1.92s-1.46.86-1.55,2l-2.18,28.33L256.9,31.46c-.08-1.12-.74-2-1.54-2s-1.49.81-1.59,1.94l-2.51,28.13-2.48-21.58c-.13-1.09-.82-1.88-1.6-1.86s-1.44.89-1.52,2l-1.93,26.75L241.4,23.41c-.07-1.15-.75-2-1.57-2h0c-.82,0-1.5.89-1.57,2l-1.73,28.8-.24-6.66c0-1.16-.71-2.07-1.53-2.1s-1.52.83-1.61,2l-1.5,20.33-2.65-12c-.22-1-.9-1.64-1.63-1.55a1.94,1.94,0,0,0-1.43,1.9l-1.62,16.49-2.66-27c-.11-1.08-.76-1.9-1.53-1.91s-1.45.76-1.58,1.83l-2.48,20.07-2.41-9.88c-.24-.95-.9-1.57-1.61-1.49a1.9,1.9,0,0,0-1.43,1.8L208.77,68l-2.09-23.2a1.9,1.9,0,0,0-1.5-1.93c-.76,0-1.45.71-1.6,1.78l-3,21-2.35-6.46A1.55,1.55,0,0,0,196.7,58a1.82,1.82,0,0,0-1.36,1.57L192.51,73l-1.68-18.09c-.1-1.07-.73-1.88-1.49-1.92s-1.44.68-1.61,1.73L185,71.86,181.3,41.67c-.13-1-.76-1.81-1.5-1.84s-1.41.7-1.58,1.72l-4.31,26.69-2.34-11a1.76,1.76,0,0,0-1.48-1.58h0c-.68,0-1.28.61-1.5,1.52l-2.36,10L163,49.28c-.19-1-.83-1.71-1.55-1.66s-1.35.73-1.51,1.73l-2.44,15.51-1.75-7.7a1.73,1.73,0,0,0-1.55-1.54,1.81,1.81,0,0,0-1.47,1.66l-2.27,12.41L148.36,53.9a1.89,1.89,0,0,0-1.43-1.8c-.71-.08-1.37.54-1.6,1.48l-3.55,14.6-1.7-12.56a1.9,1.9,0,0,0-1.43-1.79c-.7-.09-1.36.52-1.6,1.46l-2.42,9.48-1.08-6.64c-.17-1-.84-1.73-1.58-1.71s-1.38.8-1.5,1.84l-.87,7.17-1.15-8a2.08,2.08,0,0,0-1.07-1.67,1.25,1.25,0,0,0-1.55.49l-4.41,5.84H91A2.47,2.47,0,0,0,91,67h0V111.6c0,17.59-13.79,31.91-30.75,31.91h-23c-17,0-30.76-14.32-30.76-31.91V67a2.46,2.46,0,0,0,0-4.91H0V111.6c0,21.31,16.71,38.64,37.25,38.64h8.23v15.68h-23A12.72,12.72,0,0,0,9.78,178.54v3.37a2.07,2.07,0,0,0,1.84,2.24H85.87a2.07,2.07,0,0,0,1.84-2.24v-3.37A12.71,12.71,0,0,0,75,165.92H52V150.24h8.23c20.53,0,37.24-17.33,37.24-38.64V66.49H122a1.36,1.36,0,0,0,1.08-.6l2.8-3.71L128.18,78c.15,1,.8,1.77,1.54,1.77h0c.76,0,1.4-.79,1.52-1.84l1-8,.53,3.22a1.87,1.87,0,0,0,1.44,1.72c.71.06,1.34-.54,1.57-1.47l2.29-9,1.74,12.81a1.89,1.89,0,0,0,1.43,1.8c.72.07,1.37-.54,1.6-1.5L146.35,63l2.26,17.33c.14,1,.76,1.78,1.5,1.81s1.39-.65,1.57-1.66l2.69-14.71,1.87,8.2c.21.95.86,1.57,1.57,1.54a1.85,1.85,0,0,0,1.46-1.73l2.28-14.48,2.94,16.14A1.82,1.82,0,0,0,166,77.14a1.7,1.7,0,0,0,1.54-1.51L170,65.18l2.63,12.4c.21,1,.85,1.6,1.56,1.58a1.84,1.84,0,0,0,1.48-1.72l3.9-24.16,3.77,30.39c.12,1,.76,1.81,1.51,1.83s1.41-.7,1.57-1.74L188.87,68l1.48,15.89a2,2,0,0,0,1.44,1.92c.73.09,1.42-.57,1.63-1.57l3.81-18.07,2.62,7.2a1.51,1.51,0,0,0,1.61,1.18,1.93,1.93,0,0,0,1.33-1.76l2-14,2.13,23.76c.1,1.08.74,1.9,1.51,1.93s1.45-.73,1.6-1.81l2.6-19.59,2.47,10.1c.23,1,.9,1.57,1.61,1.49a1.9,1.9,0,0,0,1.42-1.83l1.81-14.6,2.84,28.8c.11,1.1.77,1.91,1.56,1.91s1.44-.81,1.55-1.91l2.21-22.51,2.84,12.78c.22,1,.91,1.64,1.66,1.54a2,2,0,0,0,1.4-2l.18-2.47.39,10.72c0,1.16.71,2.08,1.54,2.1h0c.81,0,1.5-.88,1.57-2l2.07-34.53L242,89.52c.07,1.14.74,2,1.55,2s1.5-.85,1.58-2l2.49-34.35,2.32,20.2c.12,1.08.79,1.86,1.55,1.86h0c.78,0,1.44-.84,1.54-1.94l2.07-23.19,2.37,36.53c.08,1.13.75,2,1.56,2h0c.8,0,1.47-.85,1.56-2l2.47-32,2.69,28.74c.11,1.13.8,2,1.6,1.92s1.46-.91,1.53-2l2-37.31,2.25,38.48c.07,1.14.74,2,1.56,2h0c.81,0,1.49-.87,1.56-2l2.25-33.16,2,41.32c0,1.14.72,2,1.53,2.06s1.51-.82,1.6-2l2.93-35.4,2,22.17c.1,1.08.75,1.89,1.52,1.92s1.45-.74,1.59-1.81l2.16-16.51,2.49,23.5c.11,1.11.81,1.92,1.6,1.89s1.45-.91,1.52-2l2.27-37.67,2.53,27.82c.1,1.1.76,1.92,1.55,1.93h0c.78,0,1.44-.81,1.55-1.9l2.08-20.3,2.2,37.47c.07,1.15.75,2,1.57,2s1.5-.88,1.56-2l2.46-41.95,1.81,32.43c.07,1.15.75,2,1.57,2h0c.82,0,1.5-.93,1.55-2.1l.52-13.19A1.76,1.76,0,0,0,324,74.38c.74.14,1.45-.47,1.7-1.46l2.93-11.66c2.9,30.59,3,30.89,3.21,31.35.35.84,1,1.28,1.72,1.06,1.15-.37,1.21-1.32,1.41-4.49.11-1.61.25-3.91.41-6.66.32-5.5.73-12.82,1.14-20.14.18-3.27.36-6.54.54-9.65l1.81,17.19a1.94,1.94,0,0,0,1.41,1.87c.73.1,1.4-.52,1.64-1.48l2.19-9,2.69,23.07c.13,1.09.8,1.9,1.61,1.85s1.43-.89,1.51-2L352,54.14l1.85,18.5a2,2,0,0,0,1.43,1.89c.73.09,1.4-.54,1.63-1.52l2.37-10.31,3.06,17c.19,1,.86,1.72,1.61,1.67a1.93,1.93,0,0,0,1.48-1.91l1.76-17.85,2.17,22.74a1.93,1.93,0,0,0,1.46,1.92c.74.07,1.42-.63,1.61-1.65l6.24-33.39,2.85,24.25A1.9,1.9,0,0,0,383,77.28c.73,0,1.4-.6,1.6-1.6l2.37-11.57L389.82,78c.21,1,.88,1.66,1.63,1.58a1.94,1.94,0,0,0,1.44-1.91l1.55-16.31,2.76,15.4c.18,1,.81,1.67,1.52,1.68h0c.71,0,1.34-.68,1.52-1.66l2-10.65,3.1,13.65c.23,1,.9,1.62,1.63,1.53a1.91,1.91,0,0,0,1.42-1.87L410.51,60l2.54,14.88c.17,1,.81,1.69,1.53,1.69h0c.73,0,1.36-.71,1.52-1.71l2.23-13.45,2.82,15.79a1.82,1.82,0,0,0,1.47,1.68c.69,0,1.32-.58,1.55-1.51l3-12.48h22.63V173.23H117V160.89a18,18,0,0,0,12.33,4.41A17.14,17.14,0,0,0,143,159.21c3.48-4.15,5.27-10.41,5.27-19,0-8-1.61-13.85-4.73-17.47s-7.42-5.46-12.78-5.46c-5.9,0-10.72,1.85-14.56,5.64l-.81-4.68H103.91v64.67h11.63v0h344V.29h-388m45.76,131.13a13.22,13.22,0,0,1,8.66-3.53,7,7,0,0,1,6.17,2.91c1.34,1.85,2,5.12,2,9.71,0,9.35-3,14-8.75,14a11.53,11.53,0,0,1-4.65-1.05,15.51,15.51,0,0,1-3.57-2.12Z" transform="translate(0 -0.09)"/></g></g></g></svg>