<svg xmlns="http://www.w3.org/2000/svg" xmlns:xlink="http://www.w3.org/1999/xlink" viewBox="0 0 153.49 108.75"><defs><style>.cls-1,.cls-6{fill:none;}.cls-2{clip-path:url(#clip-path);}.cls-3{fill:#002f54;}.cls-4{fill:#fff;}.cls-5{fill:#ccc;}.cls-6{stroke:#333;stroke-linecap:round;stroke-linejoin:round;stroke-width:2.42px;}</style><clipPath id="clip-path" transform="translate(-0.13 0)"><rect class="cls-1" width="153.75" height="108.75"/></clipPath></defs><g id="Layer_2" data-name="Layer 2"><g id="Layer_1-2" data-name="Layer 1"><g class="cls-2"><path class="cls-3" d="M31.39,85a7.86,7.86,0,1,1-7.85,7.85A7.86,7.86,0,0,1,31.39,85ZM14,107.54h126.9c6.33,0,11.48-5.75,11.48-12.08V78.54H2.54V95.46C2.54,101.79,7.7,107.54,14,107.54Z" transform="translate(-0.13 0)"/><path class="cls-4" d="M98.66,45.39,73.5,62.5a5.8,5.8,0,0,1-3.19,1.12c-2,0-3.41-1.49-3.66-3.85A6.39,6.39,0,0,1,66.6,59V23a6.39,6.39,0,0,1,.05-.78c.25-2.36,1.63-3.85,3.67-3.85a5.75,5.75,0,0,1,3.18,1.11L98.72,36.61A5.32,5.32,0,0,1,101.3,41a5.44,5.44,0,0,1-2.64,4.43Zm42.27-43H14C7.7,2.42,2.54,7,2.54,13.29V79.75H152.41V13.29C152.41,7,147.26,2.42,140.93,2.42Z" transform="translate(-0.13 0)"/><path class="cls-3" d="M70.31,62.41a4.55,4.55,0,0,0,2.51-.91L98,44.39A4.25,4.25,0,0,0,100.09,41,4.13,4.13,0,0,0,98,37.61L72.82,20.49a4.63,4.63,0,0,0-2.5-.91c-1.55,0-2.51,1.32-2.51,3.43V59c0,2.11,1,3.42,2.5,3.42Z" transform="translate(-0.13 0)"/><path class="cls-5" d="M66.6,23c0-.28,0-.53.05-.78A6.39,6.39,0,0,0,66.6,23Z" transform="translate(-0.13 0)"/><path class="cls-5" d="M66.6,59a6.39,6.39,0,0,0,.05.78C66.63,59.52,66.6,59.27,66.6,59Z" transform="translate(-0.13 0)"/><circle class="cls-4" cx="31.39" cy="92.81" r="6.65" transform="matrix(0, -1, 1, 0, -61.7, 123.76)"/><path class="cls-6" d="M13.29,1.21H140.2a12.09,12.09,0,0,1,12.09,12.09V95.46a12.08,12.08,0,0,1-12.08,12.08H13.29A12.09,12.09,0,0,1,1.21,95.46V13.29A12.08,12.08,0,0,1,13.29,1.21Z"/><path class="cls-6" d="M72.86,62c-3.14,2.14-6.26.79-6.26-3V23c0-3.8,3.12-5.15,6.26-3L98.23,37.11c3.13,2.14,3,5.64-.14,7.78Z" transform="translate(-0.13 0)"/><line class="cls-6" x1="12.09" y1="93.04" x2="22.96" y2="93.04"/><line class="cls-6" x1="38.68" y1="93.04" x2="143.83" y2="93.04"/><line class="cls-6" x1="1.21" y1="78.54" x2="119.65" y2="78.54"/><line class="cls-6" x1="136.57" y1="78.54" x2="152.29" y2="78.54"/><path class="cls-6" d="M38.65,92.81a7.51,7.51,0,0,1-.14,1.42,7.37,7.37,0,0,1-.42,1.36,6.53,6.53,0,0,1-.67,1.25,7.14,7.14,0,0,1-2,2,6.53,6.53,0,0,1-1.25.67,7.11,7.11,0,0,1-1.36.41,7.22,7.22,0,0,1-2.83,0,7.11,7.11,0,0,1-1.36-.41,6.93,6.93,0,0,1-1.26-.67,6.69,6.69,0,0,1-1.09-.9,7.39,7.39,0,0,1-.91-1.1,7.87,7.87,0,0,1-.67-1.25,7.33,7.33,0,0,1-.41-1.36,7.22,7.22,0,0,1,0-2.83A7.11,7.11,0,0,1,24.69,90a7.87,7.87,0,0,1,.67-1.25,6.91,6.91,0,0,1,.91-1.1,6.69,6.69,0,0,1,1.09-.9,6.93,6.93,0,0,1,1.26-.67A7.14,7.14,0,0,1,30,85.7a7.22,7.22,0,0,1,2.83,0,7.14,7.14,0,0,1,1.36.42,6.53,6.53,0,0,1,1.25.67,6.76,6.76,0,0,1,1.1.9,6.36,6.36,0,0,1,.9,1.1A6.53,6.53,0,0,1,38.09,90a7.14,7.14,0,0,1,.42,1.36A7.49,7.49,0,0,1,38.65,92.81Z" transform="translate(-0.13 0)"/></g></g></g></svg>