<svg xmlns="http://www.w3.org/2000/svg" xmlns:xlink="http://www.w3.org/1999/xlink" viewBox="0 0 122.36 105.02"><defs><style>.cls-1{fill:none;}.cls-2{clip-path:url(#clip-path);}.cls-3{fill:#002f54;}.cls-4{fill:#fff;}</style><clipPath id="clip-path" transform="translate(-0.3 0.01)"><rect class="cls-1" width="123" height="105"/></clipPath></defs><g id="Layer_2" data-name="Layer 2"><g id="Layer_1-2" data-name="Layer 1"><g class="cls-2"><path class="cls-3" d="M89.66,27.59H33.3V.79H89.66v26.8m-50-6.31H83.34V7.1H39.62Z" transform="translate(-0.3 0.01)"/><path class="cls-3" d="M89.66,27.59v-.8H34.1V1.59H88.86v26h.8v0h.8V.79a.83.83,0,0,0-.23-.56A.82.82,0,0,0,89.66,0H33.3a.82.82,0,0,0-.57.24.79.79,0,0,0-.23.56v26.8a.77.77,0,0,0,.23.56.82.82,0,0,0,.57.24H89.66a.8.8,0,0,0,.8-.8h-.8m-50-6.31v.8H83.34a.82.82,0,0,0,.57-.24.83.83,0,0,0,.23-.56V7.1a.8.8,0,0,0-.8-.8H39.62a.8.8,0,0,0-.8.8V21.28a.83.83,0,0,0,.23.56.82.82,0,0,0,.57.24v-.8h.8V7.9H82.54V20.47H39.62v.81h0Z" transform="translate(-0.3 0.01)"/><polyline class="cls-3" points="121.36 104.22 1 104.22 1 17.98 121.36 17.98 121.36 104.22"/><path class="cls-3" d="M121.66,104.21v-.8H2.1V18.77H120.86v85.44h.8v0h.8V18a.82.82,0,0,0-.24-.57.77.77,0,0,0-.56-.23H1.3a.81.81,0,0,0-.57.23A.81.81,0,0,0,.5,18v86.24a.81.81,0,0,0,.23.57.86.86,0,0,0,.57.23H121.66a.8.8,0,0,0,.8-.8h-.8" transform="translate(-0.3 0.01)"/><polygon class="cls-4" points="61.18 63.2 1 17.98 121.36 17.98 61.18 63.2"/><path class="cls-3" d="M61.48,63.19l.6-.8L4.3,19H118.66L60.88,62.39l.6.8.6-.8-.6.8.6.8,60.18-45.22a1,1,0,0,0-.6-1.8H1.3a1,1,0,0,0-.6,1.8L60.88,64a1,1,0,0,0,1.2,0l-.6-.8" transform="translate(-0.3 0.01)"/><polyline class="cls-4" points="73.3 65.31 49.07 65.31 49.07 56.19 73.3 56.19 73.3 65.31"/><path class="cls-3" d="M73.59,65.3v-1H50.37V57.18H72.59V65.3h1v0h1V56.18a1,1,0,0,0-1-1H49.37a1,1,0,0,0-1,1V65.3a1,1,0,0,0,1,1H73.59a1,1,0,0,0,1-1h-1" transform="translate(-0.3 0.01)"/></g></g></g></svg>