<svg xmlns="http://www.w3.org/2000/svg" xmlns:xlink="http://www.w3.org/1999/xlink" viewBox="0 0 154.5 100.83"><defs><style>.cls-1{fill:none;}.cls-2{clip-path:url(#clip-path);}.cls-3{fill:#002f54;}.cls-4{clip-path:url(#clip-path-2);}.cls-5{clip-path:url(#clip-path-3);}.cls-6{clip-path:url(#clip-path-4);}</style><clipPath id="clip-path" transform="translate(0 -0.49)"><rect class="cls-1" width="154.5" height="102"/></clipPath><clipPath id="clip-path-2" transform="translate(0 -0.49)"><rect class="cls-1" x="24.58" y="49.77" width="56.18" height="51.55"/></clipPath><clipPath id="clip-path-3" transform="translate(0 -0.49)"><rect class="cls-1" x="3.51" y="63.85" width="24.58" height="37.47"/></clipPath><clipPath id="clip-path-4" transform="translate(0 -0.49)"><rect class="cls-1" x="77.25" y="63.85" width="73.74" height="37.47"/></clipPath></defs><g id="Layer_2" data-name="Layer 2"><g id="Layer_1-2" data-name="Layer 1"><g class="cls-2"><path class="cls-3" d="M118.58.49a16.21,16.21,0,1,1-16.19,16.2A16.18,16.18,0,0,1,118.58.49" transform="translate(0 -0.49)"/><path class="cls-3" d="M102.39,59.91v-7.2s0-3.6,1.8-3.6v10.8h11.07l3.32-21.61,3.3,21.61h11.06V49.11c1.79,0,1.79,3.6,1.79,3.6v7.2h9c0-6,0-10.69,0-10.8-1-12.28-11.91-14.41-25.14-14.41S94.4,36.83,93.42,49.11v10.8h9" transform="translate(0 -0.49)"/></g><g class="cls-4"><path class="cls-3" d="M52.09,52.71c13.25,0,24.19,2.12,25.16,14.41,0,.26,0,27.94,0,34.2h-9V70.72s0-3.6-1.8-3.6v34.2H37.72V67.12c-1.8,0-1.8,3.6-1.8,3.6v30.6H27V67.12c1-12.29,11.89-14.41,25.14-14.41" transform="translate(0 -0.49)"/></g><g class="cls-5"><polyline class="cls-3" points="25.13 66.63 5.39 66.63 5.39 100.83 25.13 100.83 25.13 66.63"/></g><g class="cls-6"><path class="cls-3" d="M79,67.12c0,1.17.06,6.47,0,33.83v.37h70.09V67.12H79" transform="translate(0 -0.49)"/></g><g class="cls-2"><path class="cls-3" d="M77.87,61.71a17.16,17.16,0,0,1,.94,3.61H154.5V61.71H77.87" transform="translate(0 -0.49)"/><path class="cls-3" d="M26.34,61.71H0v3.61H25.39a16.57,16.57,0,0,1,.95-3.61" transform="translate(0 -0.49)"/><path class="cls-3" d="M52.11,14.89a18,18,0,1,1-18,18,18,18,0,0,1,18-18" transform="translate(0 -0.49)"/></g></g></g></svg>