<svg xmlns="http://www.w3.org/2000/svg" xmlns:xlink="http://www.w3.org/1999/xlink" viewBox="0 0 90.75 90.75"><defs><style>.cls-1,.cls-5{fill:none;}.cls-2{clip-path:url(#clip-path);}.cls-3{fill:#002f54;}.cls-4{fill:#fff;}.cls-5{stroke:#fff;stroke-width:11.7px;}</style><clipPath id="clip-path" transform="translate(0 0)"><rect class="cls-1" width="90.75" height="90.75"/></clipPath></defs><g id="Layer_2" data-name="Layer 2"><g id="Layer_1-2" data-name="Layer 1"><g class="cls-2"><path class="cls-3" d="M13.61,0H77.14a13.84,13.84,0,0,1,2.65.26A13.51,13.51,0,0,1,82.35,1,13.92,13.92,0,0,1,84.7,2.29a14,14,0,0,1,3.76,3.76A13.92,13.92,0,0,1,89.71,8.4,13.51,13.51,0,0,1,90.49,11a13.84,13.84,0,0,1,.26,2.65V77.14a13.84,13.84,0,0,1-.26,2.65,13.51,13.51,0,0,1-.78,2.56,13.92,13.92,0,0,1-1.25,2.35,13.39,13.39,0,0,1-1.7,2.06,13.28,13.28,0,0,1-4.41,2.95,13.51,13.51,0,0,1-2.56.78,13.84,13.84,0,0,1-2.65.26H13.61A13.84,13.84,0,0,1,11,90.49a13.51,13.51,0,0,1-2.56-.78,13.92,13.92,0,0,1-2.35-1.25A14,14,0,0,1,4,86.76a13.39,13.39,0,0,1-1.7-2.06A13.92,13.92,0,0,1,1,82.35a13.51,13.51,0,0,1-.78-2.56A13.84,13.84,0,0,1,0,77.14V13.61A13.84,13.84,0,0,1,.26,11,13.51,13.51,0,0,1,1,8.4,13.92,13.92,0,0,1,2.29,6.05,14,14,0,0,1,6.05,2.29,13.92,13.92,0,0,1,8.4,1,13.51,13.51,0,0,1,11,.26,13.84,13.84,0,0,1,13.61,0Z" transform="translate(0 0)"/><path class="cls-4" d="M31.73,24.46a6.11,6.11,0,0,1-.13,1.28A6.69,6.69,0,0,1,31.23,27a6.46,6.46,0,0,1-.61,1.13,6.16,6.16,0,0,1-1.81,1.81,6.83,6.83,0,0,1-1.13.61,6.69,6.69,0,0,1-1.23.37,6.37,6.37,0,0,1-2.56,0,6.69,6.69,0,0,1-1.23-.37,6.46,6.46,0,0,1-1.13-.61,6.16,6.16,0,0,1-1.81-1.81A5.86,5.86,0,0,1,19.11,27a6.69,6.69,0,0,1-.37-1.23,6.37,6.37,0,0,1,0-2.56A6.69,6.69,0,0,1,19.11,22a5.86,5.86,0,0,1,.61-1.13A6.16,6.16,0,0,1,21.53,19a6.46,6.46,0,0,1,1.13-.61A6.69,6.69,0,0,1,23.89,18a6.37,6.37,0,0,1,2.56,0,6.69,6.69,0,0,1,1.23.37,6.83,6.83,0,0,1,1.13.61,6.16,6.16,0,0,1,1.81,1.81A6.46,6.46,0,0,1,31.23,22a6.69,6.69,0,0,1,.37,1.23A6.11,6.11,0,0,1,31.73,24.46Z" transform="translate(0 0)"/><path class="cls-4" d="M25.17,34.39V69.48M43.25,34.39V69.48" transform="translate(0 0)"/><path class="cls-5" d="M25.17,34.39V69.48M43.25,34.39V69.48" transform="translate(0 0)"/><path class="cls-4" d="M48.92,50c0-3.54,2.3-7.09,6.38-7.09,4.25,0,5.85,3.19,5.85,8V69.48h11.7v-20c0-10.81-5.67-15.77-13.47-15.77a11.62,11.62,0,0,0-10.46,5.67" transform="translate(0 0)"/></g></g></g></svg>