<svg xmlns="http://www.w3.org/2000/svg" xmlns:xlink="http://www.w3.org/1999/xlink" viewBox="0 0 125.25 99.65"><defs><style>.cls-1{fill:none;}.cls-2{clip-path:url(#clip-path);}.cls-3{fill:#002f54;}</style><clipPath id="clip-path" transform="translate(0 -0.08)"><rect class="cls-1" width="125.25" height="123.75"/></clipPath></defs><g id="Layer_2" data-name="Layer 2"><g id="Layer_1-2" data-name="Layer 1"><g class="cls-2"><polyline class="cls-3" points="62.63 96.47 30.01 96.47 30.01 0 82.71 0 101.77 17.68 101.77 91.26 99.16 91.26 99.16 18.82 81.68 2.61 32.62 2.61 32.62 93.86 62.63 93.86 62.63 96.47"/><polygon class="cls-3" points="80.89 19.55 100.46 19.55 80.89 1.3 80.89 19.55"/><polyline class="cls-3" points="27.4 27.38 20.88 27.38 20.88 19.55 27.4 19.55 27.4 27.38"/><polyline class="cls-3" points="27.4 43.02 7.83 43.02 7.83 35.2 27.4 35.2 27.4 43.02"/><polyline class="cls-3" points="27.4 58.67 0 58.67 0 50.84 27.4 50.84 27.4 58.67"/><polyline class="cls-3" points="27.4 74.31 13.05 74.31 13.05 66.49 27.4 66.49 27.4 74.31"/><path class="cls-3" d="M49.61,20.94A11.74,11.74,0,1,0,61.36,32.67,11.74,11.74,0,0,0,49.61,20.94m-1.15,17-5.41-5.63,2.07-2.14,3.34,3.47L54,27.84,56.06,30Z" transform="translate(0 -0.08)"/><polyline class="cls-3" points="76.98 11.73 36.53 11.73 36.53 9.13 76.98 9.13 76.98 11.73"/><polyline class="cls-3" points="76.98 19.55 60.02 19.55 60.02 16.95 76.98 16.95 76.98 19.55"/><polyline class="cls-3" points="95.24 27.38 65.23 27.38 65.23 24.77 95.24 24.77 95.24 27.38"/><polyline class="cls-3" points="95.24 35.2 65.23 35.2 65.23 32.59 95.24 32.59 95.24 35.2"/><polyline class="cls-3" points="95.24 43.02 65.23 43.02 65.23 40.41 95.24 40.41 95.24 43.02"/><polyline class="cls-3" points="95.24 50.84 65.23 50.84 65.23 48.24 95.24 48.24 95.24 50.84"/><polyline class="cls-3" points="94.92 58.67 65.56 58.67 65.56 56.06 94.92 56.06 94.92 58.67"/><polyline class="cls-3" points="60.02 86.04 37.84 86.04 37.84 83.44 60.02 83.44 60.02 86.04"/><path class="cls-3" d="M79.59,97.86a15.65,15.65,0,1,1,11.07-4.59,15.52,15.52,0,0,1-11.07,4.59m0-26.07a10.43,10.43,0,1,0,7.38,3A10.42,10.42,0,0,0,79.59,71.79Z" transform="translate(0 -0.08)"/><polyline class="cls-3" points="95.27 99.64 89.73 94.11 91.58 92.27 97.11 97.8 95.27 99.64"/><path class="cls-3" d="M75.67,82.21H73.06a6.54,6.54,0,0,1,6.53-6.52V78.3a3.92,3.92,0,0,0-3.92,3.91" transform="translate(0 -0.08)"/><path class="cls-3" d="M104.37,26V46.8L117.8,33.39A25.87,25.87,0,0,0,104.37,26" transform="translate(0 -0.08)"/><path class="cls-3" d="M104.37,77.13a25.85,25.85,0,0,0,11.21-5.35L104.37,60.59V77.13" transform="translate(0 -0.08)"/><path class="cls-3" d="M104.37,56.9,117.52,70a25.88,25.88,0,0,0,2-34.69L104.37,50.49V56.9" transform="translate(0 -0.08)"/><path class="cls-3" d="M49.61,52.23A11.73,11.73,0,1,0,61.36,64,11.74,11.74,0,0,0,49.61,52.23m-1.15,17-5.41-5.63,2.07-2.15,3.34,3.48L54,59.13l2.06,2.14Z" transform="translate(0 -0.08)"/></g></g></g></svg>