<svg xmlns="http://www.w3.org/2000/svg" viewBox="0 0 370.6 155.68"><defs><style>.cls-1,.cls-2{fill:#d22b6e;}.cls-1{opacity:0.3;}.cls-2{opacity:0.5;}.cls-3{fill:#2cdc7f;}</style></defs><g id="Layer_2" data-name="Layer 2"><g id="Layer_1-2" data-name="Layer 1"><path class="cls-1" d="M121.28,49.28a57.14,57.14,0,0,1,3.87-7,54.83,54.83,0,0,1,4.63-6.65,72.3,72.3,0,0,1,9-9.84c2.93-2.56,5.37-4,7.19-4.23l.21,0a3.6,3.6,0,0,1,1.62.35,3.45,3.45,0,0,1,.93,1.51l.08.56a10.07,10.07,0,0,1-.27,3.68,26.1,26.1,0,0,1-2.18,5.3,63.41,63.41,0,0,1-8.18,11.44,85.35,85.35,0,0,1-12.17,11.42c-1.93,1.49-3.55,2.72-5,3.77s-2.2,1.6-2.2,1.6c-.49.07-.74-.18-.83-.81a8.13,8.13,0,0,1,.27-2.61A34.64,34.64,0,0,1,121.28,49.28Zm6.87-35.46a43.71,43.71,0,0,0,1.78-8.67c-.06-1.42-.59-2.14-1.71-2-.7.1-1.56,1.58-2.66,4.45s-2.84,7.75-4.92,14.76c-1.82,5.83-3.42,11.76-4.71,17.8a150.81,150.81,0,0,0-3,16.57,37.71,37.71,0,0,0-.76,9.32c.06,3,.09,5.27.17,6.83.44,3.08.85,4.52,1.34,4.45h.07c.42-.06,1-1.86,1.74-5.39.48-2.21.81-3.9,1.07-5.07l6.16-3.44a70.21,70.21,0,0,0,9.54-6.34,84.73,84.73,0,0,0,8.67-8.44c5.3-6,9-11.69,11-17.25a18.15,18.15,0,0,0,1.36-8.62,8.57,8.57,0,0,0-1.54-3.86,6.31,6.31,0,0,0-3.5-2,8.13,8.13,0,0,0-4.53.28,25.69,25.69,0,0,0-8.35,5.6,74.09,74.09,0,0,0-9.15,11.07c-1,1.35-1.74,2.39-2.35,3.12s-1.06,1.07-1.1.79a18.64,18.64,0,0,1,.64-4.08c.52-2.36,1.13-5.16,1.94-8.49q.6-2.66,1.36-5.55C127.13,17.75,127.63,15.75,128.15,13.82Z"/><path class="cls-1" d="M156.23,31.22a1.43,1.43,0,0,0,.66.63.85.85,0,0,0,.6.2c.42-.06,1-.79,2-2.35a10.69,10.69,0,0,0,1.41-3.63,3.12,3.12,0,0,0,0-.86,2.52,2.52,0,0,0-1.57-2A2.68,2.68,0,0,0,158,23a2,2,0,0,0-1.48,1.13,7.39,7.39,0,0,0-.77,3.68,8.76,8.76,0,0,0,0,2.14A2.3,2.3,0,0,0,156.23,31.22Zm-1.56,21.86a6,6,0,0,0,2.74,1.26,7,7,0,0,0,1.42-.13c.84-.12,2-.28,3.55-.64a39.48,39.48,0,0,0,6.5-2c2.72-.95,5.49-2.13,8.38-3.39s5.45-2.41,8.12-3.71a61,61,0,0,0,6.24-3.38,14.75,14.75,0,0,0,1.95-1.35c.52-.36.76-.67.73-.88-.06-.43-1.54-.29-4.42.55S182,42,175,44.37c-3.4,1.19-6.48,2.19-9.35,3.1a46.08,46.08,0,0,1-5.43,1.47c-2.1.3-3.35.05-3.82-.74s-.62-2.84-.37-6.16c.06-1.58.16-2.95.28-4.11s.11-1.73.1-1.8-.09-.13-.25-.26a1.77,1.77,0,0,1-.53-.21l-.14,0c-.41.13-.82.76-1.36,2a43.57,43.57,0,0,0-1.55,4.72c-.26,1.18-.47,2.28-.6,3.37a8.33,8.33,0,0,0-.12,2.66l.06.42a6.93,6.93,0,0,0,.62,2.41A6.36,6.36,0,0,0,154.67,53.08Z"/><path class="cls-1" d="M202.69,36.54c.21,0,.41-.13.69-.17s.34-.12.48-.14c.49-.06.79,0,.88.17s-.28.54-.93,1.05A57.15,57.15,0,0,1,198,41.63c-2.35,1.62-3.94,2.49-4.64,2.58-.14,0-.21,0-.22,0s-.29,0-.31-.17c-.05-.35.54-1.22,1.77-2.67a12.57,12.57,0,0,1,3.66-2.88A29.67,29.67,0,0,1,202.69,36.54Zm12.74-7.36a.54.54,0,0,1-.37-.09c-.14,0-.22,0-.36,0h-.07a4.48,4.48,0,0,0-1.15.44,19.31,19.31,0,0,0-2.09,1.37,11.86,11.86,0,0,1-3.23,1.88,22.46,22.46,0,0,1-4.65,1c-2,.36-3.55.65-4.51.92a13.32,13.32,0,0,0-2.8,1.4,21.87,21.87,0,0,0-4.2,3.66,9.1,9.1,0,0,0-2.19,3.74,5.37,5.37,0,0,0-.25,1.75v.07a2.31,2.31,0,0,0,.74,1.25c1,1.28,3,1.28,5.87.1s6.5-3.56,11-7.34l3.4-2.76c1-.78,1.48-1.14,1.57-1a3,3,0,0,1-.19,1.17,19.87,19.87,0,0,0-.4,2.27c-.29,2.47-.11,4.3.65,5.62A5.47,5.47,0,0,0,216,47.31a7.38,7.38,0,0,0,3.39.24l.21,0a26.73,26.73,0,0,0,5.46-1.77,64.51,64.51,0,0,0,7.89-3.82,93.35,93.35,0,0,0,8.15-5c1.3-.89,2.47-1.7,3.51-2.49a13.28,13.28,0,0,0,2.2-2.1c.49-.56.93-1,1.17-1.3-1.1.29-1.85.54-2.34.61-.68.24-2.17.81-4.53,1.78s-4.9,2.26-7.5,3.56a87.48,87.48,0,0,1-12.13,5.13c-2.73.89-4.44,1-5.1.29a2.82,2.82,0,0,1-.62-2.34,34.19,34.19,0,0,1,.87-5.48,12.71,12.71,0,0,0,.39-3.84A2.69,2.69,0,0,0,215.43,29.18Z"/><path class="cls-1" d="M245.42,42.31a1.76,1.76,0,0,0,1.48.37,3.42,3.42,0,0,0,1.41-.63,17.9,17.9,0,0,0,3.94-4.48c3.62-5.23,6.43-9.12,8.48-11.84s3.16-3.87,3.39-3.76.24.68.24,1.68,0,2.22-.15,3.52a26.74,26.74,0,0,0,.05,7.42,5.22,5.22,0,0,0,2.07,3.57c1.29,1,3.09,1.13,5.27.4a37.86,37.86,0,0,0,8-4.35c3.38-2.33,6.52-4.41,9.25-6.3a33.49,33.49,0,0,0,4.79-3.53,16.75,16.75,0,0,0-4.35,1c-1.55.65-3.09,1.37-4.7,2.16-2.92,1.56-5.75,3.24-8.52,4.92s-5,2.56-6.7,2.58c-.73-.11-1.2-.9-1.42-2.44a22.37,22.37,0,0,1,.16-5.95,30.47,30.47,0,0,0,.22-3.53c0-1.28,0-2.28-.15-3.12a9.43,9.43,0,0,0-.63-2.41,2.78,2.78,0,0,0-1.49-.94,2.93,2.93,0,0,0-1.15-.05,6.17,6.17,0,0,0-3.1,1.79,84.88,84.88,0,0,0-7.76,9.81c-2.69,3.73-4.73,6.52-6,8.42,0-1.78-.08-3.13-.07-4.06-.12-3.41-.2-5.47-.31-6.24s-.52-1.15-1-1.08-.81.83-1.12,2.16a32.15,32.15,0,0,0-.76,4.75,34.32,34.32,0,0,0-.16,6.45,8.44,8.44,0,0,0,.11,1.84A2.89,2.89,0,0,0,245.42,42.31Z"/><path class="cls-1" d="M301.57,22.63c.21,0,.41-.13.69-.17s.34-.12.48-.14c.49-.07.79,0,.88.16s-.29.54-.93,1.06a58,58,0,0,1-5.84,4.18c-2.34,1.61-3.93,2.48-4.63,2.58-.14,0-.21,0-.22,0s-.29,0-.31-.17c-.05-.35.54-1.22,1.76-2.68a12.72,12.72,0,0,1,3.67-2.87A28.27,28.27,0,0,1,301.57,22.63Zm12.74-7.37a.54.54,0,0,1-.37-.09c-.14,0-.22,0-.36,0h-.07a4.19,4.19,0,0,0-1.15.45A19.31,19.31,0,0,0,310.27,17,12.44,12.44,0,0,1,307,18.86a22.85,22.85,0,0,1-4.64,1c-2,.36-3.55.64-4.51.92a13.8,13.8,0,0,0-2.8,1.39,21.91,21.91,0,0,0-4.2,3.67,8.91,8.91,0,0,0-2.19,3.73,5.37,5.37,0,0,0-.25,1.75v.07a2.19,2.19,0,0,0,.74,1.25c1,1.29,3,1.29,5.87.11s6.5-3.56,11-7.34c1.28-1,2.43-2,3.4-2.76s1.48-1.14,1.57-1a3,3,0,0,1-.19,1.17,17.9,17.9,0,0,0-.4,2.27c-.29,2.47-.11,4.3.65,5.62a5.53,5.53,0,0,0,3.73,2.69,7.38,7.38,0,0,0,3.39.23l.21,0a27.22,27.22,0,0,0,5.47-1.77A65.47,65.47,0,0,0,331.82,28,93.35,93.35,0,0,0,340,23c1.3-.9,2.47-1.71,3.5-2.49a13,13,0,0,0,2.21-2.1c.49-.57.93-1,1.17-1.31-1.1.3-1.85.55-2.34.62-.68.24-2.17.8-4.53,1.78s-4.9,2.26-7.5,3.55a89.12,89.12,0,0,1-12.13,5.14q-4.11,1.32-5.11.29a2.86,2.86,0,0,1-.61-2.34,34.19,34.19,0,0,1,.87-5.48,12.71,12.71,0,0,0,.39-3.84A2.74,2.74,0,0,0,314.31,15.26Z"/><path class="cls-2" d="M123,47.71a55.72,55.72,0,0,1,3.87-7A54.94,54.94,0,0,1,131.53,34a72.9,72.9,0,0,1,9-9.84c2.93-2.55,5.37-4,7.19-4.22l.21,0a3.73,3.73,0,0,1,1.62.34,3.45,3.45,0,0,1,.93,1.51l.08.56a10.07,10.07,0,0,1-.27,3.68,26.41,26.41,0,0,1-2.18,5.31A63.72,63.72,0,0,1,140,42.75,85.38,85.38,0,0,1,127.8,54.18c-1.94,1.48-3.55,2.71-5,3.77s-2.2,1.59-2.2,1.59c-.49.07-.74-.18-.83-.81a8.13,8.13,0,0,1,.27-2.61A34.16,34.16,0,0,1,123,47.71Zm6.87-35.46a42.87,42.87,0,0,0,1.77-8.68c0-1.42-.58-2.13-1.7-2-.7.1-1.56,1.57-2.66,4.44s-2.84,7.76-4.92,14.76c-1.82,5.83-3.42,11.77-4.71,17.81a150.45,150.45,0,0,0-3,16.56,38.7,38.7,0,0,0-.76,9.32c.07,3,.1,5.27.18,6.83.43,3.08.85,4.52,1.34,4.46h.07c.42-.06,1-1.86,1.74-5.39.48-2.21.81-3.9,1.07-5.08l6.16-3.44A69.29,69.29,0,0,0,134,55.52a83.52,83.52,0,0,0,8.66-8.43c5.31-6,9-11.69,11-17.26A18.15,18.15,0,0,0,155,21.21a8.49,8.49,0,0,0-1.54-3.85,6.32,6.32,0,0,0-3.5-2,8.22,8.22,0,0,0-4.53.28,25.75,25.75,0,0,0-8.35,5.6,74.84,74.84,0,0,0-9.16,11.08c-1,1.34-1.73,2.38-2.34,3.11s-1.07,1.08-1.1.8a19.11,19.11,0,0,1,.63-4.09c.53-2.36,1.13-5.16,1.95-8.49q.6-2.66,1.36-5.54C128.88,16.18,129.38,14.18,129.9,12.25Z"/><path class="cls-2" d="M158,29.65a1.41,1.41,0,0,0,.66.62.85.85,0,0,0,.6.2c.42-.06,1-.79,2-2.34a10.69,10.69,0,0,0,1.41-3.63,4.15,4.15,0,0,0,0-.86,2.55,2.55,0,0,0-1.57-2,2.68,2.68,0,0,0-1.32-.24,2.06,2.06,0,0,0-1.48,1.14,7.39,7.39,0,0,0-.77,3.68,9.38,9.38,0,0,0,0,2.14A2.38,2.38,0,0,0,158,29.65Zm-1.56,21.86a4.38,4.38,0,0,0,4.15,1.13c.84-.12,2-.29,3.56-.65a39.27,39.27,0,0,0,6.5-2c2.72-1,5.49-2.13,8.38-3.39s5.44-2.41,8.12-3.72a59.13,59.13,0,0,0,6.24-3.38,13.88,13.88,0,0,0,1.95-1.34c.52-.36.76-.68.73-.89-.06-.42-1.54-.28-4.42.55s-7.86,2.53-14.87,4.95c-3.41,1.19-6.48,2.2-9.35,3.1A49.42,49.42,0,0,1,162,47.37c-2.11.3-3.36,0-3.82-.75s-.62-2.84-.37-6.16c.06-1.58.16-3,.28-4.11s.11-1.73.1-1.8-.09-.13-.25-.25a1.77,1.77,0,0,1-.53-.21l-.14,0c-.41.13-.82.76-1.36,2a42.67,42.67,0,0,0-1.55,4.71c-.26,1.18-.47,2.28-.6,3.37a8.33,8.33,0,0,0-.12,2.66l0,.42a7.12,7.12,0,0,0,.63,2.41A6.36,6.36,0,0,0,156.42,51.51Z"/><path class="cls-2" d="M204.44,35c.21,0,.41-.13.69-.17s.34-.12.48-.14c.49-.07.79,0,.88.16s-.29.54-.93,1.06a58,58,0,0,1-5.84,4.18c-2.34,1.61-3.93,2.48-4.63,2.58-.14,0-.21,0-.22,0s-.29,0-.31-.17c-.05-.35.54-1.22,1.76-2.68A12.72,12.72,0,0,1,200,36.88,27.36,27.36,0,0,1,204.44,35Zm12.74-7.37a.54.54,0,0,1-.37-.09c-.14,0-.22,0-.36,0h-.07a4.19,4.19,0,0,0-1.15.45,20.57,20.57,0,0,0-2.09,1.36,12.24,12.24,0,0,1-3.24,1.89,22.85,22.85,0,0,1-4.64,1c-2,.35-3.55.64-4.51.92a13.8,13.8,0,0,0-2.8,1.39,21.91,21.91,0,0,0-4.2,3.67,8.91,8.91,0,0,0-2.19,3.73,5.37,5.37,0,0,0-.25,1.75v.07a2.19,2.19,0,0,0,.74,1.25c1,1.28,3,1.29,5.87.1s6.5-3.55,11-7.33c1.28-1,2.43-2,3.4-2.77s1.48-1.13,1.57-1a3,3,0,0,1-.19,1.17,17.9,17.9,0,0,0-.4,2.27c-.29,2.47-.11,4.3.65,5.62a5.53,5.53,0,0,0,3.73,2.69,7.38,7.38,0,0,0,3.39.23l.21,0a26.4,26.4,0,0,0,5.47-1.76,65.47,65.47,0,0,0,7.89-3.83,93.35,93.35,0,0,0,8.15-5c1.3-.9,2.47-1.71,3.51-2.5a12.88,12.88,0,0,0,2.2-2.09c.49-.57.93-1,1.17-1.31-1.1.3-1.85.55-2.34.62-.68.24-2.17.8-4.53,1.78s-4.9,2.26-7.5,3.55a89.12,89.12,0,0,1-12.13,5.14q-4.11,1.32-5.1.29a2.82,2.82,0,0,1-.62-2.34,34,34,0,0,1,.87-5.48,12.71,12.71,0,0,0,.39-3.84A2.71,2.71,0,0,0,217.18,27.6Z"/><path class="cls-2" d="M247.17,40.74a1.72,1.72,0,0,0,1.48.36,3.42,3.42,0,0,0,1.41-.63A17.53,17.53,0,0,0,254,36c3.62-5.22,6.43-9.12,8.47-11.83s3.17-3.88,3.4-3.77.24.69.24,1.69-.05,2.22-.15,3.52A26.35,26.35,0,0,0,266,33a5.18,5.18,0,0,0,2.07,3.56c1.29,1,3.09,1.14,5.27.4a37.74,37.74,0,0,0,8-4.34c3.38-2.33,6.52-4.42,9.25-6.3a34.35,34.35,0,0,0,4.79-3.53,16,16,0,0,0-4.35,1c-1.55.64-3.1,1.36-4.7,2.16-2.92,1.55-5.75,3.24-8.52,4.91s-5,2.56-6.7,2.59c-.73-.11-1.2-.91-1.42-2.45a22.37,22.37,0,0,1,.16-5.95,30.47,30.47,0,0,0,.22-3.53c0-1.28,0-2.28-.15-3.12a9.43,9.43,0,0,0-.63-2.41,2.77,2.77,0,0,0-1.49-.93,2.93,2.93,0,0,0-1.15,0,6,6,0,0,0-3.1,1.79,84.5,84.5,0,0,0-7.76,9.8c-2.69,3.74-4.73,6.53-6,8.42,0-1.78-.08-3.13-.07-4.06-.12-3.41-.2-5.47-.31-6.24s-.52-1.14-1-1.07-.81.83-1.12,2.16a32.15,32.15,0,0,0-.76,4.75,35.2,35.2,0,0,0-.17,6.45,9,9,0,0,0,.12,1.84A2.89,2.89,0,0,0,247.17,40.74Z"/><path class="cls-2" d="M303.31,21.05c.21,0,.41-.13.69-.17s.35-.11.49-.13c.49-.07.79,0,.87.16s-.28.54-.92,1.06a58.31,58.31,0,0,1-5.84,4.17c-2.34,1.62-3.93,2.49-4.63,2.58-.14,0-.21,0-.22,0s-.29,0-.31-.17c-.05-.35.54-1.22,1.76-2.67A12.75,12.75,0,0,1,298.87,23,29.56,29.56,0,0,1,303.31,21.05Zm12.75-7.36a.54.54,0,0,1-.37-.09c-.14,0-.22,0-.36,0h-.07a4.19,4.19,0,0,0-1.15.45A17.58,17.58,0,0,0,312,15.4a11.88,11.88,0,0,1-3.24,1.88,22.16,22.16,0,0,1-4.64,1c-2,.36-3.55.65-4.51.93a13.14,13.14,0,0,0-2.81,1.39,22.1,22.1,0,0,0-4.19,3.66A9,9,0,0,0,290.44,28a5.8,5.8,0,0,0-.26,1.75v.07a2.28,2.28,0,0,0,.75,1.25c1,1.28,3,1.29,5.87.1s6.5-3.56,11-7.34l3.4-2.76c1-.78,1.48-1.14,1.57-1a3,3,0,0,1-.19,1.17,17.9,17.9,0,0,0-.4,2.27c-.29,2.47-.11,4.3.65,5.62a5.45,5.45,0,0,0,3.73,2.69,7.38,7.38,0,0,0,3.39.24l.21,0a26.77,26.77,0,0,0,5.47-1.77,65.22,65.22,0,0,0,7.89-3.82,94.87,94.87,0,0,0,8.15-5c1.3-.89,2.47-1.7,3.5-2.49a13.41,13.41,0,0,0,2.21-2.09c.49-.57.93-1,1.17-1.31-1.1.3-1.85.54-2.34.61-.68.24-2.17.81-4.53,1.78s-4.9,2.26-7.5,3.56a87,87,0,0,1-12.14,5.13c-2.73.89-4.43,1-5.1.29a2.82,2.82,0,0,1-.61-2.34,33,33,0,0,1,.87-5.48,13.06,13.06,0,0,0,.39-3.84A2.69,2.69,0,0,0,316.06,13.69Z"/><path class="cls-3" d="M124.78,46.13a56.42,56.42,0,0,1,3.87-7,54.83,54.83,0,0,1,4.63-6.65,71.71,71.71,0,0,1,9-9.84c2.93-2.56,5.37-4,7.19-4.23l.21,0a3.73,3.73,0,0,1,1.62.34,3.55,3.55,0,0,1,.93,1.52l.08.56a10.29,10.29,0,0,1-.27,3.68,26.1,26.1,0,0,1-2.18,5.3,63.76,63.76,0,0,1-8.18,11.44A86.43,86.43,0,0,1,129.55,52.6c-1.94,1.49-3.55,2.72-5,3.77s-2.21,1.6-2.21,1.6c-.49.07-.73-.18-.82-.81a8.13,8.13,0,0,1,.27-2.61A34.22,34.22,0,0,1,124.78,46.13Zm6.87-35.46A43.57,43.57,0,0,0,133.42,2c0-1.42-.58-2.14-1.7-2-.7.1-1.57,1.58-2.66,4.45s-2.84,7.75-4.92,14.76c-1.83,5.82-3.42,11.76-4.71,17.8a151,151,0,0,0-3,16.57,38.62,38.62,0,0,0-.76,9.32c.07,3,.1,5.27.18,6.83.43,3.08.85,4.52,1.34,4.45h.07c.42-.06,1-1.86,1.74-5.39.48-2.21.81-3.9,1.07-5.08l6.16-3.43A70.39,70.39,0,0,0,135.73,54a82.73,82.73,0,0,0,8.67-8.44c5.31-6,9-11.69,11-17.26a18.22,18.22,0,0,0,1.36-8.61,8.53,8.53,0,0,0-1.54-3.86,6.31,6.31,0,0,0-3.5-2,8.13,8.13,0,0,0-4.53.28,25.43,25.43,0,0,0-8.35,5.6,74.71,74.71,0,0,0-9.16,11.07q-1.43,2-2.34,3.12c-.75.82-1.07,1.07-1.11.79a20.15,20.15,0,0,1,.64-4.08c.53-2.36,1.13-5.16,1.95-8.49.39-1.77.85-3.62,1.36-5.55S131.13,12.6,131.65,10.67Z"/><path class="cls-3" d="M159.73,28.07a1.49,1.49,0,0,0,.66.63.85.85,0,0,0,.6.2c.42-.06,1-.79,1.95-2.35a10.55,10.55,0,0,0,1.42-3.63,3.55,3.55,0,0,0,0-.86,2.49,2.49,0,0,0-1.56-2,2.68,2.68,0,0,0-1.32-.24A2,2,0,0,0,160,21a7.28,7.28,0,0,0-.77,3.68,8.83,8.83,0,0,0,0,2.14A2.38,2.38,0,0,0,159.73,28.07Zm-1.56,21.86a6,6,0,0,0,2.74,1.26,6.94,6.94,0,0,0,1.41-.13c.84-.12,2-.28,3.55-.64a39.25,39.25,0,0,0,6.51-2c2.72-1,5.49-2.13,8.38-3.39s5.44-2.41,8.12-3.71A59.68,59.68,0,0,0,195.11,38a14.28,14.28,0,0,0,2-1.35c.52-.36.76-.68.73-.89-.06-.42-1.54-.28-4.42.56s-7.86,2.53-14.87,4.94c-3.41,1.2-6.48,2.2-9.35,3.11a46,46,0,0,1-5.44,1.47c-2.1.3-3.35.05-3.81-.74s-.62-2.85-.37-6.17c.06-1.58.15-3,.28-4.11s.11-1.73.1-1.8-.09-.13-.25-.25a1.77,1.77,0,0,1-.53-.21l-.14,0c-.41.13-.82.76-1.36,2a41.49,41.49,0,0,0-1.55,4.72,32,32,0,0,0-.6,3.37,8.69,8.69,0,0,0-.13,2.66l.06.42a7.12,7.12,0,0,0,.63,2.41A6.36,6.36,0,0,0,158.17,49.93Z"/><path class="cls-3" d="M206.18,33.39c.21,0,.41-.13.69-.17s.35-.12.49-.14c.49-.06.79,0,.88.17s-.29.54-.93,1a56.41,56.41,0,0,1-5.84,4.18c-2.34,1.62-3.93,2.48-4.63,2.58-.14,0-.21,0-.22,0s-.29,0-.31-.17c-.05-.35.54-1.22,1.76-2.67a12.75,12.75,0,0,1,3.67-2.88A29.56,29.56,0,0,1,206.18,33.39ZM218.93,26a.54.54,0,0,1-.37-.09c-.14,0-.22,0-.36,0h-.07a4.14,4.14,0,0,0-1.15.44,19.31,19.31,0,0,0-2.09,1.37,12.15,12.15,0,0,1-3.24,1.88,22.16,22.16,0,0,1-4.64,1c-2,.36-3.55.65-4.51.92a13.65,13.65,0,0,0-2.81,1.4,22.1,22.1,0,0,0-4.19,3.66,9,9,0,0,0-2.19,3.74,5.8,5.8,0,0,0-.26,1.75v.07a2.28,2.28,0,0,0,.75,1.25c1,1.28,3,1.28,5.87.1s6.5-3.56,11-7.34l3.4-2.76c1-.78,1.48-1.14,1.57-1a3,3,0,0,1-.19,1.17,17.9,17.9,0,0,0-.4,2.27c-.29,2.47-.11,4.3.65,5.62a5.48,5.48,0,0,0,3.73,2.69,7.38,7.38,0,0,0,3.39.24l.21,0a27.42,27.42,0,0,0,5.47-1.77,66.76,66.76,0,0,0,7.89-3.82,94.87,94.87,0,0,0,8.15-5c1.3-.89,2.47-1.7,3.5-2.49a13,13,0,0,0,2.21-2.1c.49-.57.93-1,1.17-1.3-1.1.29-1.85.54-2.34.61-.68.24-2.17.81-4.53,1.78s-4.9,2.26-7.5,3.56A87.48,87.48,0,0,1,225,39c-2.74.89-4.44,1-5.11.29a2.82,2.82,0,0,1-.61-2.34,33,33,0,0,1,.87-5.48,13.06,13.06,0,0,0,.39-3.84A2.69,2.69,0,0,0,218.93,26Z"/><path class="cls-3" d="M248.92,39.16a1.76,1.76,0,0,0,1.48.37,3.42,3.42,0,0,0,1.41-.63,17.9,17.9,0,0,0,3.94-4.48c3.62-5.23,6.43-9.12,8.47-11.84s3.17-3.87,3.4-3.76.24.68.24,1.68-.05,2.22-.15,3.52a26.84,26.84,0,0,0,0,7.42A5.27,5.27,0,0,0,269.83,35c1.29,1,3.09,1.13,5.27.4a37.86,37.86,0,0,0,8-4.35c3.38-2.33,6.52-4.41,9.25-6.3a33.49,33.49,0,0,0,4.79-3.53,16.75,16.75,0,0,0-4.35,1c-1.55.65-3.1,1.37-4.7,2.16-2.92,1.56-5.76,3.24-8.52,4.92s-5,2.56-6.71,2.58c-.73-.11-1.19-.9-1.41-2.44a22.37,22.37,0,0,1,.16-5.95,32.86,32.86,0,0,0,.22-3.53c0-1.28,0-2.28-.15-3.12a9.43,9.43,0,0,0-.63-2.41,2.78,2.78,0,0,0-1.49-.94,2.93,2.93,0,0,0-1.15,0,6.17,6.17,0,0,0-3.1,1.79,83.77,83.77,0,0,0-7.76,9.81c-2.69,3.73-4.73,6.52-6,8.42,0-1.78-.09-3.13-.07-4.06-.13-3.41-.2-5.47-.31-6.24s-.52-1.15-1-1.08-.81.83-1.12,2.16a30.88,30.88,0,0,0-.76,4.75,35.22,35.22,0,0,0-.17,6.45,9,9,0,0,0,.12,1.84A2.89,2.89,0,0,0,248.92,39.16Z"/><path class="cls-3" d="M305.06,19.48c.21,0,.41-.13.69-.17s.34-.12.48-.14c.49-.07.79,0,.88.16s-.28.54-.92,1.06a58,58,0,0,1-5.84,4.18c-2.34,1.61-3.93,2.48-4.63,2.58-.14,0-.21,0-.22,0s-.29,0-.31-.17c-.05-.35.54-1.22,1.76-2.68a12.59,12.59,0,0,1,3.67-2.87A27.64,27.64,0,0,1,305.06,19.48Zm12.75-7.37a.54.54,0,0,1-.37-.09c-.14,0-.22,0-.36,0H317a4.19,4.19,0,0,0-1.15.45,19.31,19.31,0,0,0-2.09,1.37,12.6,12.6,0,0,1-3.24,1.88,22.85,22.85,0,0,1-4.64,1c-2,.36-3.55.64-4.51.92A13.88,13.88,0,0,0,298.57,19a22.14,22.14,0,0,0-4.19,3.67,8.91,8.91,0,0,0-2.19,3.73,5.48,5.48,0,0,0-.26,1.75v.07a2.28,2.28,0,0,0,.75,1.25c1,1.29,3,1.29,5.87.11s6.5-3.56,11-7.34L313,19.5c1-.77,1.49-1.13,1.58-1a2.88,2.88,0,0,1-.2,1.17,19.88,19.88,0,0,0-.39,2.27c-.3,2.47-.11,4.3.65,5.62a5.49,5.49,0,0,0,3.73,2.69,7.38,7.38,0,0,0,3.39.23l.21,0a26.77,26.77,0,0,0,5.47-1.76,65.47,65.47,0,0,0,7.89-3.83,94.87,94.87,0,0,0,8.15-5c1.3-.9,2.47-1.71,3.5-2.49a13.4,13.4,0,0,0,2.21-2.1c.49-.57.93-1,1.17-1.31-1.1.3-1.85.55-2.34.62-.68.24-2.17.8-4.54,1.78s-4.89,2.26-7.49,3.55a88.59,88.59,0,0,1-12.14,5.14q-4.09,1.32-5.1.29a2.82,2.82,0,0,1-.61-2.34,33,33,0,0,1,.87-5.48,13.06,13.06,0,0,0,.39-3.84A2.74,2.74,0,0,0,317.81,12.11Z"/><path class="cls-1" d="M56.86,149.47a30.68,30.68,0,0,0,.65,4.86c.16,1,.44,1.41.83,1.34.67-.11,1.36-1.33,2.13-3.75s1.9-7.38,3.56-15c1.31-6.19,2.52-11.86,3.77-17.25,1.19-5.18,2.53-10.68,3.93-16.39q1.17-4.36,2.54-9.38C75.09,90.54,76,87.11,77,83.35c1.08-4.06,2-7.71,2.89-10.84S81.4,66.69,82,64.4a60,60,0,0,0,1.53-9.51,10.86,10.86,0,0,0-.13-2.46,4.54,4.54,0,0,0-.59-1.69c-.87-1-1.65-1.5-2.42-1.37a12.1,12.1,0,0,0-4.16,2.41c-2.47,1.82-5.71,5.46-9.77,10.74-4.23,5.4-10.14,13.78-17.91,25.16-4.61,6.67-8.12,11.65-10.64,14.87-2.59,3.43-4,5-4.37,4.63s-.57-1-.71-2.36a34,34,0,0,1-.23-5.33,133.4,133.4,0,0,0-.53-15.12c-.5-4.08-1.21-6.45-1.94-7.21a4.48,4.48,0,0,0-3.81-.74,6.74,6.74,0,0,0-3.51,2.7,45.85,45.85,0,0,0-2.73,5.44c-1.08,2.38-2.19,5.15-3.43,8.35-2.15,5.94-4.5,13-6.88,21.07-2.56,8.2-4.81,16.44-6.92,25a105.32,105.32,0,0,0-2.73,12.9,5.7,5.7,0,0,0-.06,2c.14.78.38,1,1,.93.19,0,1.1-2.28,2.68-6.92s3.43-10,5.4-16.45c3.77-12.08,7-22,9.86-29.74S23.46,89.74,24.33,89c.51-.49.82.15,1,1.81s.34,6,.45,12.94c0,4.67.6,8,1.58,10.27s2.27,3.38,4.27,3.43c1.63.22,3.41-.39,5.33-1.92,1.75-1.39,4.4-4.44,7.75-9.19,1.78-2.4,3.83-5.44,6.2-9s5.2-7.86,8.3-12.87c2.52-3.82,4.65-7.07,6.43-10,1.82-2.71,3.4-5.07,4.64-7.07a84.29,84.29,0,0,1,4.95-7c.91-1,1.52-1.56,1.75-1.4s-.42,2.16-1.53,6.13S72.78,73.75,71,79.22Q62.82,104,59.44,120.69C57.19,131.82,56.36,141.4,56.86,149.47Z"/><path class="cls-1" d="M85.76,116c-.65-.28-1-1.21-1.26-2.66a15,15,0,0,1-.22-1.85,9.53,9.53,0,0,1,1-5.55,10.24,10.24,0,0,0,3.32,3.11,13.62,13.62,0,0,0,2.84,1.49,2.69,2.69,0,0,1-.36,1.36c-.38.66-.67,1.3-1,1.76A5.73,5.73,0,0,1,88,115.84a2.3,2.3,0,0,1-1,.38A1.56,1.56,0,0,1,85.76,116Zm1.95-15.14.29,0c.1,0,.18-.13.27-.15l.58-.1a3.9,3.9,0,0,1,3.26,1,2.75,2.75,0,0,1,.81,3.54,6.85,6.85,0,0,1-3-1.56A5.3,5.3,0,0,1,87.71,100.89Zm4.23-3.72a5.64,5.64,0,0,0-3.42-.8l-.19,0a5.94,5.94,0,0,0-2.67,1.26A12.12,12.12,0,0,0,82,103.37a33.78,33.78,0,0,0-1.86,6.48,12.73,12.73,0,0,0,0,4.27,9.77,9.77,0,0,0,.61,2.38c.79,2.25,1.83,3.66,3.25,4.41a5.14,5.14,0,0,0,3.48.59,5.42,5.42,0,0,0,1.59-.58A12,12,0,0,0,94,116.69a11.2,11.2,0,0,0,1.45-2.54c.45-.87.81-1.63,1.12-2.18.64.29,2.4.08,5.08-.48s5.55-1.26,8.47-2.16c1.52-.46,2.93-.91,4.42-1.46a35.71,35.71,0,0,0,3.73-1.44,73.85,73.85,0,0,0,7.14-3.53,53.81,53.81,0,0,0,5.75-3.58,10.86,10.86,0,0,0,1.65-1.38.94.94,0,0,0,.46-.77l0-.1c-.22-.16-1.87.13-5.11.89s-7.12,1.93-11.46,3.27c-4.63,1.4-8.7,2.6-12.14,3.4-3.6,1-6,1.44-7.22,1.35a35.27,35.27,0,0,0-.75-4.35C96.09,99.93,94.55,98.51,91.94,97.17Z"/><path class="cls-1" d="M133.79,89.73a13.37,13.37,0,0,1,1.69-5.17c1-1.76,1.8-2.79,2.57-2.93h.1c.09,0,.21.06.24.25a6.26,6.26,0,0,1-.15,1.42,21,21,0,0,1-1.4,3.42,12.64,12.64,0,0,1-1.58,2.36,1.49,1.49,0,0,1-1,.67C134.11,89.87,133.92,89.9,133.79,89.73Zm9-11.3a9.09,9.09,0,0,0-1.66-2.69,2.63,2.63,0,0,0-2.56-1c-1.74.3-3.62,1.52-5.54,3.64a19.45,19.45,0,0,0-4.36,8.11,15.87,15.87,0,0,0-.95,7.13l0,.09a6.72,6.72,0,0,0,2.75,4.4,5.14,5.14,0,0,0,2.86,1.59,12,12,0,0,0,4.2-.43,33.63,33.63,0,0,0,4.55-1.28,28.7,28.7,0,0,0,4.15-1.82A43.13,43.13,0,0,1,152,93.83c1.43-.35,2.24-.29,2.34.29a31.63,31.63,0,0,1-1.62,4.46q-1.67,4.15-4,9.64c-1.64,3.76-3.13,7.2-4.37,10.39s-2,5.31-2.21,6.15a7.8,7.8,0,0,0,.17,5,3.63,3.63,0,0,0,2.92,2.48,5.34,5.34,0,0,0,1.64.31c.12.08.31,0,.6,0a8.56,8.56,0,0,0,2.95-1.31,17,17,0,0,0,3.21-2.15,46,46,0,0,0,4.45-3.55,81.41,81.41,0,0,0,6.48-6.79c2.66-3,5.45-6.41,8.22-10s5.27-6.88,7.76-10.29,4.4-6.13,5.81-8.36c.7-1.12,1.22-2.1,1.69-2.88a2.37,2.37,0,0,0,.39-1.16.36.36,0,0,1-.13-.18c-.23-.16-.67.12-1.38.64S184.26,89,181.4,92c-1.5,1.65-3.54,3.69-5.87,6.28s-5.38,5.71-8.91,9.4c-4.45,4.75-8.32,8.8-11.63,12s-5.32,4.9-5.67,4.56c-.23-.16.07-1.3.86-3.62s1.85-4.8,3.22-7.82,2.39-5.68,3.38-8,1.65-4.26,2.25-6c1-3.17,1.43-5.52,1.26-7.08a6.28,6.28,0,0,0-2.23-3.69c-1.13-.8-2.67-1-4.81-.76a43.75,43.75,0,0,0-9.11,3.07c-1.67.69-2.87,1.19-3.43,1.39-.74.33-1.13.39-1.26.22s-.08-.49.51-1.09a27.14,27.14,0,0,0,1.71-2.18c1.56-2.46,2.21-4.46,2-6.21A27,27,0,0,0,142.76,78.43Z"/><path class="cls-1" d="M189.18,80.14A13.37,13.37,0,0,1,190.87,75c1-1.76,1.8-2.79,2.57-2.93h.1c.1,0,.21.06.24.25a6.26,6.26,0,0,1-.15,1.42,21,21,0,0,1-1.4,3.42,13.17,13.17,0,0,1-1.57,2.36,1.49,1.49,0,0,1-1,.67C189.5,80.28,189.31,80.31,189.18,80.14Zm9-11.3a9.31,9.31,0,0,0-1.66-2.69,2.65,2.65,0,0,0-2.57-1.05c-1.74.3-3.61,1.52-5.53,3.64A19.34,19.34,0,0,0,184,76.85a15.76,15.76,0,0,0-1,7.13l0,.09a6.76,6.76,0,0,0,2.75,4.4,5.14,5.14,0,0,0,2.86,1.59,12,12,0,0,0,4.2-.43,33.63,33.63,0,0,0,4.55-1.28,30,30,0,0,0,4.16-1.82,42.56,42.56,0,0,1,5.76-2.29c1.43-.35,2.24-.29,2.34.29A30.68,30.68,0,0,1,208.11,89q-1.67,4.16-4,9.64c-1.64,3.76-3.13,7.2-4.36,10.39s-2,5.31-2.22,6.15a7.8,7.8,0,0,0,.18,5,3.63,3.63,0,0,0,2.91,2.48,5.34,5.34,0,0,0,1.64.31c.12.08.31,0,.6,0a8.58,8.58,0,0,0,3-1.31,17.31,17.31,0,0,0,3.2-2.15,46,46,0,0,0,4.46-3.55A84.85,84.85,0,0,0,220,109.2c2.65-3,5.45-6.41,8.21-10s5.27-6.88,7.76-10.29,4.41-6.13,5.81-8.36c.7-1.12,1.23-2.1,1.69-2.88a2.27,2.27,0,0,0,.39-1.16.36.36,0,0,1-.13-.18c-.22-.16-.67.12-1.38.64s-2.65,2.45-5.52,5.43c-1.5,1.65-3.53,3.69-5.87,6.28s-5.37,5.71-8.91,9.4c-4.45,4.75-8.32,8.8-11.63,12s-5.31,4.9-5.67,4.56c-.23-.16.07-1.3.86-3.62s1.86-4.8,3.22-7.82,2.4-5.68,3.38-8,1.65-4.26,2.25-5.95c1-3.17,1.43-5.52,1.26-7.08a6.23,6.23,0,0,0-2.23-3.69c-1.13-.8-2.66-1-4.8-.76a43.56,43.56,0,0,0-9.11,3.07c-1.67.68-2.88,1.19-3.44,1.39-.74.33-1.13.39-1.26.22s-.08-.49.51-1.09,1.07-1.28,1.71-2.18c1.56-2.46,2.21-4.46,2-6.21A28.41,28.41,0,0,0,198.16,68.84Z"/><path class="cls-1" d="M246.38,59.2a2,2,0,0,0,.94.83,1.14,1.14,0,0,0,.84.25c.58-.1,1.39-1.13,2.6-3.33a14.74,14.74,0,0,0,1.81-5.09,4.74,4.74,0,0,0,0-1.19A3.49,3.49,0,0,0,250.31,48a3.78,3.78,0,0,0-1.84-.28,2.84,2.84,0,0,0-2,1.64c-.63,1-.92,2.75-.91,5.13a12.74,12.74,0,0,0,.12,3A3.35,3.35,0,0,0,246.38,59.2Zm-1.21,30.33A8.55,8.55,0,0,0,249,91.15a10.3,10.3,0,0,0,1.95-.24c1.16-.2,2.8-.49,4.89-1a54.75,54.75,0,0,0,8.91-3c3.73-1.44,7.5-3.19,11.45-5.07,3.78-1.74,7.44-3.57,11.08-5.49a83.66,83.66,0,0,0,8.49-5,20.14,20.14,0,0,0,2.64-1.95c.71-.52,1-1,1-1.26-.1-.58-2.15-.33-6.1,1S282.56,72.92,273,76.57c-4.66,1.8-8.87,3.32-12.81,4.7a65.58,65.58,0,0,1-7.45,2.28c-2.9.51-4.64.21-5.32-.86s-1-3.91-.78-8.52q0-3.28.21-5.7c0-1.59.08-2.4.06-2.5s-.13-.17-.36-.33a2.39,2.39,0,0,1-.74-.27l-.19,0c-.56.2-1.11,1.09-1.8,2.8a59,59,0,0,0-1.94,6.6,46.53,46.53,0,0,0-.68,4.69,11.54,11.54,0,0,0-.06,3.69l.1.58a10.15,10.15,0,0,0,1,3.31A9,9,0,0,0,245.17,89.53Z"/><path class="cls-1" d="M320.37,89.23l-.1,0c-.68.12-1.13-.2-1.28-1.07-.1,0-.11-.08-.13-.18-.15-.87.29-2.33,1.34-4.31a4.25,4.25,0,0,1,2.11,2.42,1.67,1.67,0,0,1-.12,1C321.71,88.4,321.14,89.1,320.37,89.23Zm-4.25-26.8c-.58-1.09-2-1.93-4.22-2.55a20,20,0,0,0-7-.28c-.29,0-.6,0-.79,0a15.65,15.65,0,0,0-2.94.81A9,9,0,0,0,298,62.19,3.93,3.93,0,0,0,296.47,66a7.2,7.2,0,0,0,1,2.61q2.34,4.06,9.27,7a27.61,27.61,0,0,0,3.65,1.55,21.65,21.65,0,0,0,2.69,1.23l2.07,1c-.54,1.49-1,2.66-1.3,3.41A13.4,13.4,0,0,0,313,89a5.9,5.9,0,0,0,2.35,4.37,6.22,6.22,0,0,0,5.5,1.33l.29,0a7.89,7.89,0,0,0,5.07-2.87,8.09,8.09,0,0,0,1.32-2.71,13.19,13.19,0,0,0,0-3.57,11.85,11.85,0,0,0-1-3.1,7,7,0,0,0-2.14-2.62,33.27,33.27,0,0,1,6.36-4.58c3.24-2,7-4.1,11.33-6.33,2.19-1.18,4.58-2.29,7-3.4s4.7-2.1,7-3.1a55.53,55.53,0,0,0,8.2-3.71c1.29-.62,1.78-1.2,1.72-1.58,0-.1-.13-.18-.36-.34a41.79,41.79,0,0,0-19.6,2.8,113.71,113.71,0,0,0-17.19,8c-2.6,1.64-4.83,3.12-6.59,4.42a29.93,29.93,0,0,0-3.73,3.13c-.42-.12-1.52-.73-3.36-1.6s-3.78-1.73-5.54-2.72a19.63,19.63,0,0,1-3.3-1.81,4.3,4.3,0,0,1-1.89-1.17,1.41,1.41,0,0,1-.61-1.78c.09-.61.91-1,2.23-1.48a32.63,32.63,0,0,1,3.7-.44,24.53,24.53,0,0,0,3.93-.28,5.38,5.38,0,0,0,2.2-.49A.74.74,0,0,0,316.12,62.43Z"/><path class="cls-2" d="M59.21,147.21a31.93,31.93,0,0,0,.65,4.86c.16,1,.44,1.41.83,1.35.67-.12,1.36-1.33,2.13-3.75s1.9-7.39,3.56-15c1.32-6.2,2.52-11.87,3.77-17.26,1.2-5.17,2.53-10.67,3.93-16.38q1.17-4.38,2.55-9.39c.81-3.32,1.71-6.76,2.75-10.52,1.08-4.06,2-7.71,2.89-10.84s1.48-5.82,2.08-8.11a58.88,58.88,0,0,0,1.53-9.51,10.86,10.86,0,0,0-.13-2.46,4.54,4.54,0,0,0-.59-1.69c-.87-1-1.65-1.5-2.42-1.37a12.28,12.28,0,0,0-4.16,2.41c-2.46,1.82-5.71,5.46-9.77,10.74C64.58,65.66,58.67,74,50.9,85.43c-4.61,6.66-8.12,11.64-10.64,14.86-2.59,3.43-4,5-4.37,4.64s-.57-1-.71-2.37A33,33,0,0,1,35,97.23a135.69,135.69,0,0,0-.53-15.11c-.51-4.09-1.22-6.45-2-7.22a4.43,4.43,0,0,0-3.8-.73,6.6,6.6,0,0,0-3.51,2.69,44.45,44.45,0,0,0-2.74,5.45c-1.08,2.37-2.19,5.15-3.42,8.34-2.16,5.94-4.51,13-6.89,21.08-2.56,8.19-4.81,16.43-6.92,25a107.36,107.36,0,0,0-2.73,12.9,5.48,5.48,0,0,0-.05,2c.13.77.37,1,1,.92.2,0,1.1-2.27,2.68-6.92s3.43-10,5.4-16.44c3.78-12.09,7-22,9.86-29.74s4.5-11.91,5.37-12.66c.51-.49.82.15,1,1.81s.34,6,.45,13c0,4.67.6,8,1.58,10.26S32,115.14,34,115.19c1.63.22,3.41-.39,5.33-1.91,1.75-1.4,4.4-4.44,7.76-9.2,1.77-2.39,3.83-5.43,6.19-9s5.2-7.86,8.31-12.87c2.52-3.82,4.64-7.07,6.42-10,1.82-2.7,3.4-5.06,4.64-7.07a84.29,84.29,0,0,1,5-7c.91-1,1.52-1.55,1.75-1.39s-.42,2.16-1.53,6.13S75.13,71.49,73.39,77c-5.48,16.56-9.35,30.35-11.6,41.47S58.71,139.14,59.21,147.21Z"/><path class="cls-2" d="M88.11,113.78c-.64-.29-1-1.22-1.26-2.67a15,15,0,0,1-.22-1.85,9.55,9.55,0,0,1,1-5.54,10.31,10.31,0,0,0,3.32,3.1,13.63,13.63,0,0,0,2.85,1.49,2.73,2.73,0,0,1-.37,1.36c-.38.66-.66,1.31-1,1.76a5.86,5.86,0,0,1-2.12,2.16,2.23,2.23,0,0,1-1,.37A1.54,1.54,0,0,1,88.11,113.78Zm2-15.15.29,0c.1,0,.18-.13.27-.15l.58-.1a3.91,3.91,0,0,1,3.26,1,2.74,2.74,0,0,1,.81,3.53,6.82,6.82,0,0,1-3-1.55A5.28,5.28,0,0,1,90.06,98.63Zm4.23-3.72a5.77,5.77,0,0,0-3.42-.8l-.19,0A5.87,5.87,0,0,0,88,95.4a12.12,12.12,0,0,0-3.68,5.71,33.65,33.65,0,0,0-1.86,6.49,12.67,12.67,0,0,0,0,4.26,10.25,10.25,0,0,0,.61,2.38c.79,2.25,1.83,3.66,3.25,4.41a5.08,5.08,0,0,0,3.48.59,5.28,5.28,0,0,0,1.59-.57,13.92,13.92,0,0,0,6.39-6.77c.44-.88.81-1.64,1.11-2.18.64.28,2.4.08,5.08-.49s5.55-1.26,8.48-2.16c1.51-.46,2.92-.9,4.42-1.46a34.18,34.18,0,0,0,3.72-1.44,77.51,77.51,0,0,0,7.15-3.52,55.18,55.18,0,0,0,5.74-3.58,10.86,10.86,0,0,0,1.65-1.38,1,1,0,0,0,.46-.78l0-.09c-.22-.16-1.86.12-5.11.88s-7.12,1.93-11.46,3.28c-4.63,1.39-8.7,2.6-12.14,3.39-3.6,1-6,1.44-7.22,1.35a31.73,31.73,0,0,0-.75-4.34C98.44,97.67,96.91,96.25,94.29,94.91Z"/><path class="cls-2" d="M136.14,87.47a13.28,13.28,0,0,1,1.69-5.16c1-1.77,1.8-2.8,2.57-2.93l.1,0c.09,0,.21.06.24.25a6.26,6.26,0,0,1-.15,1.42,21.11,21.11,0,0,1-1.4,3.43,13.35,13.35,0,0,1-1.58,2.36,1.46,1.46,0,0,1-1,.66C136.46,87.61,136.27,87.65,136.14,87.47Zm9-11.3a9.31,9.31,0,0,0-1.66-2.69,2.68,2.68,0,0,0-2.57-1c-1.74.3-3.61,1.52-5.53,3.64A19.34,19.34,0,0,0,131,84.18a15.76,15.76,0,0,0-1,7.13l0,.09a6.74,6.74,0,0,0,2.75,4.4,5.08,5.08,0,0,0,2.86,1.59,11.74,11.74,0,0,0,4.2-.43,30.92,30.92,0,0,0,4.55-1.28,29.38,29.38,0,0,0,4.16-1.82,42.56,42.56,0,0,1,5.76-2.29c1.43-.34,2.24-.28,2.34.3a32.34,32.34,0,0,1-1.62,4.45c-1.1,2.78-2.44,6-4,9.64s-3.13,7.2-4.37,10.4-2,5.31-2.21,6.14a7.73,7.73,0,0,0,.18,5,3.63,3.63,0,0,0,2.91,2.48,5.34,5.34,0,0,0,1.64.31c.12.08.31,0,.6,0a8.29,8.29,0,0,0,3-1.31,16.89,16.89,0,0,0,3.21-2.14,47.93,47.93,0,0,0,4.46-3.56,81.66,81.66,0,0,0,6.47-6.79c2.66-3,5.46-6.41,8.22-10s5.27-6.87,7.76-10.29,4.41-6.13,5.81-8.36c.7-1.11,1.23-2.1,1.69-2.87a2.27,2.27,0,0,0,.39-1.17.37.37,0,0,1-.13-.17c-.22-.16-.67.11-1.38.63s-2.66,2.45-5.52,5.43c-1.5,1.65-3.53,3.7-5.87,6.29s-5.37,5.7-8.91,9.39c-4.45,4.75-8.32,8.8-11.63,12.06s-5.32,4.89-5.67,4.56c-.23-.16.07-1.31.86-3.63s1.85-4.8,3.22-7.82,2.4-5.68,3.38-8,1.65-4.26,2.25-5.95a18.45,18.45,0,0,0,1.26-7.08,6.23,6.23,0,0,0-2.23-3.69c-1.13-.8-2.66-1-4.8-.76a44.17,44.17,0,0,0-9.11,3.07c-1.68.69-2.88,1.19-3.44,1.39-.74.33-1.13.4-1.26.22s-.08-.48.51-1.08,1.07-1.28,1.71-2.19c1.56-2.46,2.21-4.46,2-6.21A28.41,28.41,0,0,0,145.12,76.17Z"/><path class="cls-2" d="M191.53,77.88a13.63,13.63,0,0,1,1.69-5.16c1-1.77,1.8-2.8,2.57-2.93l.1,0c.1,0,.21.06.24.25a6.26,6.26,0,0,1-.15,1.42,20.61,20.61,0,0,1-1.39,3.42A14.25,14.25,0,0,1,193,77.23a1.5,1.5,0,0,1-1,.66C191.85,78,191.66,78.06,191.53,77.88Zm9-11.3a9.09,9.09,0,0,0-1.66-2.69,2.65,2.65,0,0,0-2.57-1c-1.74.3-3.61,1.52-5.53,3.64a19.34,19.34,0,0,0-4.36,8.11,15.9,15.9,0,0,0-1,7.13l0,.09a6.74,6.74,0,0,0,2.75,4.4,5.11,5.11,0,0,0,2.86,1.59,11.74,11.74,0,0,0,4.2-.43,31.49,31.49,0,0,0,4.55-1.28A28.39,28.39,0,0,0,204,84.27,42.1,42.1,0,0,1,209.74,82c1.43-.34,2.23-.28,2.33.29a29.26,29.26,0,0,1-1.61,4.46q-1.67,4.17-4,9.64c-1.63,3.76-3.13,7.2-4.36,10.4s-2,5.31-2.22,6.14a7.8,7.8,0,0,0,.18,5,3.63,3.63,0,0,0,2.91,2.48,5.42,5.42,0,0,0,1.65.31c.11.08.3.05.59,0a8.32,8.32,0,0,0,3-1.31,16.87,16.87,0,0,0,3.2-2.14,46.65,46.65,0,0,0,4.46-3.56,83.15,83.15,0,0,0,6.48-6.79c2.65-3,5.45-6.41,8.21-10s5.27-6.87,7.76-10.29,4.41-6.13,5.81-8.36c.7-1.11,1.23-2.1,1.69-2.88a2.37,2.37,0,0,0,.4-1.16s-.12-.08-.13-.17c-.23-.16-.68.11-1.39.63s-2.65,2.45-5.52,5.43c-1.5,1.65-3.53,3.7-5.87,6.29s-5.37,5.7-8.91,9.39c-4.44,4.75-8.31,8.8-11.63,12.06s-5.31,4.89-5.67,4.56c-.23-.16.07-1.31.86-3.63s1.86-4.8,3.22-7.82,2.4-5.68,3.38-8,1.65-4.26,2.25-6A18.45,18.45,0,0,0,218,80a6.23,6.23,0,0,0-2.23-3.69c-1.13-.8-2.66-1-4.8-.76a44.17,44.17,0,0,0-9.11,3.07c-1.67.69-2.88,1.19-3.44,1.39-.74.33-1.12.39-1.25.22s-.09-.48.5-1.08a27,27,0,0,0,1.71-2.19c1.57-2.46,2.21-4.46,2-6.21A27.14,27.14,0,0,0,200.51,66.58Z"/><path class="cls-2" d="M248.73,56.94a1.93,1.93,0,0,0,.94.83,1.14,1.14,0,0,0,.84.25c.58-.1,1.4-1.13,2.61-3.33a14.85,14.85,0,0,0,1.8-5.08,4.73,4.73,0,0,0,0-1.19,3.46,3.46,0,0,0-2.25-2.69,3.65,3.65,0,0,0-1.84-.28,2.82,2.82,0,0,0-2,1.64,10.2,10.2,0,0,0-.9,5.12,12.28,12.28,0,0,0,.11,3A3.36,3.36,0,0,0,248.73,56.94Zm-1.21,30.33a8.47,8.47,0,0,0,3.86,1.62,9.36,9.36,0,0,0,2-.24c1.16-.2,2.8-.48,4.89-1a55,55,0,0,0,8.92-3c3.72-1.44,7.5-3.19,11.45-5.06,3.77-1.75,7.43-3.58,11.07-5.5a81.81,81.81,0,0,0,8.49-5,19.48,19.48,0,0,0,2.64-2c.71-.52,1-1,1-1.26-.1-.58-2.15-.32-6.1,1s-10.76,3.85-20.37,7.5c-4.66,1.8-8.87,3.32-12.8,4.7A67.16,67.16,0,0,1,255,81.3c-2.9.5-4.64.2-5.32-.87s-1-3.91-.78-8.51c0-2.19.09-4.1.21-5.71s.08-2.4.06-2.49-.13-.18-.35-.34a2.44,2.44,0,0,1-.75-.27l-.19,0c-.56.19-1.1,1.08-1.8,2.79a59,59,0,0,0-1.94,6.6c-.31,1.65-.54,3.18-.68,4.69a11.84,11.84,0,0,0-.06,3.69l.1.58a10.15,10.15,0,0,0,1,3.31A8.87,8.87,0,0,0,247.52,87.27Z"/><path class="cls-2" d="M322.72,87h-.1c-.67.12-1.13-.2-1.28-1.07-.09,0-.11-.08-.13-.18-.15-.86.29-2.33,1.34-4.3a4.19,4.19,0,0,1,2.11,2.42,1.64,1.64,0,0,1-.12,1C324.06,86.15,323.49,86.84,322.72,87Zm-4.24-26.81c-.59-1.09-2-1.93-4.22-2.55a20,20,0,0,0-7-.27c-.29,0-.6,0-.79,0a15.65,15.65,0,0,0-2.94.81,9,9,0,0,0-3.18,1.74,3.94,3.94,0,0,0-1.52,3.85,7.16,7.16,0,0,0,1.05,2.6q2.34,4.07,9.27,7A27.62,27.62,0,0,0,312.79,75a21.25,21.25,0,0,0,2.69,1.22c.88.45,1.64.81,2.07,1-.54,1.49-1,2.67-1.3,3.41a13.4,13.4,0,0,0-.92,6.12,5.86,5.86,0,0,0,2.34,4.37,6.19,6.19,0,0,0,5.5,1.33l.29,0a7.83,7.83,0,0,0,5.07-2.86,8.23,8.23,0,0,0,1.32-2.72,12.79,12.79,0,0,0,0-3.57,12,12,0,0,0-1-3.1,7,7,0,0,0-2.14-2.61A32.67,32.67,0,0,1,333,73c3.24-2,7-4.11,11.32-6.34,2.19-1.17,4.58-2.28,7-3.39s4.71-2.11,7-3.11a56.78,56.78,0,0,0,8.2-3.7c1.29-.62,1.78-1.21,1.72-1.59,0-.1-.13-.18-.36-.34a41.86,41.86,0,0,0-19.59,2.8,113.39,113.39,0,0,0-17.2,8c-2.6,1.65-4.83,3.13-6.59,4.43a29.81,29.81,0,0,0-3.73,3.13c-.42-.13-1.52-.73-3.36-1.61s-3.78-1.73-5.54-2.72a19.32,19.32,0,0,1-3.3-1.81,4.28,4.28,0,0,1-1.89-1.16,1.41,1.41,0,0,1-.61-1.79c.1-.61.91-1.05,2.23-1.48a33,33,0,0,1,3.7-.44,24.53,24.53,0,0,0,3.93-.28,5.4,5.4,0,0,0,2.2-.48A.75.75,0,0,0,318.48,60.17Z"/><path class="cls-3" d="M61.57,145a32.07,32.07,0,0,0,.64,4.86c.17,1,.44,1.42.83,1.35.67-.12,1.36-1.33,2.13-3.75s1.91-7.39,3.56-15c1.32-6.19,2.52-11.87,3.78-17.25C73.7,110,75,104.45,76.43,98.74q1.18-4.38,2.55-9.39c.81-3.32,1.71-6.75,2.75-10.51,1.09-4.07,2-7.71,2.9-10.84s1.47-5.82,2.07-8.12a58.71,58.71,0,0,0,1.53-9.51,10.88,10.88,0,0,0-.12-2.46,5,5,0,0,0-.59-1.69c-.88-1-1.66-1.5-2.43-1.37a12.27,12.27,0,0,0-4.15,2.41c-2.47,1.82-5.72,5.47-9.78,10.74C66.93,63.41,61,71.78,53.26,83.17,48.64,89.83,45.13,94.82,42.61,98c-2.59,3.43-4,5-4.37,4.63s-.57-1-.71-2.36A33,33,0,0,1,37.31,95a135.78,135.78,0,0,0-.53-15.12c-.51-4.09-1.22-6.45-2-7.22a4.43,4.43,0,0,0-3.8-.73,6.69,6.69,0,0,0-3.51,2.69,45.93,45.93,0,0,0-2.74,5.45c-1.08,2.37-2.19,5.15-3.42,8.34-2.16,5.94-4.51,13-6.89,21.08-2.56,8.19-4.81,16.44-6.91,24.95a106,106,0,0,0-2.74,12.9,5.48,5.48,0,0,0-.05,2c.13.77.37,1,1,.93.2,0,1.1-2.28,2.68-6.93s3.43-10,5.41-16.44c3.77-12.09,7-22,9.86-29.74S28.16,85.23,29,84.48c.51-.48.82.16,1,1.82s.34,6,.45,12.94c0,4.67.6,8.05,1.58,10.26s2.27,3.39,4.27,3.44c1.63.21,3.41-.39,5.34-1.92,1.74-1.4,4.4-4.44,7.75-9.2,1.77-2.39,3.83-5.43,6.19-9s5.2-7.86,8.31-12.87c2.52-3.82,4.64-7.07,6.42-10,1.82-2.7,3.4-5.06,4.65-7.06a83.2,83.2,0,0,1,4.94-7c.91-1.06,1.52-1.56,1.75-1.4s-.42,2.16-1.52,6.13-2.69,8.61-4.42,14.08c-5.49,16.56-9.36,30.35-11.61,41.48S61.07,136.89,61.57,145Z"/><path class="cls-3" d="M90.46,111.52c-.64-.29-1-1.22-1.25-2.67A11.87,11.87,0,0,1,89,107a9.5,9.5,0,0,1,1-5.54,10.2,10.2,0,0,0,3.32,3.1,13.8,13.8,0,0,0,2.85,1.5,2.75,2.75,0,0,1-.36,1.35c-.39.66-.67,1.31-1,1.76a5.76,5.76,0,0,1-2.11,2.16,2.34,2.34,0,0,1-1,.38A1.59,1.59,0,0,1,90.46,111.52Zm2-15.15.29-.05c.1,0,.18-.13.28-.15l.57-.1a3.91,3.91,0,0,1,3.26,1,3.05,3.05,0,0,1,1.09,1.7,3.14,3.14,0,0,1-.28,1.84,7,7,0,0,1-3.05-1.56A5.33,5.33,0,0,1,92.41,96.37Zm4.23-3.71a5.63,5.63,0,0,0-3.42-.8l-.19,0a5.88,5.88,0,0,0-2.67,1.26,12,12,0,0,0-3.68,5.7,33.65,33.65,0,0,0-1.86,6.49,12.73,12.73,0,0,0,0,4.27,10.25,10.25,0,0,0,.61,2.38c.79,2.25,1.83,3.66,3.25,4.4a5.08,5.08,0,0,0,3.48.59,5.28,5.28,0,0,0,1.59-.57,12.14,12.14,0,0,0,4.94-4.23,11.42,11.42,0,0,0,1.45-2.54c.44-.87.81-1.63,1.11-2.18.65.28,2.4.08,5.09-.48s5.54-1.26,8.47-2.17c1.51-.46,2.92-.9,4.42-1.46a33.4,33.4,0,0,0,3.72-1.44,75.05,75.05,0,0,0,7.15-3.52,55.18,55.18,0,0,0,5.74-3.58,10.39,10.39,0,0,0,1.65-1.38.92.92,0,0,0,.46-.78v-.09c-.23-.16-1.87.12-5.12.88s-7.12,1.93-11.46,3.28c-4.63,1.4-8.7,2.6-12.14,3.39-3.6,1-6,1.44-7.22,1.35a31.73,31.73,0,0,0-.75-4.34C100.8,95.42,99.26,94,96.64,92.66Z"/><path class="cls-3" d="M138.49,85.21a13.51,13.51,0,0,1,1.69-5.16c1-1.76,1.8-2.8,2.57-2.93l.1,0c.1,0,.21.06.24.26a6.31,6.31,0,0,1-.15,1.42,21,21,0,0,1-1.39,3.42A14.12,14.12,0,0,1,140,84.56a1.52,1.52,0,0,1-1,.67C138.81,85.36,138.62,85.39,138.49,85.21Zm9-11.29a9.35,9.35,0,0,0-1.66-2.7,2.69,2.69,0,0,0-2.57-1c-1.74.31-3.61,1.53-5.53,3.65a19.27,19.27,0,0,0-4.36,8.11,15.72,15.72,0,0,0-1,7.12l0,.1a6.74,6.74,0,0,0,2.75,4.39A5,5,0,0,0,138,95.13a11.9,11.9,0,0,0,4.2-.42,32.06,32.06,0,0,0,4.55-1.29,29.59,29.59,0,0,0,4.16-1.81,41.27,41.27,0,0,1,5.76-2.29c1.44-.35,2.24-.29,2.34.29a30.84,30.84,0,0,1-1.61,4.45q-1.66,4.17-4,9.64c-1.64,3.76-3.13,7.2-4.36,10.4s-2,5.31-2.22,6.15a7.8,7.8,0,0,0,.18,5,3.61,3.61,0,0,0,2.91,2.47,5,5,0,0,0,1.65.32c.11.08.3,0,.59,0a8.25,8.25,0,0,0,3-1.3,17,17,0,0,0,3.2-2.15,46,46,0,0,0,4.46-3.55,86.63,86.63,0,0,0,6.48-6.79c2.65-3,5.45-6.41,8.21-10s5.27-6.88,7.76-10.29,4.41-6.13,5.81-8.36c.7-1.12,1.23-2.11,1.69-2.88a2.27,2.27,0,0,0,.39-1.16.36.36,0,0,1-.13-.18c-.22-.16-.67.12-1.38.64s-2.65,2.44-5.52,5.43c-1.5,1.65-3.53,3.69-5.87,6.28s-5.37,5.7-8.91,9.4c-4.44,4.74-8.32,8.79-11.63,12s-5.31,4.9-5.67,4.56c-.23-.16.07-1.3.86-3.63s1.86-4.79,3.22-7.81,2.4-5.69,3.38-8,1.65-4.26,2.25-6A18.42,18.42,0,0,0,165,87.28a6.29,6.29,0,0,0-2.23-3.69c-1.13-.79-2.66-1-4.8-.75a44,44,0,0,0-9.11,3.06c-1.67.69-2.88,1.2-3.44,1.39-.74.33-1.12.4-1.25.22s-.09-.48.5-1.08,1.07-1.28,1.71-2.18c1.57-2.46,2.21-4.46,2-6.22A26.71,26.71,0,0,0,147.47,73.92Z"/><path class="cls-3" d="M193.88,75.62a13.68,13.68,0,0,1,1.69-5.16c1-1.76,1.8-2.8,2.58-2.93l.09,0c.1,0,.21.06.25.26a5.9,5.9,0,0,1-.16,1.42,21,21,0,0,1-1.39,3.42A14.12,14.12,0,0,1,195.36,75a1.56,1.56,0,0,1-1,.67C194.2,75.77,194,75.8,193.88,75.62Zm9-11.29a9.14,9.14,0,0,0-1.66-2.7,2.69,2.69,0,0,0-2.57-1.05c-1.73.31-3.61,1.52-5.53,3.65a19.32,19.32,0,0,0-4.36,8.11,15.83,15.83,0,0,0-1,7.12v.1A6.74,6.74,0,0,0,190.55,84a5.11,5.11,0,0,0,2.86,1.59,11.9,11.9,0,0,0,4.2-.42,31.7,31.7,0,0,0,4.55-1.29A29.59,29.59,0,0,0,206.32,82a41.81,41.81,0,0,1,5.77-2.29c1.43-.35,2.23-.29,2.33.29a29.41,29.41,0,0,1-1.61,4.45q-1.67,4.17-4,9.64c-1.63,3.76-3.12,7.2-4.36,10.4s-2,5.31-2.22,6.15a7.8,7.8,0,0,0,.18,5,3.61,3.61,0,0,0,2.91,2.47,5.06,5.06,0,0,0,1.65.32c.11.08.3,0,.59,0a8.44,8.44,0,0,0,3-1.3,17.34,17.34,0,0,0,3.21-2.15,44.84,44.84,0,0,0,4.45-3.56,82.64,82.64,0,0,0,6.48-6.78c2.65-3,5.45-6.41,8.21-10s5.27-6.88,7.76-10.29,4.41-6.13,5.81-8.37c.7-1.11,1.23-2.1,1.69-2.87a2.43,2.43,0,0,0,.4-1.16.31.31,0,0,1-.13-.18c-.23-.16-.68.12-1.38.64s-2.66,2.44-5.52,5.43c-1.51,1.65-3.54,3.69-5.87,6.28s-5.38,5.7-8.91,9.4c-4.45,4.74-8.32,8.79-11.64,12.05s-5.31,4.9-5.67,4.56c-.22-.16.07-1.31.87-3.63s1.85-4.79,3.22-7.81,2.39-5.69,3.37-8,1.65-4.26,2.25-6a18.25,18.25,0,0,0,1.26-7.08A6.29,6.29,0,0,0,218.15,74c-1.13-.79-2.66-1-4.8-.75a44.21,44.21,0,0,0-9.11,3.06c-1.67.69-2.88,1.2-3.44,1.39-.74.33-1.12.4-1.25.22s-.09-.48.51-1.08,1.07-1.28,1.71-2.19c1.56-2.45,2.21-4.45,2-6.21A26.71,26.71,0,0,0,202.86,64.33Z"/><path class="cls-3" d="M251.09,54.68a2,2,0,0,0,.94.84,1.22,1.22,0,0,0,.83.25c.58-.1,1.4-1.14,2.61-3.34a14.85,14.85,0,0,0,1.8-5.08,4.74,4.74,0,0,0,0-1.19A3.46,3.46,0,0,0,255,43.47a3.76,3.76,0,0,0-1.84-.28,2.86,2.86,0,0,0-2,1.64c-.62,1-.92,2.74-.9,5.13a12.31,12.31,0,0,0,.11,3A3.27,3.27,0,0,0,251.09,54.68ZM249.88,85a8.39,8.39,0,0,0,3.86,1.62,9.36,9.36,0,0,0,1.94-.24c1.16-.2,2.8-.48,4.89-1a55,55,0,0,0,8.92-3c3.73-1.44,7.5-3.18,11.45-5.06,3.77-1.75,7.43-3.57,11.07-5.5a80,80,0,0,0,8.49-5,20.57,20.57,0,0,0,2.65-1.94c.7-.52,1-1,1-1.27-.1-.58-2.14-.32-6.1,1s-10.76,3.85-20.37,7.5c-4.66,1.8-8.87,3.33-12.8,4.7A65.83,65.83,0,0,1,257.39,79c-2.89.5-4.64.21-5.32-.87s-1-3.91-.78-8.51q0-3.28.21-5.7c0-1.6.08-2.4.06-2.5s-.13-.18-.35-.34a2.52,2.52,0,0,1-.74-.26l-.2,0c-.56.2-1.1,1.08-1.8,2.8a61,61,0,0,0-1.94,6.59c-.31,1.65-.54,3.18-.68,4.69a11.83,11.83,0,0,0-.06,3.69l.11.58a9.53,9.53,0,0,0,1,3.31A8.67,8.67,0,0,0,249.88,85Z"/><path class="cls-3" d="M325.07,84.72H325c-.67.12-1.13-.2-1.28-1.07-.09,0-.11-.08-.13-.17-.15-.87.3-2.34,1.35-4.31A4.23,4.23,0,0,1,327,81.6a1.64,1.64,0,0,1-.12,1C326.42,83.89,325.84,84.58,325.07,84.72Zm-4.24-26.8c-.59-1.09-2-1.94-4.22-2.55a20,20,0,0,0-7-.28c-.29,0-.59,0-.79,0a14.92,14.92,0,0,0-2.94.8,8.9,8.9,0,0,0-3.18,1.75,3.94,3.94,0,0,0-1.52,3.84,7.34,7.34,0,0,0,1.05,2.6q2.34,4.06,9.27,7a27.62,27.62,0,0,0,3.65,1.56,21.24,21.24,0,0,0,2.7,1.22c.87.45,1.63.81,2.06,1-.53,1.48-1,2.66-1.3,3.4a13.57,13.57,0,0,0-.92,6.13A5.85,5.85,0,0,0,320,88.87a6.2,6.2,0,0,0,5.5,1.34l.29,0a7.86,7.86,0,0,0,5.07-2.87,8.08,8.08,0,0,0,1.32-2.71,12.86,12.86,0,0,0,0-3.58,11.61,11.61,0,0,0-1-3.1A7,7,0,0,0,329,75.29a33,33,0,0,1,6.37-4.58c3.24-1.95,7-4.1,11.33-6.34,2.18-1.17,4.57-2.28,7-3.39s4.71-2.11,7-3.1a57.34,57.34,0,0,0,8.21-3.71c1.28-.62,1.78-1.2,1.71-1.59,0-.1-.13-.18-.36-.34A42,42,0,0,0,350.65,55a113.36,113.36,0,0,0-17.2,8.05c-2.6,1.64-4.83,3.12-6.59,4.42a30.72,30.72,0,0,0-3.73,3.13c-.42-.13-1.52-.73-3.36-1.6s-3.78-1.74-5.54-2.72a20,20,0,0,1-3.3-1.82A4.28,4.28,0,0,1,309,63.34a1.41,1.41,0,0,1-.61-1.79c.1-.61.92-1,2.23-1.48a35.65,35.65,0,0,1,3.7-.44,24.53,24.53,0,0,0,3.93-.28,5.2,5.2,0,0,0,2.2-.48A.74.74,0,0,0,320.83,57.92Z"/></g></g></svg>