<svg xmlns="http://www.w3.org/2000/svg" viewBox="0 0 465.2 174.9"><defs><style>.cls-1,.cls-2{fill:#d22b6e;}.cls-1{opacity:0.3;}.cls-2{opacity:0.5;}.cls-3{fill:#2cdc7f;}</style></defs><g id="Layer_2" data-name="Layer 2"><g id="Layer_1-2" data-name="Layer 1"><path class="cls-1" d="M71.88,83.36a.48.48,0,0,0,.5.19c.23,0,.44-.44.6-1.06.2-1,.39-3.4.63-7.24.36-7.94,1-15.31,2-22.16A90.4,90.4,0,0,1,79.05,37a9.47,9.47,0,0,1,1.38-3.14c.38-.43.75-.34,1,.31,0,.22.18,1.42.38,3.47s.33,4.59.49,7.3c.33,6.28.7,11.33,1.15,15.13A52,52,0,0,0,85,68.84,9.54,9.54,0,0,0,86,71.52a4.09,4.09,0,0,0,1.32,1.53q2.39,1.77,4.75-.65c1.54-1.55,3-4.43,4.43-8.57.63-2,1.51-5,2.53-9s2.1-8.31,3.23-12.86,2.1-8.83,3.11-13.18,1.71-7.93,2.27-10.79c.26-1.51.52-2.79.66-3.75a6.6,6.6,0,0,0,.13-1.6v-.06c-.18-.31-.33-.45-.5-.42s-.41.26-.64.55a27.6,27.6,0,0,0-2.4,4.64c-.51,1.16-1,2.26-1.5,3.4s-.9,2.35-1.33,3.6c-.84,2.39-1.67,5.08-2.56,8.06s-1.78,6.73-2.86,11c-.8,3.37-1.57,6.33-2.21,8.85S93.24,57,92.74,58.8a62.67,62.67,0,0,1-2.22,6.88c-.57,1.17-1,1.62-1.4,1.35s-.7-2.48-1.24-6.68-1.15-9.6-1.72-16.18a73.23,73.23,0,0,0-1.42-9.78c-.66-2.6-1.3-4.21-2-4.76a3,3,0,0,0-1-.15,5,5,0,0,0-1.28.27c-1.62.63-3.09,3.33-4.53,8.07a103,103,0,0,0-3.36,18.06q-.3,2.34-.45,5.34c-.16,2-.3,4.09-.32,6.19-.16,2.59-.22,5-.25,7.39s-.09,4.27,0,5.77a11,11,0,0,0,.12,2,2.09,2.09,0,0,0,0,.52C71.8,83.26,71.82,83.37,71.88,83.36Z"/><path class="cls-1" d="M113.07,45a5.88,5.88,0,0,1,1.45-.83c.34-.07.55-.17.77-.22l.17,0c.18,0,.3,0,.33.16a.78.78,0,0,1-.09.43,3.11,3.11,0,0,1-.77,1,8,8,0,0,1-2.22,1.35,10.3,10.3,0,0,1-1,.28l-.17,0c-.17,0-.23,0-.26-.12s.07-.25.3-.53A10.13,10.13,0,0,1,113.07,45Zm5.32.11c.61-1.24.64-2.24,0-3a3.2,3.2,0,0,0-2.86-.86l-.39.08-.56.12-1,.38a12.87,12.87,0,0,0-4.41,3.43,17,17,0,0,0-3,4.89,7.7,7.7,0,0,0-.67,2.59,5.37,5.37,0,0,0,0,1.85l.08.39a4.83,4.83,0,0,0,1.67,2.39,5.52,5.52,0,0,0,2.75,1.46,12,12,0,0,0,4.84,0l.67-.15a21.64,21.64,0,0,0,5.73-2.13,32.27,32.27,0,0,0,3.35-2c1.11-.82,2.28-1.65,3.36-2.57a37.38,37.38,0,0,0,5.1-4.87c1.41-1.58,2.06-2.64,2-3.27l0-.11c0-.11-.11-.27-.14-.38l-.16-.2a28.81,28.81,0,0,0-2.46,1.57c-1.59,1-3.42,2.29-5.48,3.84-4.27,3.23-7.69,5.29-10.32,6.07a11.21,11.21,0,0,1-6.65.48,2.24,2.24,0,0,1-1.42-1.45,3.7,3.7,0,0,1,.18-2.49,2.21,2.21,0,0,1,.79-1.21,6.62,6.62,0,0,1,1.94-.76,21.48,21.48,0,0,0,4.51-1.83A5.74,5.74,0,0,0,118.39,45.07Z"/><path class="cls-1" d="M140.19,29.11c.8-2.85,1.73-5.61,2.7-8.2a58.42,58.42,0,0,1,2.76-6.24,13.4,13.4,0,0,1,1.26-2.07c.36-.48.65-.78.93-.83l.11,0H148a.39.39,0,0,1,.17.26,7.43,7.43,0,0,1-.15,2c-.33,1.47-.79,3.19-1.41,5.19-.35,1.12-.76,2.2-1.16,3.33s-.86,2.28-1.35,3.32a70,70,0,0,1-3.4,7.06c-.86,1.47-1.41,2.16-1.63,2.21a.15.15,0,0,1-.2-.13,7,7,0,0,1,.32-2C139.43,31.83,139.79,30.53,140.19,29.11ZM151,11.39a4.8,4.8,0,0,0-.56-2.92,2.13,2.13,0,0,0-2.2-.52,3.74,3.74,0,0,0-1.89,1.27,21.39,21.39,0,0,0-2.16,3,61.87,61.87,0,0,0-4.28,9.29,123.52,123.52,0,0,0-4.14,12.93,70.65,70.65,0,0,0-2.72,14.73,14.94,14.94,0,0,0,.23,3.86,4.57,4.57,0,0,0,1.68,3,3.75,3.75,0,0,0,3,.47l.16,0a9.42,9.42,0,0,0,3.55-1.68c.51-.34,1.34-1.1,2.62-2.24s2.49-2.28,3.75-3.47,2.73-2.56,4.39-4.07,3.09-2.75,4.17-3.68c.25-.23.63-.6,1.23-1.08s.94-.78,1.33-1.15a1.3,1.3,0,0,0,.53-.81c0-.11-.44-.14-1.24-.09a16,16,0,0,0-5.81,2.57,80,80,0,0,0-8.56,6.64c-1.68,1.46-3.17,2.65-4.38,3.54s-2,1.35-2.24,1.29c-.47,0-.76-.6-.83-1.75a25.34,25.34,0,0,1,.3-5.19,11.34,11.34,0,0,1,1-3.53,62.72,62.72,0,0,1,3.16-5.45,76.49,76.49,0,0,0,4.71-8.62A86.81,86.81,0,0,0,149.31,19c.46-1.44.87-2.81,1.16-4.15A19.68,19.68,0,0,0,151,11.39Z"/><path class="cls-1" d="M164.57,24c.79-2.85,1.73-5.61,2.69-8.2A56.3,56.3,0,0,1,170,9.53a12.68,12.68,0,0,1,1.25-2.07c.37-.48.65-.78.93-.83l.11,0h.06a.39.39,0,0,1,.17.26,7.58,7.58,0,0,1-.16,2c-.33,1.47-.78,3.19-1.41,5.19-.35,1.12-.76,2.2-1.16,3.33s-.86,2.28-1.34,3.32a72.22,72.22,0,0,1-3.4,7.06c-.86,1.47-1.41,2.17-1.64,2.21a.15.15,0,0,1-.2-.13,7.21,7.21,0,0,1,.33-2.05C163.8,26.69,164.17,25.39,164.57,24ZM175.39,6.25a4.74,4.74,0,0,0-.55-2.92,2.16,2.16,0,0,0-2.21-.52,3.82,3.82,0,0,0-1.89,1.27,22.23,22.23,0,0,0-2.16,3,62,62,0,0,0-4.27,9.29,121.13,121.13,0,0,0-4.15,12.93,70.65,70.65,0,0,0-2.72,14.73,15.4,15.4,0,0,0,.23,3.86,4.61,4.61,0,0,0,1.69,3,3.72,3.72,0,0,0,3,.47l.17,0a9.49,9.49,0,0,0,3.55-1.68,33.18,33.18,0,0,0,2.61-2.24c1.23-1.08,2.49-2.28,3.76-3.47s2.72-2.56,4.38-4.07,3.09-2.75,4.18-3.68c.24-.23.63-.6,1.23-1.08s.94-.78,1.33-1.15a1.27,1.27,0,0,0,.52-.81c0-.11-.43-.14-1.24-.09a16,16,0,0,0-5.81,2.57,81,81,0,0,0-8.56,6.64c-1.67,1.46-3.17,2.65-4.38,3.54s-2,1.35-2.23,1.29c-.47,0-.77-.6-.84-1.75a25.54,25.54,0,0,1,.31-5.19,11,11,0,0,1,1-3.53,61.44,61.44,0,0,1,3.16-5.44,74.4,74.4,0,0,0,4.71-8.63,86.81,86.81,0,0,0,3.46-8.71c.46-1.44.87-2.81,1.17-4.15A19.6,19.6,0,0,0,175.39,6.25Z"/><path class="cls-1" d="M186.11,62.59l0-.16a4.77,4.77,0,0,1,.75-2.78,31,31,0,0,1,2.49-4.2c.53-.81,1.07-1.57,1.62-2.26s1.06-1.33,1.53-1.9l.06.05a4,4,0,0,1-.35,1.06c-.31.77-.7,1.66-1.13,2.69l-.76,1.61c-.29.59-.53,1.1-.73,1.55a19.65,19.65,0,0,1-2.3,4c-.38.42-.61.71-.78.74S186.18,62.93,186.11,62.59Zm16.33-41.07a2.64,2.64,0,0,0-.66-.1c-.11,0-.29,0-.46,0l-.17,0a7.9,7.9,0,0,0-2.6,2Q197,25.23,194.11,29a78.68,78.68,0,0,1-6.34,7.51c-1.35,1.34-2.19,1.75-2.56,1.13A3.66,3.66,0,0,1,185,36a18.12,18.12,0,0,1,.12-3,16.78,16.78,0,0,0,0-3.84c-.1-.51-.47-.6-1.1-.24a4.65,4.65,0,0,0-.77,2.14c-.31,1.29-.61,2.64-.8,4-.14,1-.2,1.79-.27,2.56a6.38,6.38,0,0,0,.07,1.73,3.55,3.55,0,0,0,3.92,2.56A9.55,9.55,0,0,0,190,39.41a46.23,46.23,0,0,0,5.15-5.69c.92-1.18,1.81-2.19,2.56-3s1.09-1.22,1.21-1.19a17.66,17.66,0,0,1-.41,2.19c-.3,1.34-.69,2.82-1.11,4.42-.35,1.36-.69,2.54-1.05,3.6a14.36,14.36,0,0,1-.71,2.13,15.38,15.38,0,0,1-1.18,1.59c-.74.92-1.54,1.84-2.39,2.78a77.62,77.62,0,0,0-6.27,8.37,22.3,22.3,0,0,0-3.27,6.87,10.59,10.59,0,0,0-.45,3.94l0,.11a2.85,2.85,0,0,0,1.39,1.92,3.16,3.16,0,0,0,2.69.59c1.23-.25,2.53-1.28,3.88-3.14,2.28-3,4.79-8.53,7.52-16.56.72-2.13,1.32-3.72,1.68-4.78,4.06-4,7.16-6.93,9.24-8.94,2.42-2.32,4.32-4.12,5.58-5.31s2.19-2,2.71-2.62a.53.53,0,0,0,.25-.46c0-.05-.08-.1-.16-.2a1.1,1.1,0,0,0-.87,0c-.65.26-1.65.76-2.91,1.38a28.44,28.44,0,0,0-4.94,3.37c-1.69,1.4-3.17,2.65-4.45,3.79s-2.09,2-2.35,2.13,0-.52.35-1.94.74-2.84,1.15-4.5a31.06,31.06,0,0,0,1-6.32A2.48,2.48,0,0,0,202.44,21.52Z"/><path class="cls-2" d="M73.2,82a.45.45,0,0,0,.5.18c.23,0,.44-.44.6-1.05.2-1,.39-3.41.63-7.24.36-8,1-15.31,2-22.16a90.4,90.4,0,0,1,3.42-16.1,9.55,9.55,0,0,1,1.38-3.15c.38-.43.75-.33,1,.32,0,.22.18,1.41.38,3.47s.33,4.59.49,7.29c.33,6.28.7,11.33,1.15,15.14a51.68,51.68,0,0,0,1.5,8.77,9.5,9.5,0,0,0,1.09,2.69,4.26,4.26,0,0,0,1.32,1.53q2.38,1.77,4.75-.66c1.54-1.55,3-4.42,4.43-8.56.63-2,1.51-5,2.53-9s2.1-8.31,3.23-12.86,2.1-8.83,3.11-13.18,1.71-7.94,2.27-10.79c.26-1.51.52-2.79.66-3.75a6.6,6.6,0,0,0,.13-1.6v-.06c-.18-.31-.33-.46-.5-.42a1.39,1.39,0,0,0-.64.54,27.41,27.41,0,0,0-2.4,4.65c-.51,1.15-1,2.25-1.49,3.4s-.91,2.35-1.34,3.6c-.84,2.39-1.67,5.07-2.56,8.06s-1.78,6.72-2.86,11c-.8,3.37-1.57,6.33-2.21,8.85s-1.22,4.69-1.72,6.48a62.67,62.67,0,0,1-2.22,6.88c-.57,1.17-1,1.62-1.4,1.34s-.7-2.47-1.24-6.67-1.15-9.6-1.72-16.18A73.23,73.23,0,0,0,86.06,33c-.66-2.6-1.3-4.21-2-4.76a3,3,0,0,0-1-.15,5,5,0,0,0-1.28.27c-1.62.63-3.09,3.33-4.53,8.06a103.29,103.29,0,0,0-3.36,18.07q-.3,2.34-.45,5.34c-.16,2-.3,4.08-.32,6.19-.16,2.59-.22,5-.25,7.39s-.09,4.27,0,5.77a11.11,11.11,0,0,0,.12,2,2.15,2.15,0,0,0,0,.52C73.12,81.9,73.14,82,73.2,82Z"/><path class="cls-2" d="M114.39,43.6a5.57,5.57,0,0,1,1.45-.83c.34-.07.55-.17.77-.22l.17,0c.18,0,.3.06.33.17a.75.75,0,0,1-.09.42,3.16,3.16,0,0,1-.77,1A7.69,7.69,0,0,1,114,45.48a6.75,6.75,0,0,1-1,.28l-.17,0c-.17,0-.23,0-.26-.12s.07-.25.3-.53A10.13,10.13,0,0,1,114.39,43.6Zm5.32.1c.61-1.23.64-2.23,0-3a3.19,3.19,0,0,0-2.86-.85l-.39.08-.56.12-1,.38a12.87,12.87,0,0,0-4.41,3.43,17,17,0,0,0-3,4.89,7.64,7.64,0,0,0-.67,2.59,5.38,5.38,0,0,0,0,1.85l.08.39a4.83,4.83,0,0,0,1.67,2.39,5.52,5.52,0,0,0,2.75,1.46,11.87,11.87,0,0,0,4.84,0l.67-.14a21.68,21.68,0,0,0,5.73-2.14,33.9,33.9,0,0,0,3.35-2c1.11-.82,2.28-1.65,3.36-2.58a36.75,36.75,0,0,0,5.1-4.86c1.41-1.58,2.06-2.65,2-3.27l0-.11c0-.12-.11-.27-.14-.38l-.16-.2a26,26,0,0,0-2.46,1.57c-1.59,1-3.42,2.29-5.48,3.83-4.27,3.23-7.69,5.29-10.32,6.08a11.28,11.28,0,0,1-6.65.47,2.2,2.2,0,0,1-1.42-1.45,3.68,3.68,0,0,1,.18-2.48,2.27,2.27,0,0,1,.79-1.22,6.92,6.92,0,0,1,1.94-.76,21,21,0,0,0,4.51-1.82A5.69,5.69,0,0,0,119.71,43.7Z"/><path class="cls-2" d="M141.51,27.75c.8-2.85,1.73-5.61,2.7-8.21A59.06,59.06,0,0,1,147,13.31a12.93,12.93,0,0,1,1.26-2.07c.36-.48.65-.78.93-.84l.11,0h0a.44.44,0,0,1,.18.25,8.12,8.12,0,0,1-.16,2c-.33,1.47-.79,3.19-1.41,5.19-.35,1.12-.76,2.2-1.16,3.33s-.86,2.28-1.35,3.31a69.22,69.22,0,0,1-3.4,7.07c-.86,1.46-1.41,2.16-1.63,2.21a.15.15,0,0,1-.2-.13,6.94,6.94,0,0,1,.32-2C140.75,30.47,141.11,29.17,141.51,27.75ZM152.34,10a4.79,4.79,0,0,0-.56-2.91,2.11,2.11,0,0,0-2.2-.52,3.74,3.74,0,0,0-1.89,1.27,20.83,20.83,0,0,0-2.16,3,61.87,61.87,0,0,0-4.28,9.29,123.52,123.52,0,0,0-4.14,12.93,70.54,70.54,0,0,0-2.72,14.73,15,15,0,0,0,.23,3.86,4.57,4.57,0,0,0,1.68,3,3.75,3.75,0,0,0,3,.47l.16,0A9.42,9.42,0,0,0,143,53.47a33.2,33.2,0,0,0,2.62-2.25c1.23-1.07,2.49-2.27,3.75-3.47s2.73-2.55,4.39-4.07S156.88,40.93,158,40c.25-.23.63-.6,1.23-1.08s.95-.78,1.33-1.15a1.3,1.3,0,0,0,.53-.81c0-.12-.44-.14-1.24-.09A15.76,15.76,0,0,0,154,39.44a81.29,81.29,0,0,0-8.56,6.64c-1.68,1.46-3.17,2.65-4.38,3.55s-2,1.35-2.24,1.29c-.46,0-.76-.6-.83-1.75a25.31,25.31,0,0,1,.3-5.19,11.34,11.34,0,0,1,1-3.53A62.72,62.72,0,0,1,142.46,35a77.37,77.37,0,0,0,4.71-8.62,87.77,87.77,0,0,0,3.46-8.71c.46-1.44.87-2.81,1.16-4.15A19.64,19.64,0,0,0,152.34,10Z"/><path class="cls-2" d="M165.89,22.61c.79-2.85,1.73-5.61,2.69-8.21a56.89,56.89,0,0,1,2.77-6.23A12.26,12.26,0,0,1,172.6,6.1c.37-.48.65-.78.93-.84l.11,0h.06a.39.39,0,0,1,.17.25,7.65,7.65,0,0,1-.16,2c-.33,1.47-.78,3.19-1.41,5.19-.34,1.12-.76,2.2-1.16,3.33s-.86,2.28-1.34,3.31a71.4,71.4,0,0,1-3.4,7.07c-.86,1.46-1.41,2.16-1.64,2.21a.15.15,0,0,1-.2-.13,7.12,7.12,0,0,1,.33-2.05C165.12,25.33,165.49,24,165.89,22.61ZM176.71,4.88A4.72,4.72,0,0,0,176.16,2,2.13,2.13,0,0,0,174,1.45a3.82,3.82,0,0,0-1.89,1.27,21.62,21.62,0,0,0-2.16,3A62,62,0,0,0,165.63,15,121.13,121.13,0,0,0,161.48,28a70.54,70.54,0,0,0-2.72,14.73,15.47,15.47,0,0,0,.23,3.86,4.61,4.61,0,0,0,1.69,3,3.72,3.72,0,0,0,3,.47l.17,0a9.49,9.49,0,0,0,3.55-1.68A33.18,33.18,0,0,0,170,46.09c1.23-1.08,2.49-2.28,3.76-3.48s2.72-2.55,4.38-4.07,3.09-2.75,4.18-3.67c.24-.23.63-.6,1.23-1.08s.94-.78,1.33-1.15a1.27,1.27,0,0,0,.52-.81c0-.12-.43-.14-1.24-.09a15.76,15.76,0,0,0-5.81,2.56,82.34,82.34,0,0,0-8.56,6.64c-1.67,1.46-3.17,2.65-4.38,3.55s-2,1.35-2.23,1.29c-.47,0-.77-.6-.84-1.75a25.51,25.51,0,0,1,.31-5.19,11,11,0,0,1,1-3.53,62.72,62.72,0,0,1,3.16-5.45,74.25,74.25,0,0,0,4.71-8.62A87.77,87.77,0,0,0,175,12.53c.46-1.44.87-2.81,1.17-4.15A19.56,19.56,0,0,0,176.71,4.88Z"/><path class="cls-2" d="M187.43,61.23l0-.17a4.8,4.8,0,0,1,.75-2.78,30.88,30.88,0,0,1,2.49-4.19c.53-.81,1.07-1.57,1.62-2.27s1.06-1.33,1.53-1.89l.06,0A4,4,0,0,1,193.5,51c-.31.76-.7,1.66-1.13,2.68l-.76,1.62c-.29.58-.53,1.1-.73,1.55a19.51,19.51,0,0,1-2.3,4c-.38.43-.61.71-.78.75S187.5,61.57,187.43,61.23Zm16.33-41.08a3.08,3.08,0,0,0-.66-.09c-.11,0-.29,0-.46,0l-.17,0a8,8,0,0,0-2.6,2q-1.56,1.72-4.44,5.48a80,80,0,0,1-6.34,7.51c-1.35,1.33-2.19,1.75-2.56,1.12a3.57,3.57,0,0,1-.23-1.64,18.12,18.12,0,0,1,.12-3.05,16.88,16.88,0,0,0,0-3.85c-.1-.5-.47-.6-1.1-.23a4.65,4.65,0,0,0-.77,2.14c-.31,1.29-.61,2.64-.8,4-.14,1-.2,1.79-.27,2.56a6.38,6.38,0,0,0,.07,1.73,3.15,3.15,0,0,0,1.48,2,3.1,3.1,0,0,0,2.44.53,9.5,9.5,0,0,0,3.81-2.37,46.23,46.23,0,0,0,5.15-5.69c.92-1.18,1.81-2.19,2.56-3.05s1.09-1.21,1.21-1.18a15.39,15.39,0,0,1-.41,2.18c-.3,1.35-.69,2.83-1.11,4.43-.35,1.36-.69,2.53-1.05,3.6a14.36,14.36,0,0,1-.71,2.13,15.38,15.38,0,0,1-1.18,1.59c-.74.91-1.54,1.84-2.39,2.78a76.65,76.65,0,0,0-6.27,8.37,22.37,22.37,0,0,0-3.27,6.86,10.62,10.62,0,0,0-.45,3.94l0,.11a2.8,2.8,0,0,0,1.4,1.92,3.14,3.14,0,0,0,2.68.6c1.23-.26,2.53-1.29,3.88-3.15,2.28-3,4.79-8.52,7.52-16.55.72-2.14,1.32-3.72,1.68-4.78,4.06-3.95,7.16-6.93,9.24-8.94,2.42-2.32,4.32-4.12,5.58-5.32s2.19-2,2.71-2.61a.55.55,0,0,0,.25-.46s-.08-.1-.16-.2a1.06,1.06,0,0,0-.87,0c-.64.25-1.65.76-2.91,1.37a29.63,29.63,0,0,0-4.94,3.37c-1.69,1.41-3.17,2.65-4.45,3.8s-2.09,2-2.35,2.12,0-.51.35-1.94.74-2.83,1.15-4.49a30.42,30.42,0,0,0,1-6.33A2.5,2.5,0,0,0,203.76,20.15Z"/><path class="cls-3" d="M74.52,80.64a.45.45,0,0,0,.5.18c.23,0,.44-.44.6-1.06.2-1,.39-3.4.63-7.24.36-7.94,1-15.3,2-22.15a90.74,90.74,0,0,1,3.42-16.11,9.57,9.57,0,0,1,1.38-3.14c.38-.43.75-.33,1,.31.05.23.18,1.42.38,3.48s.33,4.59.49,7.29c.33,6.28.7,11.33,1.15,15.14a51.86,51.86,0,0,0,1.5,8.77,9.72,9.72,0,0,0,1.09,2.68A4.09,4.09,0,0,0,90,70.32c1.59,1.18,3.17,1,4.75-.65s3-4.43,4.43-8.57c.63-2,1.51-5,2.53-9s2.1-8.3,3.23-12.85,2.1-8.84,3.11-13.18,1.71-7.94,2.27-10.79c.26-1.52.52-2.79.66-3.76a6.58,6.58,0,0,0,.13-1.6v0c-.18-.31-.33-.46-.5-.42s-.41.26-.64.54a27.6,27.6,0,0,0-2.4,4.64c-.51,1.16-1,2.26-1.49,3.41s-.91,2.34-1.34,3.6c-.84,2.39-1.67,5.07-2.56,8.05s-1.78,6.73-2.86,11c-.8,3.38-1.57,6.34-2.21,8.86s-1.22,4.69-1.72,6.48A62.67,62.67,0,0,1,93.16,63c-.57,1.16-1,1.62-1.4,1.34s-.7-2.47-1.24-6.67S89.37,48,88.8,41.45a73.23,73.23,0,0,0-1.42-9.78c-.66-2.6-1.3-4.22-2-4.77a3,3,0,0,0-1-.14,5,5,0,0,0-1.28.27c-1.62.63-3.09,3.33-4.53,8.06a103.11,103.11,0,0,0-3.36,18.07c-.2,1.56-.35,3.33-.45,5.34s-.3,4.08-.32,6.18c-.16,2.6-.22,5.06-.25,7.4s-.09,4.27,0,5.76a11.23,11.23,0,0,0,.12,2,2.05,2.05,0,0,0,0,.51C74.44,80.54,74.46,80.65,74.52,80.64Z"/><path class="cls-3" d="M115.71,42.24a5.57,5.57,0,0,1,1.45-.83c.34-.07.55-.18.77-.22l.17,0c.18,0,.3.05.33.17a.75.75,0,0,1-.09.42,3.27,3.27,0,0,1-.77,1,7.93,7.93,0,0,1-2.22,1.34,10.3,10.3,0,0,1-1,.28l-.17,0c-.17,0-.23,0-.26-.12s.07-.25.3-.53A9.71,9.71,0,0,1,115.71,42.24Zm5.32.1c.61-1.24.64-2.23,0-3a3.17,3.17,0,0,0-2.86-.85l-.39.08-.56.12-1,.38a12.74,12.74,0,0,0-4.41,3.43,17,17,0,0,0-3,4.88,7.7,7.7,0,0,0-.67,2.59,5.43,5.43,0,0,0,0,1.86l.08.39A4.85,4.85,0,0,0,110,54.57,5.44,5.44,0,0,0,112.73,56a11.84,11.84,0,0,0,4.84,0l.67-.14A22,22,0,0,0,124,53.78a32.27,32.27,0,0,0,3.35-2.05c1.11-.81,2.28-1.64,3.36-2.57a37.34,37.34,0,0,0,5.1-4.86c1.41-1.58,2.06-2.65,2-3.27l0-.12c0-.11-.11-.26-.14-.38l-.16-.19A27,27,0,0,0,135,41.9c-1.59,1-3.42,2.3-5.48,3.84-4.27,3.23-7.69,5.29-10.32,6.08a11.28,11.28,0,0,1-6.65.47,2.22,2.22,0,0,1-1.42-1.45,3.68,3.68,0,0,1,.18-2.48,2.23,2.23,0,0,1,.79-1.22,6.92,6.92,0,0,1,1.94-.76,21,21,0,0,0,4.51-1.82A5.69,5.69,0,0,0,121,42.34Z"/><path class="cls-3" d="M142.83,26.38c.8-2.85,1.73-5.61,2.7-8.2A58.15,58.15,0,0,1,148.29,12a12.93,12.93,0,0,1,1.26-2.07c.36-.49.65-.78.93-.84l.11,0h0a.44.44,0,0,1,.18.25,8,8,0,0,1-.16,2c-.33,1.47-.79,3.2-1.41,5.2-.35,1.12-.76,2.2-1.16,3.33s-.86,2.28-1.35,3.31a70.27,70.27,0,0,1-3.4,7.07c-.86,1.46-1.41,2.16-1.63,2.21a.15.15,0,0,1-.2-.14,6.93,6.93,0,0,1,.32-2C142.07,29.11,142.43,27.81,142.83,26.38ZM153.66,8.66a4.79,4.79,0,0,0-.56-2.91,2.13,2.13,0,0,0-2.2-.53A3.7,3.7,0,0,0,149,6.5a21.25,21.25,0,0,0-2.16,3,61.58,61.58,0,0,0-4.28,9.3,123.52,123.52,0,0,0-4.14,12.93,70.54,70.54,0,0,0-2.72,14.73,14.89,14.89,0,0,0,.23,3.85,4.59,4.59,0,0,0,1.68,3,3.75,3.75,0,0,0,3,.47l.16,0a9.13,9.13,0,0,0,3.55-1.68c.51-.34,1.34-1.1,2.62-2.24s2.49-2.27,3.75-3.47,2.73-2.55,4.39-4.07,3.09-2.75,4.17-3.68c.25-.22.63-.6,1.23-1.07a16.25,16.25,0,0,0,1.33-1.16,1.25,1.25,0,0,0,.53-.81c0-.11-.44-.14-1.24-.08a15.76,15.76,0,0,0-5.81,2.56,81.29,81.29,0,0,0-8.56,6.64c-1.68,1.46-3.17,2.65-4.38,3.55s-2,1.35-2.24,1.28c-.46,0-.76-.59-.83-1.74a25.28,25.28,0,0,1,.3-5.19,11.47,11.47,0,0,1,1-3.54c.57-1.16,1.59-2.95,3.16-5.44A75.78,75.78,0,0,0,148.49,25,87.9,87.9,0,0,0,152,16.3c.46-1.43.87-2.8,1.17-4.15A20.4,20.4,0,0,0,153.66,8.66Z"/><path class="cls-3" d="M167.21,21.24c.79-2.85,1.73-5.61,2.69-8.2a56,56,0,0,1,2.77-6.23,12.26,12.26,0,0,1,1.25-2.07c.37-.49.65-.78.93-.84l.11,0H175a.39.39,0,0,1,.17.25,7.56,7.56,0,0,1-.16,2c-.33,1.47-.78,3.2-1.41,5.2-.34,1.12-.76,2.2-1.16,3.33s-.86,2.28-1.34,3.31a72.51,72.51,0,0,1-3.4,7.07c-.86,1.46-1.41,2.16-1.64,2.21s-.17,0-.2-.14a7.12,7.12,0,0,1,.33-2C166.44,24,166.81,22.67,167.21,21.24ZM178,3.52a4.72,4.72,0,0,0-.55-2.91,2.16,2.16,0,0,0-2.21-.53,3.78,3.78,0,0,0-1.89,1.28,22.08,22.08,0,0,0-2.16,3,61.66,61.66,0,0,0-4.27,9.3A123.44,123.44,0,0,0,162.8,26.6a70.54,70.54,0,0,0-2.72,14.73,15.35,15.35,0,0,0,.23,3.85,4.64,4.64,0,0,0,1.69,3,3.72,3.72,0,0,0,3,.47l.17,0A9.19,9.19,0,0,0,168.73,47a33.18,33.18,0,0,0,2.61-2.24c1.23-1.07,2.49-2.27,3.76-3.47s2.72-2.55,4.38-4.07,3.09-2.75,4.18-3.68c.24-.22.63-.6,1.23-1.07s.94-.78,1.33-1.16a1.29,1.29,0,0,0,.53-.81c0-.11-.44-.14-1.25-.08a15.76,15.76,0,0,0-5.81,2.56,82.34,82.34,0,0,0-8.56,6.64c-1.67,1.46-3.17,2.65-4.38,3.55s-2,1.35-2.23,1.28c-.47,0-.77-.59-.84-1.74a25.48,25.48,0,0,1,.31-5.19,11.17,11.17,0,0,1,1-3.54c.57-1.16,1.59-2.95,3.16-5.44a74.25,74.25,0,0,0,4.71-8.62,90.6,90.6,0,0,0,3.47-8.72c.45-1.43.86-2.8,1.16-4.15A19.46,19.46,0,0,0,178,3.52Z"/><path class="cls-3" d="M188.75,59.87l0-.17a4.77,4.77,0,0,1,.75-2.78,31,31,0,0,1,2.49-4.2c.53-.81,1.07-1.56,1.62-2.26s1.06-1.33,1.53-1.89l.06,0a4.08,4.08,0,0,1-.35,1.07c-.31.76-.7,1.66-1.13,2.68L192.93,54c-.29.58-.53,1.1-.73,1.55a19.8,19.8,0,0,1-2.3,4c-.38.43-.61.71-.78.75S188.82,60.2,188.75,59.87Zm16.33-41.08a3.08,3.08,0,0,0-.66-.09c-.11,0-.29,0-.46,0l-.16,0a7.74,7.74,0,0,0-2.61,2c-1,1.15-2.52,3-4.44,5.48a81.4,81.4,0,0,1-6.34,7.51c-1.35,1.33-2.19,1.74-2.56,1.12a3.57,3.57,0,0,1-.23-1.64,18.08,18.08,0,0,1,.12-3.05,16.88,16.88,0,0,0,0-3.85c-.1-.5-.47-.6-1.1-.23a4.65,4.65,0,0,0-.77,2.14c-.31,1.29-.61,2.63-.8,3.95-.14,1-.2,1.79-.27,2.57a6.41,6.41,0,0,0,.07,1.73,3.15,3.15,0,0,0,1.48,2,3.1,3.1,0,0,0,2.44.53,9.5,9.5,0,0,0,3.81-2.37A47,47,0,0,0,197.75,31c.92-1.19,1.81-2.19,2.56-3.05s1.09-1.22,1.21-1.18a15.39,15.39,0,0,1-.41,2.18c-.3,1.34-.69,2.82-1.11,4.43-.35,1.35-.69,2.53-1.05,3.6a14.36,14.36,0,0,1-.71,2.13,16.62,16.62,0,0,1-1.18,1.59c-.74.91-1.54,1.84-2.39,2.77a77.72,77.72,0,0,0-6.27,8.38,22.37,22.37,0,0,0-3.27,6.86,10.62,10.62,0,0,0-.45,3.94l0,.11a2.82,2.82,0,0,0,1.4,1.92,3.14,3.14,0,0,0,2.68.6c1.23-.26,2.53-1.29,3.88-3.15,2.28-3,4.79-8.52,7.52-16.56.72-2.13,1.32-3.71,1.68-4.78,4.06-3.94,7.16-6.93,9.24-8.94l5.58-5.31c1.26-1.2,2.19-2,2.71-2.61a.52.52,0,0,0,.25-.46c0-.06-.08-.1-.16-.2a1.06,1.06,0,0,0-.87,0c-.64.25-1.65.75-2.91,1.37A29.63,29.63,0,0,0,210.76,28c-1.69,1.41-3.17,2.65-4.45,3.79s-2.09,2-2.35,2.13-.05-.51.35-1.94.75-2.83,1.15-4.49a30.52,30.52,0,0,0,1-6.33A2.5,2.5,0,0,0,205.08,18.79Z"/><path class="cls-1" d="M10.72,173.65a24.66,24.66,0,0,0,3.85,1,9.32,9.32,0,0,0,3.21.14l.48-.09a28,28,0,0,0,7.8-3.14,39.85,39.85,0,0,0,8.82-5.9A34.78,34.78,0,0,0,38.52,162a53.86,53.86,0,0,0,3.61-4.4,57.34,57.34,0,0,0,5.08-7.94c.9-1.75,1.29-2.91,1.16-3.68a.55.55,0,0,0-.38-.43c-.21-.06-1.18.6-3.14,1.93s-4.12,3.2-6.55,5.21c-7.12,6-12.71,9.86-17,11.69s-7.52,1.9-9.63.08c-1.63-1.41-2.58-4-3.06-7.92A38.59,38.59,0,0,1,9.06,144a81.71,81.71,0,0,1,4.12-14.13A129.12,129.12,0,0,1,20,115.09c1.35-2.52,2.72-4.94,4.22-7.19A51.6,51.6,0,0,1,28.53,102c3.37-4.06,5.47-5.12,6.21-3.16s.11,6.94-1.79,14.92a51.22,51.22,0,0,0-1.62,9c-.1,1.7.37,2.12,1.31,1.26.71-.52,1.56-2.46,2.64-6s1.95-7.1,2.7-10.81c.56-2.48,1-4.74,1.29-6.88a17.85,17.85,0,0,0,.21-4.51A6.46,6.46,0,0,0,37,91.46a6.76,6.76,0,0,0-4.77-1.16l-.19,0a10.79,10.79,0,0,0-4,1.78,36.44,36.44,0,0,0-4.8,4.41A78.56,78.56,0,0,0,14,109.77a126.19,126.19,0,0,0-8.54,17.88C1.05,139-.71,149,.26,157.47l.35,2C1.9,166.93,5.2,171.63,10.72,173.65Z"/><path class="cls-1" d="M61.54,132c.29,0,.57-.2,1-.26.19,0,.47-.18.66-.22.68-.11,1.1,0,1.23.19s-.37.76-1.24,1.5a79.54,79.54,0,0,1-7.9,6c-3.17,2.34-5.34,3.61-6.3,3.78-.19,0-.29.05-.31,0-.19,0-.4,0-.43-.22-.09-.48.69-1.71,2.32-3.78a17.4,17.4,0,0,1,4.95-4.14A39.6,39.6,0,0,1,61.54,132ZM78.87,121.2a.76.76,0,0,1-.52-.11c-.19,0-.31,0-.5,0l-.1,0a5.87,5.87,0,0,0-1.57.67,27,27,0,0,0-2.84,2A16.68,16.68,0,0,1,69,126.49a31.27,31.27,0,0,1-6.38,1.6c-2.79.59-4.89,1-6.21,1.48a18.1,18.1,0,0,0-3.82,2.05,30.72,30.72,0,0,0-5.65,5.25A12.57,12.57,0,0,0,44,142.14a7.34,7.34,0,0,0-.27,2.43v.1a3.22,3.22,0,0,0,1.09,1.7c1.5,1.73,4.27,1.65,8.14-.12s8.84-5.2,14.95-10.64l4.58-4c1.3-1.12,2-1.64,2.14-1.46a4.26,4.26,0,0,1-.22,1.62A28.61,28.61,0,0,0,74,135c-.3,3.44,0,6,1.15,7.76a7.63,7.63,0,0,0,5.28,3.56,10.33,10.33,0,0,0,4.71.18l.29-.06a36.79,36.79,0,0,0,7.48-2.68,91.29,91.29,0,0,0,10.76-5.64,127.8,127.8,0,0,0,11.06-7.29c1.77-1.29,3.35-2.46,4.75-3.6a18.63,18.63,0,0,0,3-3c.65-.81,1.24-1.41,1.56-1.86-1.51.46-2.54.84-3.21,1-.93.36-3,1.21-6.2,2.67s-6.68,3.34-10.22,5.25a123.21,123.21,0,0,1-16.57,7.64q-5.62,2-7.05.62c-.7-.57-1-1.62-1-3.21a47.54,47.54,0,0,1,1-7.63,18.2,18.2,0,0,0,.37-5.33A3.75,3.75,0,0,0,78.87,121.2Z"/><path class="cls-1" d="M132.31,98.62c1.55-4.84,3.32-9.52,5.14-13.91a97.75,97.75,0,0,1,5.14-10.53,22.1,22.1,0,0,1,2.28-3.48c.65-.81,1.17-1.29,1.65-1.38l.19,0,.1,0a.81.81,0,0,1,.28.45,13.36,13.36,0,0,1-.4,3.45c-.66,2.5-1.55,5.44-2.75,8.83-.66,1.9-1.44,3.73-2.2,5.65s-1.62,3.86-2.51,5.6a121.23,121.23,0,0,1-6.29,11.92c-1.56,2.46-2.55,3.63-2.94,3.69q-.28.06-.33-.24a12.23,12.23,0,0,1,.68-3.49C130.82,103.26,131.53,101,132.31,98.62ZM152,68.87c.19-2.32-.09-4-.77-5s-2-1.34-3.76-1a6.36,6.36,0,0,0-3.32,2.06,36.33,36.33,0,0,0-3.9,5,105.08,105.08,0,0,0-7.92,15.69,210.45,210.45,0,0,0-7.93,22c-3.32,10.71-5.15,19.08-5.59,25.12a26,26,0,0,0,.15,6.63c.44,2.51,1.35,4.34,2.71,5.3a6.41,6.41,0,0,0,5.14,1l.29,0a16,16,0,0,0,6.2-2.67,56.4,56.4,0,0,0,4.63-3.68c2.18-1.77,4.42-3.75,6.66-5.73s4.84-4.21,7.79-6.71,5.48-4.53,7.4-6.05c.43-.38,1.12-1,2.18-1.77.88-.65,1.66-1.29,2.35-1.9a2.25,2.25,0,0,0,1-1.36c0-.19-.74-.27-2.13-.23-2.64.26-6,1.63-10.13,4a140.28,140.28,0,0,0-15.12,10.87c-3,2.4-5.61,4.35-7.74,5.81s-3.5,2.2-3.92,2.07c-.8-.06-1.27-1.07-1.32-3.05a43.15,43.15,0,0,1,.85-8.89,19.15,19.15,0,0,1,1.94-6,107.29,107.29,0,0,1,5.77-9.16,128.85,128.85,0,0,0,8.62-14.51,150.78,150.78,0,0,0,6.49-14.74c.88-2.44,1.67-4.76,2.26-7A34.26,34.26,0,0,0,152,68.87Z"/><path class="cls-1" d="M163.26,125.87a6.88,6.88,0,0,1,.74-2.61c.42-1.07.92-2.15,1.51-3.35a40.44,40.44,0,0,1,3.16-4.72c1.15-1.39,2-2.14,2.69-2.25,1-.17,1.87.47,2.88,1.69a7.67,7.67,0,0,1,1.13,2.48,5.12,5.12,0,0,1,0,1.29,8.73,8.73,0,0,1-1.21,2.2c-.81,1-1.63,2.07-2.64,3.14-3.36,3.56-5.6,5.54-6.76,5.74l-.09,0c-.77.13-1.15-.3-1.35-1.46A10.27,10.27,0,0,1,163.26,125.87Zm34.38-58.64c1.42-2.73,2.55-4.81,3.49-6.27a9.17,9.17,0,0,1,2.08-2.35l.19,0c.2,0,.42.13.49.51.15.87-.21,2.82-1,5.74a141.17,141.17,0,0,1-6.72,17.47c-2.89,6.26-4.94,10.5-6.09,12.48-.75,1.43-1.32,2.12-1.71,2.19-.19,0-.31,0-.37-.43l0-.1c-.13-.77.22-2.72,1.15-6s2-6.71,3.35-10.52c.87-2.43,1.76-4.77,2.65-7.11S196.91,68.75,197.64,67.23Zm9.45-13.76a5.29,5.29,0,0,0-1.56-.43,9.45,9.45,0,0,0-2.19,0,5.68,5.68,0,0,0-2.62,1.54,42.24,42.24,0,0,0-3.16,3.53,76.51,76.51,0,0,0-6.14,10.51,130.44,130.44,0,0,0-5.87,13.74c-1.49,4-2.86,8.15-4,12.21A107.17,107.17,0,0,0,179.21,106c-.4,3.45-.75,6-1,7.62-1.16-1-2-1.74-2.59-2.33-2.57-2.24-5.28-2.37-8.13-.48-3.05,1.92-5.41,5.51-7.31,10.61a16.33,16.33,0,0,0-1.06,8.23,3.4,3.4,0,0,0,.44,1.42c.89,2.83,2.57,3.93,5.06,3.4a15.19,15.19,0,0,0,5.4-2.73,27.63,27.63,0,0,0,5.55-5.23c.66-.81,1.31-1.62,2-2.33s.93-1,1.13-1,.45.32.93.83.93,1.33,1.45,2a16.27,16.27,0,0,0,3.73,4.33,9.2,9.2,0,0,0,4.56,2.19,10.6,10.6,0,0,0,4.89.15,24.26,24.26,0,0,0,7.3-2.66A53.07,53.07,0,0,0,216.25,119c1-1,2.11-2.15,3.2-3.33l3-3.5a45.49,45.49,0,0,0,4.36-5.83c.94-1.45,1.46-2.44,1.4-2.82l-.12-.08c-.22-.16-.77.13-1.67.68s-1.94,1.43-3.06,2.42c-11.78,10.59-20.55,16.78-26.4,18.59s-9.42-.46-10.58-7.12a11,11,0,0,1-.06-4.95c.22-1,1.33-3.22,3.15-6.51A271.27,271.27,0,0,0,202,81.79c3.19-7.41,5.3-13.54,6.26-18.38a22.49,22.49,0,0,0,.58-6.36A5.54,5.54,0,0,0,207.09,53.47Z"/><path class="cls-1" d="M237.31,97.74a9.62,9.62,0,0,1,2.56-1.34c.58-.1.95-.26,1.33-.33l.29,0c.31,0,.52.11.55.31a1.33,1.33,0,0,1-.17.72,5.51,5.51,0,0,1-1.39,1.73,13.43,13.43,0,0,1-3.9,2.17,13.25,13.25,0,0,1-1.82.41l-.29,0c-.29,0-.4,0-.43-.22s.12-.42.54-.89A17.23,17.23,0,0,1,237.31,97.74Zm9.14.51c1.13-2.09,1.23-3.8.19-5.21a5.51,5.51,0,0,0-4.86-1.64l-.67.12-1,.16-1.68.59a22.16,22.16,0,0,0-7.78,5.62,29.08,29.08,0,0,0-5.44,8.2,13.48,13.48,0,0,0-1.32,4.41,9.83,9.83,0,0,0,0,3.19l.12.67a8.35,8.35,0,0,0,2.72,4.2,9.44,9.44,0,0,0,4.63,2.68,20.41,20.41,0,0,0,8.31.35l1.16-.2a37.86,37.86,0,0,0,10-3.32,54.84,54.84,0,0,0,5.88-3.3c2-1.33,4-2.68,5.94-4.21a64.12,64.12,0,0,0,9-8c2.53-2.62,3.71-4.42,3.62-5.5l0-.19c0-.19-.18-.46-.21-.66l-.26-.35a46.21,46.21,0,0,0-4.33,2.54c-2.8,1.68-6,3.72-9.66,6.24-7.53,5.28-13.52,8.61-18.08,9.79s-8.4,1.46-11.47.4a3.79,3.79,0,0,1-2.33-2.58,6.3,6.3,0,0,1,.45-4.25,3.92,3.92,0,0,1,1.44-2,11.58,11.58,0,0,1,3.37-1.18A36.47,36.47,0,0,0,242,101.9C244.29,100.71,245.78,99.55,246.45,98.25Z"/><path class="cls-1" d="M278.12,78a1.93,1.93,0,0,0,.94.83,1.19,1.19,0,0,0,.84.26c.58-.1,1.39-1.14,2.6-3.34a14.92,14.92,0,0,0,1.81-5.08,5.9,5.9,0,0,0,0-1.19A3.49,3.49,0,0,0,282,66.74a3.64,3.64,0,0,0-1.84-.28,2.85,2.85,0,0,0-2,1.64c-.62,1-.91,2.74-.9,5.12a11.72,11.72,0,0,0,.12,3A3.2,3.2,0,0,0,278.12,78Zm-1.21,30.33a8.43,8.43,0,0,0,3.86,1.62,9.36,9.36,0,0,0,1.94-.24c1.16-.2,2.8-.48,4.89-1a55,55,0,0,0,8.92-3c3.73-1.44,7.5-3.19,11.45-5.06,3.77-1.75,7.43-3.58,11.08-5.5a80.8,80.8,0,0,0,8.48-5,19.65,19.65,0,0,0,2.65-1.95c.7-.52,1-1,1-1.26-.1-.58-2.14-.32-6.09,1s-10.77,3.85-20.37,7.5c-4.66,1.8-8.87,3.33-12.81,4.7a65.83,65.83,0,0,1-7.46,2.29c-2.89.5-4.63.2-5.32-.87s-1-3.91-.77-8.51c0-2.19.08-4.09.2-5.71s.08-2.4.07-2.49-.13-.18-.36-.34a2.3,2.3,0,0,1-.74-.27l-.19,0c-.57.19-1.11,1.08-1.81,2.79a61.16,61.16,0,0,0-1.94,6.6c-.31,1.65-.54,3.18-.68,4.69a11.49,11.49,0,0,0-.05,3.69l.1.58a9.91,9.91,0,0,0,1,3.31A8.77,8.77,0,0,0,276.91,108.28Z"/><path class="cls-1" d="M331.7,79.71a13.63,13.63,0,0,1,1.69-5.16c1-1.77,1.8-2.8,2.57-2.94h.1c.1,0,.21.06.24.25a6.26,6.26,0,0,1-.15,1.42,20.61,20.61,0,0,1-1.39,3.42,14.25,14.25,0,0,1-1.58,2.37,1.5,1.5,0,0,1-1,.66C332,79.85,331.83,79.89,331.7,79.71Zm9-11.3A9.31,9.31,0,0,0,339,65.72a2.65,2.65,0,0,0-2.57-1c-1.74.3-3.61,1.52-5.53,3.64a19.34,19.34,0,0,0-4.36,8.11,15.9,15.9,0,0,0-1,7.13l0,.09a6.74,6.74,0,0,0,2.75,4.4,5.08,5.08,0,0,0,2.86,1.59,11.74,11.74,0,0,0,4.2-.43A31.49,31.49,0,0,0,340,87.92a28.39,28.39,0,0,0,4.16-1.82,42.1,42.1,0,0,1,5.77-2.29c1.43-.34,2.23-.28,2.33.29a29.26,29.26,0,0,1-1.61,4.46q-1.67,4.17-4,9.64c-1.63,3.76-3.13,7.2-4.36,10.4s-2,5.31-2.22,6.14a7.8,7.8,0,0,0,.18,5,3.63,3.63,0,0,0,2.91,2.48,5.42,5.42,0,0,0,1.65.31c.11.08.3.05.59,0a8.32,8.32,0,0,0,3-1.31,16.87,16.87,0,0,0,3.2-2.14,46.65,46.65,0,0,0,4.46-3.56,83.15,83.15,0,0,0,6.48-6.79c2.65-3,5.45-6.41,8.21-10s5.27-6.87,7.76-10.29,4.41-6.13,5.81-8.36c.7-1.11,1.23-2.1,1.69-2.88a2.37,2.37,0,0,0,.4-1.16s-.12-.08-.13-.17c-.23-.16-.68.11-1.39.63S382.18,79,379.31,82c-1.5,1.65-3.53,3.7-5.87,6.29s-5.37,5.7-8.91,9.39c-4.44,4.75-8.32,8.8-11.63,12.06s-5.31,4.89-5.67,4.56c-.23-.16.07-1.31.86-3.63s1.86-4.8,3.22-7.82,2.4-5.68,3.38-8,1.65-4.26,2.25-6a18.45,18.45,0,0,0,1.26-7.08A6.23,6.23,0,0,0,356,78.09c-1.13-.8-2.66-1-4.8-.76a44.17,44.17,0,0,0-9.11,3.07c-1.67.69-2.88,1.19-3.44,1.39-.74.33-1.12.39-1.25.22s-.09-.48.5-1.08a27,27,0,0,0,1.71-2.19c1.57-2.46,2.21-4.46,2-6.21A27.14,27.14,0,0,0,340.68,68.41Z"/><path class="cls-1" d="M398.05,73.69c.29,0,.56-.2.95-.26.19,0,.46-.18.66-.22.67-.12,1.09,0,1.22.19s-.37.76-1.23,1.5a80.78,80.78,0,0,1-7.9,6c-3.17,2.34-5.34,3.61-6.31,3.78-.19,0-.28,0-.3,0a.35.35,0,0,1-.44-.22c-.08-.48.7-1.71,2.33-3.78a17.4,17.4,0,0,1,5-4.14A39.16,39.16,0,0,1,398.05,73.69Zm17.32-10.75a.75.75,0,0,1-.51-.11c-.2,0-.31,0-.5,0l-.1,0a5.74,5.74,0,0,0-1.57.67,26,26,0,0,0-2.84,2,16.7,16.7,0,0,1-4.4,2.75,30.9,30.9,0,0,1-6.38,1.6c-2.78.59-4.89,1-6.21,1.48a18.6,18.6,0,0,0-3.82,2,31,31,0,0,0-5.65,5.25,12.65,12.65,0,0,0-2.86,5.27,7.76,7.76,0,0,0-.28,2.43l0,.1a3.15,3.15,0,0,0,1.09,1.7c1.49,1.73,4.26,1.65,8.13-.12s8.84-5.2,15-10.64l4.58-4c1.3-1.12,2-1.64,2.13-1.46a4.18,4.18,0,0,1-.21,1.62,26.41,26.41,0,0,0-.45,3.16c-.3,3.43,0,6,1.14,7.76A7.61,7.61,0,0,0,416.93,88a10,10,0,0,0,4.7.18l.29,0a36.83,36.83,0,0,0,7.49-2.68,92,92,0,0,0,10.75-5.64,130.4,130.4,0,0,0,11.07-7.29c1.76-1.3,3.35-2.47,4.74-3.6a18.21,18.21,0,0,0,3-3c.66-.81,1.25-1.41,1.57-1.86-1.51.46-2.54.84-3.22,1-.93.36-3,1.21-6.2,2.67s-6.67,3.34-10.22,5.25a123.21,123.21,0,0,1-16.57,7.64q-5.61,2-7.05.62c-.69-.57-1-1.62-.95-3.21a47.16,47.16,0,0,1,1-7.63,17.84,17.84,0,0,0,.37-5.33A3.72,3.72,0,0,0,415.37,62.94Z"/><path class="cls-2" d="M13.07,171.4a25.85,25.85,0,0,0,3.85,1,9.33,9.33,0,0,0,3.21.14l.48-.08a28.54,28.54,0,0,0,7.81-3.15,40.33,40.33,0,0,0,8.82-5.9,34.76,34.76,0,0,0,3.63-3.71,52.21,52.21,0,0,0,3.61-4.4,58.41,58.41,0,0,0,5.09-7.94c.89-1.74,1.28-2.9,1.15-3.68a.53.53,0,0,0-.37-.43c-.21-.06-1.19.6-3.15,1.94s-4.12,3.2-6.55,5.21c-7.11,6-12.71,9.85-17,11.68s-7.53,1.9-9.63.08c-1.64-1.41-2.59-4-3.06-7.92a38.31,38.31,0,0,1,.42-12.5,80.72,80.72,0,0,1,4.11-14.13,129.9,129.9,0,0,1,6.78-14.79c1.36-2.52,2.73-5,4.22-7.2a51.6,51.6,0,0,1,4.35-5.92c3.37-4.06,5.47-5.12,6.21-3.16s.11,6.94-1.79,14.92a51.52,51.52,0,0,0-1.62,9c-.1,1.71.37,2.12,1.31,1.26.71-.52,1.57-2.45,2.64-6s1.95-7.1,2.7-10.8c.56-2.49,1-4.74,1.29-6.89a18.45,18.45,0,0,0,.22-4.51,6.49,6.49,0,0,0-2.45-4.35A6.85,6.85,0,0,0,34.62,88l-.19,0a10.79,10.79,0,0,0-4,1.78,35.88,35.88,0,0,0-4.8,4.42,78.44,78.44,0,0,0-9.34,13.24,125.08,125.08,0,0,0-8.53,17.88c-4.39,11.4-6.15,21.34-5.18,29.82l.35,2C4.25,164.67,7.55,169.37,13.07,171.4Z"/><path class="cls-2" d="M63.89,129.69c.29-.05.57-.19,1-.26.2,0,.47-.18.66-.21.68-.12,1.1,0,1.23.18s-.37.76-1.23,1.51a82.42,82.42,0,0,1-7.9,6c-3.18,2.34-5.34,3.6-6.31,3.77-.19,0-.29.05-.3,0-.2,0-.41,0-.44-.23-.08-.48.7-1.71,2.33-3.78a17.4,17.4,0,0,1,4.95-4.14A40.46,40.46,0,0,1,63.89,129.69Zm17.33-10.75a.78.78,0,0,1-.52-.11c-.19,0-.3,0-.5,0h-.09a6.12,6.12,0,0,0-1.58.67,27.39,27.39,0,0,0-2.84,2,17.24,17.24,0,0,1-4.39,2.75,31.77,31.77,0,0,1-6.38,1.6c-2.78.58-4.89,1-6.21,1.47a18.83,18.83,0,0,0-3.82,2.05,30.74,30.74,0,0,0-5.65,5.26,12.55,12.55,0,0,0-2.87,5.26,7.38,7.38,0,0,0-.27,2.44l0,.09a3.06,3.06,0,0,0,1.09,1.7c1.49,1.73,4.26,1.65,8.13-.11s8.84-5.21,15-10.64l4.58-4c1.3-1.12,2-1.64,2.14-1.46a4.32,4.32,0,0,1-.22,1.63,27.94,27.94,0,0,0-.45,3.16c-.3,3.43,0,5.95,1.15,7.75A7.63,7.63,0,0,0,82.78,144a10.28,10.28,0,0,0,4.7.18l.29,0a37.88,37.88,0,0,0,7.49-2.69A89.06,89.06,0,0,0,106,135.82a127.79,127.79,0,0,0,11.06-7.28c1.77-1.3,3.35-2.47,4.75-3.61a18.21,18.21,0,0,0,3-3c.65-.8,1.25-1.4,1.56-1.86-1.51.46-2.53.84-3.21,1-.93.36-3,1.21-6.2,2.66s-6.68,3.34-10.22,5.25a121.93,121.93,0,0,1-16.57,7.64q-5.62,2-7,.62c-.7-.57-1-1.62-1-3.21a47.46,47.46,0,0,1,1-7.62,17.87,17.87,0,0,0,.37-5.33A3.7,3.7,0,0,0,81.22,118.94Z"/><path class="cls-2" d="M134.66,96.37c1.55-4.84,3.32-9.52,5.15-13.92a98.86,98.86,0,0,1,5.13-10.53,22.2,22.2,0,0,1,2.28-3.47c.66-.81,1.17-1.3,1.65-1.38l.19,0h.1a.78.78,0,0,1,.28.45,13.4,13.4,0,0,1-.4,3.45c-.66,2.5-1.54,5.43-2.75,8.82-.66,1.9-1.44,3.73-2.2,5.65s-1.62,3.86-2.51,5.6a121.7,121.7,0,0,1-6.28,11.93c-1.57,2.45-2.56,3.62-2.94,3.69a.26.26,0,0,1-.34-.24,12.22,12.22,0,0,1,.68-3.5C133.18,101,133.89,98.79,134.66,96.37Zm19.7-29.76c.19-2.32-.09-4-.77-5s-2-1.34-3.76-1a6.42,6.42,0,0,0-3.32,2.07,35.6,35.6,0,0,0-3.9,5,106.55,106.55,0,0,0-7.92,15.69,212.13,212.13,0,0,0-7.93,22c-3.31,10.71-5.14,19.08-5.59,25.12a26.11,26.11,0,0,0,.15,6.64c.44,2.51,1.35,4.34,2.71,5.29a6.38,6.38,0,0,0,5.14,1l.29-.05a15.91,15.91,0,0,0,6.2-2.66c.9-.56,2.37-1.81,4.63-3.69s4.42-3.74,6.67-5.72,4.83-4.22,7.78-6.72,5.48-4.53,7.4-6c.43-.37,1.12-1,2.18-1.77a29.69,29.69,0,0,0,2.35-1.9,2.23,2.23,0,0,0,1-1.36c0-.19-.74-.27-2.12-.23-2.64.26-6,1.64-10.14,4a140.28,140.28,0,0,0-15.12,10.87c-3,2.4-5.61,4.35-7.74,5.82S129,136.11,128.6,136c-.81-.06-1.28-1.08-1.33-3.06a43.94,43.94,0,0,1,.85-8.89,19.31,19.31,0,0,1,1.94-6,107.54,107.54,0,0,1,5.77-9.15,128.12,128.12,0,0,0,8.62-14.52A151,151,0,0,0,151,79.63c.87-2.44,1.66-4.76,2.26-7A34.76,34.76,0,0,0,154.36,66.61Z"/><path class="cls-2" d="M165.62,123.61a6.57,6.57,0,0,1,.74-2.61c.41-1.07.92-2.15,1.5-3.34a39.73,39.73,0,0,1,3.16-4.73c1.15-1.39,2-2.13,2.69-2.25,1-.17,1.88.47,2.88,1.69a7.71,7.71,0,0,1,1.13,2.49,5,5,0,0,1,0,1.28,8.41,8.41,0,0,1-1.21,2.2c-.81,1-1.63,2.07-2.63,3.14-3.36,3.57-5.61,5.55-6.76,5.75H167c-.77.14-1.15-.3-1.35-1.45A9.81,9.81,0,0,1,165.62,123.61ZM200,65c1.41-2.73,2.54-4.82,3.48-6.27a9,9,0,0,1,2.08-2.35l.2,0c.19,0,.41.13.48.52.15.87-.21,2.82-1,5.74A139.53,139.53,0,0,1,198.53,80c-2.89,6.27-4.94,10.5-6.09,12.49-.75,1.42-1.32,2.11-1.71,2.18-.19,0-.31,0-.37-.43l0-.1c-.13-.77.23-2.72,1.16-6s2-6.71,3.34-10.52c.87-2.44,1.76-4.78,2.65-7.12S199.27,66.49,200,65Zm9.44-13.77a5,5,0,0,0-1.56-.42,9,9,0,0,0-2.19,0,5.76,5.76,0,0,0-2.62,1.55,39.26,39.26,0,0,0-3.16,3.53,76.33,76.33,0,0,0-6.14,10.5,132.26,132.26,0,0,0-5.87,13.74c-1.49,4-2.86,8.15-4,12.22a107,107,0,0,0-2.39,11.44c-.4,3.45-.75,6-1,7.63-1.16-1-2-1.75-2.59-2.34-2.57-2.24-5.28-2.36-8.13-.48-3.05,1.92-5.41,5.51-7.31,10.61a16.35,16.35,0,0,0-1.06,8.24,3.3,3.3,0,0,0,.44,1.41c.89,2.83,2.57,3.93,5.07,3.4a15.36,15.36,0,0,0,5.39-2.72,28,28,0,0,0,5.55-5.24c.66-.81,1.31-1.62,2-2.33s.92-1,1.12-1,.45.32.94.83.92,1.33,1.44,2a16.21,16.21,0,0,0,3.73,4.32,9.24,9.24,0,0,0,4.56,2.19,10.34,10.34,0,0,0,4.89.15,24.48,24.48,0,0,0,7.3-2.65,53.47,53.47,0,0,0,14.68-11.09c1-1,2.11-2.16,3.2-3.34l3-3.5a44.53,44.53,0,0,0,4.36-5.82c.94-1.46,1.47-2.44,1.4-2.83l-.11-.08c-.23-.16-.78.13-1.67.69s-1.94,1.43-3.06,2.42c-11.79,10.58-20.56,16.77-26.41,18.58s-9.42-.45-10.57-7.11a10.9,10.9,0,0,1-.07-5c.22-1,1.33-3.21,3.15-6.51a268.65,268.65,0,0,0,12.52-24.73c3.19-7.41,5.31-13.55,6.26-18.38a23,23,0,0,0,.59-6.37A5.57,5.57,0,0,0,209.44,51.21Z"/><path class="cls-2" d="M239.67,95.48a9.66,9.66,0,0,1,2.55-1.33c.58-.1.95-.27,1.33-.33l.29,0c.31,0,.52.11.55.3a1.25,1.25,0,0,1-.17.72,5.56,5.56,0,0,1-1.39,1.74,13.34,13.34,0,0,1-3.9,2.16,15.55,15.55,0,0,1-1.82.42l-.29,0c-.29,0-.4,0-.43-.23s.12-.42.54-.89A17.85,17.85,0,0,1,239.67,95.48Zm9.13.51c1.13-2.09,1.23-3.79.19-5.2a5.46,5.46,0,0,0-4.85-1.65l-.68.12-1,.17-1.68.59A22,22,0,0,0,233,95.64a28.94,28.94,0,0,0-5.44,8.2,13.36,13.36,0,0,0-1.32,4.4,9.84,9.84,0,0,0-.05,3.19l.12.67a8.45,8.45,0,0,0,2.72,4.21A9.41,9.41,0,0,0,233.7,119a20.4,20.4,0,0,0,8.31.35l1.15-.2a37.81,37.81,0,0,0,10-3.31,58,58,0,0,0,5.89-3.31c2-1.33,4-2.68,5.93-4.21a64.76,64.76,0,0,0,9.05-8c2.52-2.63,3.7-4.42,3.62-5.5l0-.2c0-.19-.18-.46-.21-.65l-.26-.36c-.19,0-1.64.88-4.33,2.54s-6,3.73-9.66,6.25c-7.53,5.28-13.52,8.6-18.08,9.79s-8.4,1.45-11.47.39a3.79,3.79,0,0,1-2.33-2.58,6.26,6.26,0,0,1,.46-4.25,3.85,3.85,0,0,1,1.43-2,11.86,11.86,0,0,1,3.38-1.18,35.54,35.54,0,0,0,7.85-2.85C246.64,98.45,248.13,97.3,248.8,96Z"/><path class="cls-2" d="M280.47,75.69a2,2,0,0,0,.94.84,1.19,1.19,0,0,0,.84.25c.58-.1,1.39-1.14,2.6-3.34a14.7,14.7,0,0,0,1.81-5.08,4.74,4.74,0,0,0,0-1.19,3.49,3.49,0,0,0-2.26-2.69,3.73,3.73,0,0,0-1.83-.28,2.88,2.88,0,0,0-2,1.64c-.62,1-.91,2.74-.9,5.13a11.75,11.75,0,0,0,.12,3A3.2,3.2,0,0,0,280.47,75.69ZM279.26,106a8.43,8.43,0,0,0,3.86,1.62,9.5,9.5,0,0,0,1.95-.24c1.15-.2,2.8-.48,4.89-1a55.29,55.29,0,0,0,8.91-3c3.73-1.44,7.5-3.18,11.45-5.06,3.78-1.75,7.44-3.57,11.08-5.5a83.06,83.06,0,0,0,8.49-4.94,22.13,22.13,0,0,0,2.64-1.95c.71-.52,1-1,1-1.27-.11-.57-2.15-.32-6.1,1s-10.77,3.85-20.37,7.5c-4.66,1.8-8.87,3.33-12.81,4.71a67.93,67.93,0,0,1-7.45,2.28c-2.9.5-4.64.21-5.32-.87s-1-3.9-.78-8.51c0-2.19.09-4.09.2-5.7s.09-2.4.07-2.5-.13-.18-.36-.34a2.35,2.35,0,0,1-.74-.26l-.19,0c-.57.2-1.11,1.09-1.81,2.8a61,61,0,0,0-1.93,6.59,44.58,44.58,0,0,0-.68,4.69,11.25,11.25,0,0,0-.06,3.69l.1.58a9.75,9.75,0,0,0,1,3.31A8.77,8.77,0,0,0,279.26,106Z"/><path class="cls-2" d="M334.05,77.45a13.68,13.68,0,0,1,1.69-5.16c1-1.76,1.8-2.8,2.58-2.93l.09,0c.1,0,.21.06.25.26A5.9,5.9,0,0,1,338.5,71a21,21,0,0,1-1.39,3.42,14.12,14.12,0,0,1-1.58,2.36,1.5,1.5,0,0,1-1,.66C334.37,77.59,334.18,77.63,334.05,77.45Zm9-11.29a9.14,9.14,0,0,0-1.66-2.7,2.69,2.69,0,0,0-2.57-1.05c-1.73.31-3.61,1.52-5.53,3.65a19.32,19.32,0,0,0-4.36,8.11,15.83,15.83,0,0,0-1,7.12v.1a6.74,6.74,0,0,0,2.75,4.39,5.11,5.11,0,0,0,2.86,1.59,11.9,11.9,0,0,0,4.2-.42,31.7,31.7,0,0,0,4.55-1.29,29.59,29.59,0,0,0,4.16-1.81,41.81,41.81,0,0,1,5.77-2.29c1.43-.35,2.23-.29,2.33.29A29.41,29.41,0,0,1,353,86.3q-1.67,4.17-4,9.64c-1.63,3.76-3.12,7.2-4.36,10.4s-2,5.31-2.22,6.15a7.8,7.8,0,0,0,.18,5,3.61,3.61,0,0,0,2.91,2.47,5.06,5.06,0,0,0,1.65.32c.11.08.3,0,.59,0a8.32,8.32,0,0,0,3-1.31,16.73,16.73,0,0,0,3.21-2.14,44.84,44.84,0,0,0,4.45-3.56,82.64,82.64,0,0,0,6.48-6.78c2.65-3,5.45-6.41,8.21-10s5.27-6.88,7.76-10.29,4.41-6.13,5.81-8.37c.7-1.11,1.23-2.1,1.69-2.87a2.43,2.43,0,0,0,.4-1.16.31.31,0,0,1-.13-.18c-.23-.16-.68.12-1.38.64s-2.66,2.44-5.52,5.43c-1.51,1.65-3.54,3.69-5.87,6.28s-5.38,5.7-8.92,9.4c-4.44,4.74-8.31,8.79-11.63,12s-5.31,4.9-5.67,4.56c-.22-.16.07-1.31.87-3.63s1.85-4.79,3.21-7.81,2.4-5.69,3.38-8,1.65-4.26,2.25-6a18.25,18.25,0,0,0,1.26-7.08,6.26,6.26,0,0,0-2.23-3.69c-1.13-.79-2.66-1-4.8-.75a44.21,44.21,0,0,0-9.11,3.06c-1.67.69-2.88,1.2-3.44,1.39-.74.33-1.12.4-1.25.22s-.09-.48.51-1.08,1.07-1.28,1.71-2.19c1.56-2.45,2.21-4.45,2-6.21A26.71,26.71,0,0,0,343,66.16Z"/><path class="cls-2" d="M400.4,71.43c.29-.05.56-.19,1-.26.19,0,.46-.18.66-.22.67-.11,1.09,0,1.22.19s-.36.76-1.23,1.51a82.79,82.79,0,0,1-7.9,6c-3.17,2.33-5.34,3.6-6.3,3.77-.2,0-.29.05-.31,0a.35.35,0,0,1-.44-.22c-.08-.48.7-1.71,2.33-3.78a17.4,17.4,0,0,1,4.95-4.14A40.11,40.11,0,0,1,400.4,71.43Zm17.32-10.75a.75.75,0,0,1-.51-.11c-.2,0-.31,0-.5,0h-.1a6.06,6.06,0,0,0-1.57.67,27.39,27.39,0,0,0-2.84,2A17,17,0,0,1,407.81,66a31.74,31.74,0,0,1-6.39,1.61c-2.78.58-4.89,1-6.2,1.47a18.57,18.57,0,0,0-3.82,2,30.4,30.4,0,0,0-5.65,5.25,12.57,12.57,0,0,0-2.87,5.27,7.38,7.38,0,0,0-.27,2.44v.09a3.22,3.22,0,0,0,1.09,1.7c1.49,1.73,4.26,1.65,8.13-.11s8.84-5.21,15-10.64l4.58-4c1.3-1.12,2-1.64,2.13-1.46a4,4,0,0,1-.21,1.63,27.94,27.94,0,0,0-.45,3.16c-.3,3.43,0,6,1.14,7.75a7.65,7.65,0,0,0,5.29,3.56,10.33,10.33,0,0,0,4.71.18l.28,0a37.44,37.44,0,0,0,7.49-2.69,88.32,88.32,0,0,0,10.75-5.64,130.39,130.39,0,0,0,11.07-7.28c1.76-1.3,3.35-2.47,4.74-3.61a17.82,17.82,0,0,0,3-3c.66-.81,1.25-1.4,1.57-1.86-1.51.46-2.54.84-3.21,1-.94.36-3,1.21-6.2,2.66s-6.68,3.34-10.23,5.25a121.38,121.38,0,0,1-16.57,7.64q-5.61,2-7.05.62c-.69-.57-1-1.62-.95-3.21a46.17,46.17,0,0,1,1-7.62,17.81,17.81,0,0,0,.36-5.34A3.72,3.72,0,0,0,417.72,60.68Z"/><path class="cls-3" d="M15.42,169.14a25.85,25.85,0,0,0,3.85,1,8.85,8.85,0,0,0,3.21.14l.48-.08a28.45,28.45,0,0,0,7.81-3.14,40.56,40.56,0,0,0,8.82-5.9,35.71,35.71,0,0,0,3.63-3.71,50.49,50.49,0,0,0,3.61-4.41,57.4,57.4,0,0,0,5.09-7.93c.89-1.75,1.28-2.91,1.15-3.68a.54.54,0,0,0-.37-.44c-.21-.06-1.19.61-3.15,1.94s-4.11,3.2-6.55,5.21c-7.11,6-12.71,9.85-17,11.68s-7.53,1.9-9.63.08c-1.64-1.41-2.59-4-3.06-7.92a38.59,38.59,0,0,1,.42-12.5,81.22,81.22,0,0,1,4.11-14.13,130.7,130.7,0,0,1,6.78-14.79c1.36-2.52,2.73-5,4.23-7.19a49.58,49.58,0,0,1,4.34-5.92c3.37-4.07,5.47-5.13,6.21-3.17s.11,6.94-1.79,14.93a53.34,53.34,0,0,0-1.62,9c-.1,1.71.37,2.13,1.32,1.27.7-.52,1.56-2.46,2.63-6s2-7.09,2.7-10.8c.57-2.49,1-4.74,1.3-6.89a18.33,18.33,0,0,0,.21-4.51A6.5,6.5,0,0,0,41.75,87,6.83,6.83,0,0,0,37,85.78l-.19,0a10.47,10.47,0,0,0-4,1.78A37.08,37.08,0,0,0,28,92a78.44,78.44,0,0,0-9.34,13.24,126.16,126.16,0,0,0-8.53,17.88C5.75,134.53,4,144.48,5,153l.35,2C6.6,162.41,9.9,167.11,15.42,169.14Z"/><path class="cls-3" d="M66.25,127.44c.29,0,.56-.2.94-.27.2,0,.47-.18.66-.21.68-.12,1.1,0,1.23.18s-.37.76-1.23,1.51a80.78,80.78,0,0,1-7.9,6c-3.18,2.34-5.34,3.61-6.31,3.77-.19,0-.29,0-.3,0-.2,0-.41,0-.44-.22-.08-.49.7-1.72,2.33-3.79a17.37,17.37,0,0,1,5-4.13A39.16,39.16,0,0,1,66.25,127.44Zm17.32-10.76a.74.74,0,0,1-.52-.11c-.19,0-.3,0-.5,0l-.09,0a5.61,5.61,0,0,0-1.58.67,26.07,26.07,0,0,0-2.83,2,16.7,16.7,0,0,1-4.4,2.75,31.08,31.08,0,0,1-6.38,1.6c-2.78.58-4.89,1-6.21,1.47a18.64,18.64,0,0,0-3.82,2.06,30.7,30.7,0,0,0-5.65,5.25,12.48,12.48,0,0,0-2.86,5.27,7.43,7.43,0,0,0-.28,2.43l0,.1a3.19,3.19,0,0,0,1.09,1.7c1.49,1.73,4.26,1.64,8.13-.12s8.84-5.21,15-10.64c1.73-1.49,3.28-2.86,4.58-4s2-1.64,2.13-1.47a4.09,4.09,0,0,1-.22,1.63,26.14,26.14,0,0,0-.44,3.16c-.3,3.43,0,6,1.14,7.75a7.59,7.59,0,0,0,5.29,3.56,10.29,10.29,0,0,0,4.7.18l.29-.05a37.23,37.23,0,0,0,7.49-2.69,89.06,89.06,0,0,0,10.75-5.64,128,128,0,0,0,11.07-7.28c1.76-1.3,3.35-2.47,4.74-3.6a18.61,18.61,0,0,0,3-3c.66-.81,1.25-1.41,1.57-1.86-1.51.46-2.54.83-3.22,1-.93.36-3,1.21-6.2,2.66s-6.67,3.35-10.22,5.25q-10.94,5.77-16.57,7.64-5.61,2-7,.63c-.7-.58-1-1.62-1-3.22a45.92,45.92,0,0,1,1-7.62,17.86,17.86,0,0,0,.37-5.33A3.73,3.73,0,0,0,83.57,116.68Z"/><path class="cls-3" d="M137,94.11c1.55-4.84,3.32-9.52,5.15-13.91a97,97,0,0,1,5.13-10.53,21.87,21.87,0,0,1,2.28-3.48c.66-.81,1.17-1.3,1.65-1.38l.2,0,.09,0a.72.72,0,0,1,.28.45,13.4,13.4,0,0,1-.4,3.45c-.66,2.5-1.54,5.43-2.74,8.82-.67,1.91-1.45,3.73-2.21,5.65s-1.62,3.86-2.51,5.61a122.57,122.57,0,0,1-6.28,11.92c-1.56,2.46-2.56,3.62-2.94,3.69a.26.26,0,0,1-.34-.24,12.08,12.08,0,0,1,.69-3.5C135.53,98.74,136.24,96.53,137,94.11Zm19.7-29.75a8.19,8.19,0,0,0-.77-5c-.76-1-2-1.34-3.76-1a6.49,6.49,0,0,0-3.32,2.07A36.49,36.49,0,0,0,145,65.4,105.87,105.87,0,0,0,137,81.08a212.13,212.13,0,0,0-7.93,22c-3.31,10.72-5.14,19.08-5.59,25.13a26,26,0,0,0,.16,6.63c.43,2.51,1.34,4.34,2.7,5.3a6.44,6.44,0,0,0,5.15,1l.29-.05a15.88,15.88,0,0,0,6.19-2.66,54.69,54.69,0,0,0,4.63-3.68c2.18-1.77,4.43-3.75,6.67-5.73s4.83-4.22,7.78-6.72,5.48-4.52,7.4-6c.44-.37,1.12-1,2.18-1.77.88-.65,1.67-1.28,2.36-1.9a2.18,2.18,0,0,0,.95-1.36c0-.19-.74-.26-2.12-.22-2.64.25-6,1.63-10.14,4a136.6,136.6,0,0,0-15.11,10.87c-3,2.4-5.61,4.35-7.75,5.81s-3.49,2.19-3.91,2.07c-.81-.06-1.28-1.07-1.33-3a44,44,0,0,1,.85-8.9,19.31,19.31,0,0,1,1.94-6,105.74,105.74,0,0,1,5.78-9.15,131.92,131.92,0,0,0,8.62-14.51,153.35,153.35,0,0,0,6.49-14.75c.87-2.43,1.66-4.76,2.26-7.05A34.84,34.84,0,0,0,156.71,64.36Z"/><path class="cls-3" d="M168,121.35a6.57,6.57,0,0,1,.74-2.61c.41-1.06.92-2.15,1.51-3.34a37.34,37.34,0,0,1,3.16-4.72c1.15-1.39,2-2.14,2.69-2.26,1-.17,1.87.47,2.87,1.69a7.39,7.39,0,0,1,1.13,2.49,5.11,5.11,0,0,1,0,1.29,8.41,8.41,0,0,1-1.21,2.2c-.81,1-1.63,2.07-2.63,3.14-3.36,3.56-5.6,5.54-6.76,5.74l-.1,0c-.77.13-1.14-.3-1.34-1.46A9.7,9.7,0,0,1,168,121.35Zm34.38-58.63c1.41-2.73,2.54-4.82,3.49-6.27a9,9,0,0,1,2.07-2.35l.2,0c.19,0,.42.12.48.51.15.87-.2,2.82-1,5.74a138.94,138.94,0,0,1-6.72,17.46c-2.89,6.27-4.94,10.5-6.09,12.49-.75,1.42-1.32,2.12-1.71,2.18-.19,0-.3,0-.37-.43l0-.1c-.13-.77.23-2.72,1.16-6s2-6.71,3.35-10.52c.87-2.44,1.75-4.78,2.64-7.12S201.62,64.24,202.35,62.72ZM211.79,49a5,5,0,0,0-1.56-.43,9.48,9.48,0,0,0-2.19,0,5.86,5.86,0,0,0-2.62,1.55,40.7,40.7,0,0,0-3.16,3.53,77,77,0,0,0-6.13,10.5,130.16,130.16,0,0,0-5.88,13.74c-1.48,4-2.86,8.15-3.95,12.22a111.79,111.79,0,0,0-2.39,11.45c-.39,3.45-.75,6-1,7.62-1.17-1-2-1.74-2.59-2.34-2.58-2.23-5.28-2.36-8.14-.48-3.05,1.92-5.41,5.51-7.31,10.61a16.35,16.35,0,0,0-1.06,8.24,3.3,3.3,0,0,0,.45,1.41c.88,2.83,2.57,3.93,5.06,3.4a15.18,15.18,0,0,0,5.39-2.72,27.74,27.74,0,0,0,5.56-5.24c.65-.81,1.31-1.62,2-2.33s.93-1,1.12-1,.45.32.94.83.92,1.33,1.44,2a16.05,16.05,0,0,0,3.74,4.32,9.3,9.3,0,0,0,4.55,2.2,10.51,10.51,0,0,0,4.9.14,24.25,24.25,0,0,0,7.29-2.65A53.47,53.47,0,0,0,221,114.47c1-1,2.11-2.16,3.2-3.34l3-3.5a43,43,0,0,0,4.36-5.82c.94-1.46,1.47-2.44,1.4-2.83l-.11-.08c-.23-.16-.77.14-1.67.69S229.16,101,228,102c-11.79,10.59-20.56,16.78-26.41,18.59s-9.42-.46-10.57-7.12a10.9,10.9,0,0,1-.07-5c.22-1,1.34-3.21,3.15-6.51a268.65,268.65,0,0,0,12.52-24.73c3.19-7.41,5.31-13.54,6.26-18.38a22.54,22.54,0,0,0,.59-6.36A5.54,5.54,0,0,0,211.79,49Z"/><path class="cls-3" d="M242,93.23a9.73,9.73,0,0,1,2.55-1.34c.58-.1,1-.26,1.34-.33l.28,0c.31,0,.52.11.55.3a1.29,1.29,0,0,1-.17.73,5.63,5.63,0,0,1-1.39,1.73,13.34,13.34,0,0,1-3.9,2.16,16,16,0,0,1-1.81.42l-.29.05c-.29,0-.41,0-.44-.22s.13-.42.54-.89A17.35,17.35,0,0,1,242,93.23Zm9.13.5c1.13-2.08,1.23-3.79.19-5.2a5.43,5.43,0,0,0-4.85-1.64l-.68.11-1,.17-1.69.59a22,22,0,0,0-7.77,5.62,28.66,28.66,0,0,0-5.44,8.2,13.22,13.22,0,0,0-1.33,4.4,9.81,9.81,0,0,0,0,3.19l.11.68a8.46,8.46,0,0,0,2.72,4.2,9.54,9.54,0,0,0,4.64,2.68,20.76,20.76,0,0,0,8.31.35l1.16-.21a37.27,37.27,0,0,0,10-3.31,55.11,55.11,0,0,0,5.89-3.31c1.95-1.33,4-2.68,5.93-4.2a63.67,63.67,0,0,0,9.05-8c2.53-2.63,3.71-4.42,3.62-5.5l0-.19c0-.2-.18-.47-.21-.66l-.26-.35a47.79,47.79,0,0,0-4.33,2.54c-2.79,1.67-6,3.72-9.65,6.24-7.54,5.28-13.53,8.6-18.09,9.79s-8.4,1.45-11.46.39a3.79,3.79,0,0,1-2.34-2.57,6.35,6.35,0,0,1,.46-4.26,3.85,3.85,0,0,1,1.43-2,11.86,11.86,0,0,1,3.38-1.18,35.54,35.54,0,0,0,7.85-2.85C249,96.19,250.48,95,251.15,93.73Z"/><path class="cls-3" d="M282.82,73.44a2,2,0,0,0,.94.83,1.19,1.19,0,0,0,.84.25c.58-.1,1.4-1.13,2.61-3.33A14.89,14.89,0,0,0,289,66.1a4.74,4.74,0,0,0,0-1.19,3.49,3.49,0,0,0-2.25-2.69,3.78,3.78,0,0,0-1.84-.28,2.84,2.84,0,0,0-2,1.64c-.63,1-.92,2.75-.91,5.13a12.74,12.74,0,0,0,.12,3A3.35,3.35,0,0,0,282.82,73.44Zm-1.21,30.33a8.39,8.39,0,0,0,3.86,1.61,10,10,0,0,0,1.95-.23c1.16-.2,2.8-.49,4.89-1.05a55.8,55.8,0,0,0,8.92-3c3.72-1.44,7.5-3.19,11.44-5.07,3.78-1.74,7.44-3.57,11.08-5.49a83.66,83.66,0,0,0,8.49-5,21.09,21.09,0,0,0,2.64-2c.71-.52,1-1,1-1.26-.1-.58-2.15-.33-6.1,1S319,87.15,309.39,90.81c-4.66,1.8-8.87,3.32-12.81,4.7a65.58,65.58,0,0,1-7.45,2.28c-2.9.5-4.64.21-5.32-.86s-1-3.91-.78-8.52q0-3.28.21-5.7c0-1.59.08-2.4.06-2.5s-.13-.17-.36-.33a2.67,2.67,0,0,1-.74-.27l-.19,0c-.56.2-1.11,1.09-1.8,2.8a59,59,0,0,0-1.94,6.6,46.53,46.53,0,0,0-.68,4.69,11.54,11.54,0,0,0-.06,3.69l.1.57a10.14,10.14,0,0,0,1,3.32A9,9,0,0,0,281.61,103.77Z"/><path class="cls-3" d="M336.4,75.19A13.68,13.68,0,0,1,338.09,70c1-1.76,1.81-2.8,2.58-2.93l.09,0c.1,0,.21.07.25.26a6.26,6.26,0,0,1-.15,1.42,21.94,21.94,0,0,1-1.4,3.42,13.15,13.15,0,0,1-1.58,2.36,1.52,1.52,0,0,1-1,.67C336.73,75.34,336.53,75.37,336.4,75.19Zm9-11.29a9.26,9.26,0,0,0-1.66-2.7,2.64,2.64,0,0,0-2.56-1c-1.74.3-3.62,1.52-5.54,3.64a19.45,19.45,0,0,0-4.36,8.11,15.84,15.84,0,0,0-.95,7.12l0,.1a6.7,6.7,0,0,0,2.74,4.39,5.14,5.14,0,0,0,2.86,1.6,12,12,0,0,0,4.2-.43,31.7,31.7,0,0,0,4.55-1.29,28.47,28.47,0,0,0,4.16-1.81,43.13,43.13,0,0,1,5.77-2.29c1.43-.35,2.24-.29,2.34.29A31.81,31.81,0,0,1,355.33,84q-1.66,4.17-4,9.64c-1.63,3.77-3.12,7.2-4.36,10.4s-2,5.31-2.21,6.15a7.8,7.8,0,0,0,.17,5,3.63,3.63,0,0,0,2.92,2.48,5.27,5.27,0,0,0,1.64.31c.11.08.31,0,.6,0a8.3,8.3,0,0,0,3-1.3,17,17,0,0,0,3.21-2.15,46,46,0,0,0,4.45-3.55,83,83,0,0,0,6.48-6.79c2.65-3,5.45-6.41,8.22-10s5.27-6.88,7.76-10.29,4.4-6.13,5.81-8.36c.7-1.12,1.22-2.1,1.68-2.88a2.32,2.32,0,0,0,.4-1.16.36.36,0,0,1-.13-.18c-.23-.16-.68.12-1.38.64s-2.66,2.45-5.52,5.43c-1.51,1.65-3.54,3.69-5.87,6.28s-5.38,5.7-8.91,9.4c-4.45,4.74-8.32,8.79-11.63,12s-5.32,4.9-5.68,4.56c-.22-.16.08-1.3.87-3.63s1.85-4.79,3.22-7.81,2.39-5.68,3.38-8,1.64-4.26,2.25-6a18.41,18.41,0,0,0,1.26-7.07,6.33,6.33,0,0,0-2.23-3.69c-1.14-.8-2.67-1-4.81-.76a43.75,43.75,0,0,0-9.11,3.07c-1.67.68-2.87,1.19-3.44,1.39-.73.32-1.12.39-1.25.21s-.08-.48.51-1.08,1.07-1.28,1.71-2.18c1.56-2.46,2.21-4.46,2-6.21A25.48,25.48,0,0,0,345.38,63.9Z"/><path class="cls-3" d="M402.75,69.17c.29,0,.56-.19.95-.26.19,0,.47-.18.66-.21.67-.12,1.09,0,1.22.18s-.36.76-1.23,1.51a79.54,79.54,0,0,1-7.9,6c-3.17,2.34-5.34,3.61-6.3,3.77-.19,0-.29,0-.31,0-.19,0-.4,0-.43-.23-.09-.48.69-1.71,2.32-3.78A17.4,17.4,0,0,1,396.68,72,40.57,40.57,0,0,1,402.75,69.17Zm17.33-10.75a.71.71,0,0,1-.52-.11c-.19,0-.31,0-.5,0l-.1,0a5.56,5.56,0,0,0-1.57.67,27,27,0,0,0-2.84,2,17.24,17.24,0,0,1-4.39,2.75,31.92,31.92,0,0,1-6.39,1.6c-2.78.58-4.88,1-6.2,1.47a18.57,18.57,0,0,0-3.82,2,30.76,30.76,0,0,0-5.65,5.26,12.51,12.51,0,0,0-2.87,5.27A7.32,7.32,0,0,0,385,81.8v.09a3.18,3.18,0,0,0,1.09,1.7c1.5,1.73,4.27,1.65,8.13-.11s8.84-5.21,15-10.64c1.73-1.49,3.28-2.86,4.58-4s2-1.63,2.13-1.46a4,4,0,0,1-.21,1.63,28.27,28.27,0,0,0-.45,3.16c-.3,3.43,0,6,1.15,7.75a7.57,7.57,0,0,0,5.28,3.56,10.33,10.33,0,0,0,4.71.18l.29-.05a37,37,0,0,0,7.48-2.69,89.1,89.1,0,0,0,10.76-5.64A127.79,127.79,0,0,0,455.93,68c1.76-1.3,3.35-2.47,4.75-3.61a18.62,18.62,0,0,0,3-3c.65-.81,1.24-1.41,1.56-1.86-1.51.46-2.54.83-3.21.95-.93.36-3,1.21-6.2,2.66s-6.68,3.35-10.23,5.25A120.14,120.14,0,0,1,429,76.06c-3.74,1.35-6.09,1.55-7,.63-.7-.58-1-1.62-1-3.22a46.29,46.29,0,0,1,1-7.62,18.21,18.21,0,0,0,.37-5.33A3.76,3.76,0,0,0,420.08,58.42Z"/></g></g></svg>