<svg xmlns="http://www.w3.org/2000/svg" xmlns:xlink="http://www.w3.org/1999/xlink" viewBox="0 0 147 147"><defs><style>.cls-1{fill:none;}.cls-2{clip-path:url(#clip-path);}.cls-3{fill:#2bdb7f;}.cls-4{fill:#fefdef;}.cls-5{fill:#1f212b;}</style><clipPath id="clip-path" transform="translate(0 0)"><rect class="cls-1" width="147" height="147"/></clipPath></defs><g id="Layer_2" data-name="Layer 2"><g id="Layer_1-2" data-name="Layer 1"><g class="cls-2"><path class="cls-3" d="M144.92,73.54q0,1.75-.09,3.51c-.06,1.17-.14,2.33-.26,3.5s-.26,2.32-.43,3.48-.37,2.31-.6,3.45-.48,2.29-.77,3.43-.59,2.26-.93,3.38-.71,2.23-1.1,3.33-.82,2.19-1.26,3.27-.93,2.15-1.43,3.21-1,2.1-1.57,3.13-1.13,2-1.73,3-1.23,2-1.88,3-1.32,1.93-2,2.87-1.41,1.86-2.15,2.77-1.51,1.78-2.3,2.65-1.59,1.71-2.41,2.54-1.68,1.63-2.54,2.42-1.76,1.55-2.66,2.29-1.83,1.46-2.77,2.16-1.89,1.37-2.86,2-2,1.27-3,1.87-2,1.18-3,1.73-2.07,1.08-3.13,1.58-2.13,1-3.21,1.42-2.17.87-3.27,1.26-2.21.76-3.33,1.1-2.25.66-3.38.94-2.28.54-3.42.77-2.3.43-3.46.6-2.31.31-3.48.43-2.33.2-3.5.26-2.33.08-3.5.08-2.34,0-3.51-.08-2.33-.15-3.5-.26-2.32-.26-3.48-.43-2.31-.37-3.45-.6-2.29-.49-3.43-.77-2.26-.6-3.38-.94-2.23-.7-3.33-1.1-2.19-.81-3.27-1.26-2.15-.92-3.21-1.42-2.1-1-3.13-1.58-2.05-1.12-3.05-1.73-2-1.22-3-1.87-1.93-1.32-2.87-2-1.86-1.42-2.77-2.16-1.78-1.5-2.65-2.29-1.71-1.59-2.54-2.42-1.63-1.67-2.42-2.54-1.55-1.75-2.29-2.65-1.46-1.83-2.16-2.77-1.37-1.89-2-2.87-1.27-2-1.87-3-1.18-2-1.73-3-1.08-2.08-1.58-3.13-1-2.13-1.42-3.21-.87-2.17-1.26-3.27-.76-2.21-1.1-3.33S4.42,92,4.14,90.91s-.54-2.28-.77-3.43-.43-2.3-.6-3.45-.31-2.32-.43-3.48-.2-2.33-.26-3.5S2,74.71,2,73.54s0-2.34.08-3.5.15-2.34.26-3.5.26-2.33.43-3.48.37-2.31.6-3.46.49-2.29.77-3.42.6-2.26.94-3.38.7-2.23,1.1-3.33S7,47.28,7.44,46.2,8.36,44.05,8.86,43s1-2.1,1.58-3.13,1.12-2,1.73-3,1.22-2,1.87-3,1.32-1.93,2-2.86,1.42-1.87,2.16-2.77,1.5-1.79,2.29-2.66S22.1,23.84,22.93,23s1.67-1.63,2.54-2.41,1.75-1.55,2.65-2.3,1.83-1.46,2.77-2.15,1.89-1.37,2.87-2,2-1.28,3-1.88,2-1.18,3.05-1.73S41.85,9.45,42.9,9,45,8,46.11,7.52s2.17-.86,3.27-1.26,2.21-.76,3.33-1.1,2.25-.65,3.38-.93,2.28-.54,3.43-.77S61.82,3,63,2.86s2.32-.32,3.48-.43,2.33-.2,3.5-.26,2.34-.09,3.51-.09,2.34,0,3.5.09,2.34.14,3.5.26,2.33.26,3.48.43,2.31.37,3.46.6,2.29.48,3.42.77,2.26.59,3.38.93,2.23.71,3.33,1.1,2.19.82,3.27,1.26S103,8.45,104,9s2.1,1,3.13,1.57,2,1.13,3,1.73,2,1.23,3,1.88,1.93,1.32,2.86,2,1.87,1.41,2.77,2.15,1.79,1.51,2.66,2.3S123.16,22.19,124,23s1.63,1.68,2.41,2.54,1.55,1.76,2.3,2.66S130.16,30,130.85,31s1.37,1.89,2,2.86,1.28,2,1.88,3,1.18,2,1.73,3,1.07,2.07,1.57,3.13,1,2.13,1.43,3.21.86,2.17,1.26,3.27.76,2.21,1.1,3.33.65,2.25.93,3.38.54,2.27.77,3.42.43,2.3.6,3.46.32,2.31.43,3.48.2,2.33.26,3.5S144.92,72.37,144.92,73.54Z" transform="translate(0 0)"/><path class="cls-4" d="M134.71,73.54q0,3-.3,6a59.9,59.9,0,0,1-.88,5.94q-.59,3-1.46,5.83A59.56,59.56,0,0,1,130,97a57.43,57.43,0,0,1-2.57,5.44,60,60,0,0,1-3.09,5.15,58,58,0,0,1-3.58,4.83q-1.9,2.32-4,4.45t-4.46,4c-1.55,1.27-3.16,2.47-4.82,3.58s-3.39,2.14-5.16,3.09-3.58,1.8-5.43,2.57-3.74,1.44-5.66,2-3.87,1.06-5.83,1.46-4,.68-6,.88-4,.29-6,.29-4-.1-6-.29-4-.49-5.94-.88-3.91-.88-5.83-1.46-3.81-1.26-5.66-2a60,60,0,0,1-5.44-2.57c-1.77-1-3.48-2-5.15-3.09s-3.28-2.31-4.83-3.58-3-2.62-4.45-4-2.77-2.9-4-4.45-2.47-3.16-3.58-4.83-2.14-3.39-3.09-5.15A60,60,0,0,1,16.87,97c-.77-1.85-1.44-3.74-2-5.66s-1.06-3.86-1.46-5.83-.68-3.95-.88-5.94-.29-4-.29-6,.1-4,.29-6,.49-4,.88-6,.88-3.91,1.46-5.83,1.26-3.8,2-5.66,1.62-3.66,2.57-5.43,2-3.49,3.09-5.16,2.31-3.27,3.58-4.82,2.62-3,4-4.46,2.9-2.76,4.45-4a61.7,61.7,0,0,1,10-6.67A57.43,57.43,0,0,1,50,17a59.56,59.56,0,0,1,5.66-2q2.88-.87,5.83-1.46a59.9,59.9,0,0,1,5.94-.88q3-.3,6-.3t6,.3a59.67,59.67,0,0,1,6,.88c2,.39,3.91.88,5.83,1.46s3.8,1.26,5.66,2a61.67,61.67,0,0,1,10.59,5.66,59.51,59.51,0,0,1,4.82,3.58q2.32,1.9,4.46,4t4,4.46a59.51,59.51,0,0,1,3.58,4.82A61.67,61.67,0,0,1,130,50.1c.77,1.86,1.45,3.74,2,5.66s1.07,3.87,1.46,5.83a59.67,59.67,0,0,1,.88,6Q134.71,70.54,134.71,73.54Z" transform="translate(0 0)"/><path class="cls-5" d="M73.5,4.08A69.42,69.42,0,1,0,142.92,73.5,69.5,69.5,0,0,0,73.5,4.08ZM73.5,147A73.5,73.5,0,1,1,147,73.5,73.58,73.58,0,0,1,73.5,147Z" transform="translate(0 0)"/><path class="cls-5" d="M73.5,134.75A61.25,61.25,0,1,1,93.22,15.51a1,1,0,0,1-.65,1.94,59.26,59.26,0,1,0,20.07,11.64A1,1,0,0,1,114,27.56,61.24,61.24,0,0,1,73.5,134.75Z" transform="translate(0 0)"/><path class="cls-5" d="M103.1,22.08a1.13,1.13,0,0,1-.5-.13c-1.33-.76-2.68-1.46-4-2.08a1,1,0,0,1-.49-1.36A1,1,0,0,1,99.45,18q2.08,1,4.16,2.15a1,1,0,0,1-.51,1.91Z" transform="translate(0 0)"/><path class="cls-5" d="M109.23,26a1.06,1.06,0,0,1-.61-.2c-.66-.49-1.32-1-2-1.43a1,1,0,1,1,1.14-1.69c.7.48,1.39,1,2.08,1.48a1,1,0,0,1-.61,1.84Z" transform="translate(0 0)"/></g></g></g></svg>