<svg xmlns="http://www.w3.org/2000/svg" version="1.1" xmlns:xlink="http://www.w3.org/1999/xlink" xmlns:svgjs="http://svgjs.com/svgjs" width="228" height="288"><svg width="228" height="288" viewBox="0 0 228 288" fill="none" xmlns="http://www.w3.org/2000/svg">
<path d="M112.491 287.389C112.894 287.479 113.328 287.539 113.747 287.539C114.165 287.539 114.584 287.479 114.988 287.389C160.187 276.145 227.067 227.686 227.067 159.386V56.86C227.067 54.0341 224.75 51.7315 221.924 51.7315C179.236 51.7315 136.518 31.6211 118.083 2.82368C117.141 1.37334 115.511 0.461273 113.747 0.461273C111.997 0.461273 110.338 1.37334 109.396 2.82368C90.9449 31.6211 48.2421 51.7315 5.56925 51.7315C2.72838 51.7315 0.425781 54.0341 0.425781 56.86V159.386C0.425781 227.686 67.3058 276.145 112.491 287.389Z" fill="#002F54"></path>
<path d="M112.294 208.686C78.2177 208.686 50.5938 181.063 50.5938 146.987C50.5938 112.911 78.2177 85.287 112.294 85.287" stroke="#2CDE80" stroke-width="21"></path>
<path d="M113.746 208.686C147.821 208.686 175.445 181.063 175.445 146.987C175.445 112.911 147.821 85.2869 113.746 85.2869" stroke="#DDDD3F" stroke-width="21"></path>
<path d="M113.463 147.215L114.878 148.633L116.294 147.215L177.862 85.5343C182.38 81.0088 189.707 81.0088 194.225 85.5343L194.225 85.5347C198.747 90.0619 198.747 97.4085 194.225 101.94L195.64 103.353L194.225 101.94L123.135 173.162L123.133 173.164L123.065 173.232L123.063 173.234C118.546 177.76 111.215 177.76 106.698 173.235C106.698 173.235 106.697 173.234 106.697 173.234L104.139 170.67L104.139 170.669L78.7234 145.207C74.2042 140.68 74.2042 133.333 78.7234 128.805C83.2443 124.276 90.5716 124.277 95.0885 128.805L95.0889 128.805L113.463 147.215Z" fill="#2CDE80" stroke="#002F54" stroke-width="4"></path>
</svg><style>@media (prefers-color-scheme: light) { :root { filter: none; } }
</style></svg>